<svg width="18.000000" height="18.000000" viewBox="0 0 18 18" fill="none" xmlns="http://www.w3.org/2000/svg" xmlns:xlink="http://www.w3.org/1999/xlink">
	<desc>
			Created with Pixso.
	</desc>
	<defs/>
	<path id="Vector" d="M10.0385 13.5C10.0385 13.7054 9.97754 13.9062 9.86346 14.0769C9.74933 14.2477 9.58716 14.3808 9.3974 14.4594C9.20764 14.538 8.99884 14.5586 8.79742 14.5185C8.59595 14.4784 8.41095 14.3795 8.26569 14.2343C8.12048 14.0891 8.02155 13.904 7.98151 13.7026C7.94141 13.5011 7.96198 13.2923 8.04059 13.1026C8.1192 12.9128 8.25232 12.7507 8.42303 12.6366C8.59381 12.5224 8.79462 12.4615 9 12.4615C9.27539 12.4615 9.53955 12.5709 9.73431 12.7657C9.92908 12.9604 10.0385 13.2246 10.0385 13.5ZM9 4.15384C7.09094 4.15384 5.53845 5.55144 5.53845 7.26923L5.53845 7.61539C5.53845 7.799 5.61139 7.97508 5.74121 8.10492C5.87109 8.23476 6.04718 8.30769 6.23077 8.30769C6.41437 8.30769 6.59045 8.23476 6.72034 8.10492C6.85016 7.97508 6.9231 7.799 6.9231 7.61539L6.9231 7.26923C6.9231 6.31731 7.8551 5.53847 9 5.53847C10.1449 5.53847 11.0769 6.31731 11.0769 7.26923C11.0769 8.22115 10.1449 9 9 9C8.81641 9 8.64032 9.07294 8.51044 9.20277C8.38062 9.3326 8.30768 9.5087 8.30768 9.69231L8.30768 10.3846C8.30768 10.5682 8.38062 10.7443 8.51044 10.8741C8.64032 11.004 8.81641 11.0769 9 11.0769C9.18359 11.0769 9.35968 11.004 9.48956 10.8741C9.61938 10.7443 9.69232 10.5682 9.69232 10.3846L9.69232 10.3223C11.2708 10.0324 12.4615 8.77327 12.4615 7.26923C12.4615 5.55144 10.9091 4.15384 9 4.15384ZM18 9C18 10.78 17.4722 12.5201 16.4832 14.0001C15.4943 15.4802 14.0887 16.6337 12.4442 17.3149C10.7996 17.9961 8.98999 18.1743 7.2442 17.8271C5.49835 17.4798 3.89471 16.6226 2.63605 15.364C1.37738 14.1053 0.520203 12.5016 0.172913 10.7558C-0.174316 9.00998 0.00390625 7.20038 0.685059 5.55585C1.36627 3.91132 2.51984 2.50571 3.99988 1.51677C5.47992 0.527847 7.21997 0 9 0C11.3862 0.0025177 13.6739 0.951538 15.3612 2.63882C17.0485 4.3261 17.9975 6.61383 18 9ZM16.6154 9C16.6154 7.49382 16.1688 6.02145 15.332 4.76912C14.4952 3.51677 13.3058 2.5407 11.9143 1.96429C10.5228 1.38791 8.99158 1.23711 7.51434 1.53094C6.03705 1.82478 4.68011 2.55008 3.61511 3.61511C2.55011 4.68015 1.82477 6.03708 1.53094 7.51431C1.23712 8.99155 1.38794 10.5228 1.96429 11.9143C2.54071 13.3058 3.51678 14.4952 4.7691 15.332C6.02148 16.1687 7.49384 16.6154 9 16.6154C11.019 16.6131 12.9547 15.81 14.3824 14.3824C15.81 12.9547 16.6131 11.019 16.6154 9Z" fill="#1CAB3E" fill-opacity="1.000000" fill-rule="nonzero"/>
</svg>
