<svg width="18" height="18" viewBox="0 0 18 18" fill="none" xmlns="http://www.w3.org/2000/svg">
<path d="M18 8.99994V15.9999C18 16.5304 17.7893 17.0391 17.4142 17.4142C17.0391 17.7892 16.5304 17.9999 16 17.9999H2C1.46957 17.9999 0.960859 17.7892 0.585786 17.4142C0.210714 17.0391 0 16.5304 0 15.9999V8.99994H18ZM13 -6.10352e-05C13.2652 -6.10352e-05 13.5196 0.105296 13.7071 0.292832C13.8946 0.480368 14 0.734722 14 0.999939V1.99994H16C16.5304 1.99994 17.0391 2.21065 17.4142 2.58573C17.7893 2.9608 18 3.46951 18 3.99994V6.99994H0V3.99994C0 3.46951 0.210714 2.9608 0.585786 2.58573C0.960859 2.21065 1.46957 1.99994 2 1.99994H4V0.999939C4 0.734722 4.10536 0.480368 4.29289 0.292832C4.48043 0.105296 4.73478 -6.10352e-05 5 -6.10352e-05C5.26522 -6.10352e-05 5.51957 0.105296 5.70711 0.292832C5.89464 0.480368 6 0.734722 6 0.999939V1.99994H12V0.999939C12 0.734722 12.1054 0.480368 12.2929 0.292832C12.4804 0.105296 12.7348 -6.10352e-05 13 -6.10352e-05Z" fill="#3AB8EE"/>
</svg>
