<?xml version="1.0" encoding="UTF-8" standalone="no" ?>
<!DOCTYPE svg PUBLIC "-//W3C//DTD SVG 1.1//EN" "http://www.w3.org/Graphics/SVG/1.1/DTD/svg11.dtd">
<svg xmlns="http://www.w3.org/2000/svg" xmlns:xlink="http://www.w3.org/1999/xlink" version="1.1" width="1080" height="1080" viewBox="0 0 1080 1080" xml:space="preserve">
<desc>Created with Fabric.js 5.2.4</desc>
<defs>
</defs>
<g transform="matrix(1 0 0 1 540 540)" id="edc86541-f221-4df9-a650-37287365cac2"  >
<rect style="stroke: none; stroke-width: 1; stroke-dasharray: none; stroke-linecap: butt; stroke-dashoffset: 0; stroke-linejoin: miter; stroke-miterlimit: 4; fill: rgb(255,255,255); fill-rule: nonzero; opacity: 1; visibility: hidden;" vector-effect="non-scaling-stroke"  x="-540" y="-540" rx="0" ry="0" width="1080" height="1080" />
</g>
<g transform="matrix(1 0 0 1 540 540)" id="04644e84-ee06-453e-b372-caddd7ba8a30"  >
</g>
<g transform="matrix(45 0 0 45 540 540)"  >
<path style="stroke: none; stroke-width: 1; stroke-dasharray: none; stroke-linecap: butt; stroke-dashoffset: 0; stroke-linejoin: miter; stroke-miterlimit: 4; fill: rgb(255,255,255); fill-rule: evenodd; opacity: 1;"  transform=" translate(-12, -11.5)" d="M 18 9.41422 C 18 9.0164 17.8419 8.63487 17.5606 8.35357 L 13.6464 4.43934 C 13.3651 4.15804 12.9836 4 12.5858 4 L 7 4.00001 C 6.44772 4.00001 6 4.44773 6 5.00001 L 6 18 C 6 18.5523 6.44772 19 7 19 L 17 19 C 17.5523 19 18 18.5523 18 18 L 18 10 L 18 9.99077 L 18 9.41422 Z M 16.7929 9.00001 L 13.5 9.00001 C 13.2239 9.00001 13 8.77615 13 8.50001 L 13 5.20713 L 16.7929 9.00001 Z M 15 13 L 8 13 L 8 12 L 15 12 L 15 13 Z M 8 16 L 13 16 L 13 15 L 8 15 L 8 16 Z" stroke-linecap="round" />
</g>
</svg>