<?xml version="1.0" encoding="UTF-8" standalone="no" ?>
<!DOCTYPE svg PUBLIC "-//W3C//DTD SVG 1.1//EN" "http://www.w3.org/Graphics/SVG/1.1/DTD/svg11.dtd">
<svg xmlns="http://www.w3.org/2000/svg" xmlns:xlink="http://www.w3.org/1999/xlink" version="1.1" width="1080" height="1080" viewBox="0 0 1080 1080" xml:space="preserve">
<desc>Created with Fabric.js 5.2.4</desc>
<defs>
</defs>
<g transform="matrix(1 0 0 1 540 540)" id="fd5d5b91-86c1-4837-85ea-ddc332089562"  >
<rect style="stroke: none; stroke-width: 1; stroke-dasharray: none; stroke-linecap: butt; stroke-dashoffset: 0; stroke-linejoin: miter; stroke-miterlimit: 4; fill: rgb(255,255,255); fill-rule: nonzero; opacity: 1; visibility: hidden;" vector-effect="non-scaling-stroke"  x="-540" y="-540" rx="0" ry="0" width="1080" height="1080" />
</g>
<g transform="matrix(1 0 0 1 540 540)" id="ea2513f9-a62e-408c-ba0c-0e44fd99729f"  >
</g>
<g transform="matrix(45 0 0 45 540 540)"  >
<g style=""   >
		<g transform="matrix(1 0 0 1 0 -4.5)"  >
<path style="stroke: none; stroke-width: 1; stroke-dasharray: none; stroke-linecap: butt; stroke-dashoffset: 0; stroke-linejoin: miter; stroke-miterlimit: 4; fill: rgb(255,255,255); fill-rule: nonzero; opacity: 1;" vector-effect="non-scaling-stroke"  transform=" translate(-12, -7.5)" d="M 12.0012 3.75 C 9.92933 3.75 8.25 5.43029 8.25 7.50062 C 8.25 9.56971 9.92809 11.25 12.0012 11.25 C 14.0719 11.25 15.75 9.57095 15.75 7.50062 C 15.75 5.43029 14.0732 3.75 12.0012 3.75 Z" stroke-linecap="round" />
</g>
		<g transform="matrix(1 0 0 1 0 5.25)"  >
<path style="stroke: none; stroke-width: 1; stroke-dasharray: none; stroke-linecap: butt; stroke-dashoffset: 0; stroke-linejoin: miter; stroke-miterlimit: 4; fill: rgb(255,255,255); fill-rule: nonzero; opacity: 1;" vector-effect="non-scaling-stroke"  transform=" translate(-12, -17.25)" d="M 19.4959 17.3996 C 19.4946 17.3601 19.4878 17.2379 19.4865 17.2163 C 19.4527 16.8484 19.3527 16.4933 19.1946 16.1522 C 18.7069 15.1047 17.6638 14.2099 16.2803 13.6002 C 16.3411 13.9528 16.3776 14.3397 16.3452 14.6987 C 16.2911 15.2969 16.2371 15.7004 16.1817 15.9753 C 16.5978 16.1611 16.9167 16.445 17.1302 16.8242 C 17.5949 17.6528 17.4233 18.7309 17.2599 19.3457 C 17.3828 19.473 17.4585 19.6397 17.4585 19.8255 C 17.4585 20.2175 17.1207 20.5345 16.7059 20.5345 C 16.2898 20.5345 15.9533 20.2175 15.9533 19.8255 C 15.9533 19.4806 16.2141 19.1942 16.56 19.1306 C 16.6924 18.61 16.8221 17.7559 16.4803 17.1463 C 16.3438 16.9032 16.1411 16.7237 15.8696 16.6015 C 15.8642 16.599 15.8601 16.5964 15.8547 16.5939 C 15.752 16.5493 15.6399 16.5124 15.5183 16.4831 C 15.0589 16.3749 14.6738 16.4284 14.3361 16.6435 C 13.7618 17.0113 13.4335 17.8043 13.2781 18.3656 C 13.4538 18.4954 13.5659 18.6953 13.5659 18.9218 C 13.5659 19.3139 13.2282 19.6321 12.8134 19.6321 C 12.3972 19.6321 12.0608 19.3139 12.0608 18.9218 C 12.0608 18.6176 12.2648 18.3593 12.5499 18.2587 C 12.7093 17.6465 13.093 16.6041 13.9226 16.072 C 14.378 15.7793 14.8995 15.68 15.475 15.7691 C 15.5142 15.5502 15.5642 15.1989 15.6156 14.6388 C 15.6561 14.1959 15.5669 13.6842 15.4683 13.2871 C 15.4332 13.2757 15.398 13.2655 15.3629 13.254 C 15.1616 13.1904 14.9562 13.1318 14.7455 13.0784 C 13.8956 12.8671 12.9701 12.75 12.0027 12.75 C 11.034 12.75 10.1098 12.8671 9.25995 13.0784 C 9.04783 13.1318 8.84246 13.1904 8.63979 13.254 C 8.63844 13.2528 8.63844 13.2528 8.63709 13.2515 C 8.63709 13.2528 8.63574 13.254 8.63574 13.254 C 8.49252 13.6041 8.25608 14.3525 8.25608 15.4713 C 8.25608 15.9066 8.30742 16.2668 8.38173 16.5659 C 8.44659 16.5582 8.51144 16.5531 8.57764 16.5531 C 9.40993 16.5531 10.0841 17.1883 10.0841 17.9723 C 10.0841 18.7551 9.40993 19.3902 8.57764 19.3902 C 7.74671 19.3902 7.07251 18.7551 7.07251 17.9723 C 7.07251 17.5001 7.31841 17.0826 7.69537 16.8255 C 7.59269 16.4564 7.52243 16.0071 7.52243 15.4725 C 7.52243 14.6732 7.63322 14.0432 7.75752 13.585 C 6.35372 14.1959 5.29715 15.0971 4.80535 16.1535 C 4.64727 16.4933 4.54729 16.8497 4.51351 17.2175 C 4.51216 17.2392 4.50405 17.3601 4.50405 17.4008 C 4.5027 17.4314 4.5 17.5307 4.5 17.5396 L 4.5 20.6363 C 4.5 21.2511 5.02963 21.75 5.68222 21.75 L 18.3178 21.75 C 18.9704 21.75 19.5 21.2511 19.5 20.6363 L 19.5 17.5408 C 19.5 17.5294 19.4973 17.4301 19.4959 17.3996 Z" stroke-linecap="round" />
</g>
</g>
</g>
</svg>