<svg width="18" height="18" viewBox="0 0 18 18" fill="none" xmlns="http://www.w3.org/2000/svg">
<path d="M4.25025 0C2.79643 0 1.61353 1.21806 1.61353 2.67188V12.5148C2.17891 11.999 2.91818 11.6718 3.72291 11.6718H4.77759V0H4.25025Z" fill="#3AB8EE"/>
<path d="M15.8518 12.7266H3.72291C2.59439 12.7266 1.61353 13.6757 1.61353 14.8359C1.61353 15.9855 2.5522 16.9453 3.72291 16.9453H8.99634V15.3632H4.25025C3.95876 15.3632 3.72291 15.1274 3.72291 14.8359C3.72291 14.5444 3.95876 14.3086 4.25025 14.3086C5.37293 14.3086 14.5997 14.3086 15.8336 14.3086C15.9047 14.0362 16.0101 13.7783 16.1789 13.5609C16.5503 13.0824 16.237 12.7266 15.8518 12.7266Z" fill="#3AB8EE"/>
<path d="M16.2329 16.1733C16.0377 15.9411 15.902 15.6637 15.8244 15.3633H13.2188V16.9454H15.8555C16.2201 16.9454 16.5606 16.5626 16.2329 16.1733Z" fill="#3AB8EE"/>
<path d="M11.11 6.36328C9.83645 6.36328 8.77149 7.27071 8.52637 8.47266H13.6937C13.4486 7.27071 12.3836 6.36328 11.11 6.36328Z" fill="#3AB8EE"/>
<path d="M11.1057 3.19922C10.5243 3.19922 10.051 3.6725 10.051 4.25391C10.051 4.83532 10.5243 5.30859 11.1057 5.30859C11.6872 5.30859 12.1604 4.83532 12.1604 4.25391C12.1604 3.6725 11.6872 3.19922 11.1057 3.19922Z" fill="#3AB8EE"/>
<path d="M14.7971 0H5.83228V11.6718H16.3792V1.58203C16.3792 0.708293 15.6709 0 14.7971 0ZM14.2698 9.52734H7.94167C7.6502 9.52734 7.41433 9.29147 7.41433 9C7.41433 7.52284 8.29235 6.25469 9.54901 5.66515C9.20913 5.29056 8.99634 4.79844 8.99634 4.25391C8.99634 3.09055 9.94237 2.14453 11.1057 2.14453C12.2691 2.14453 13.2151 3.09055 13.2151 4.25391C13.2151 4.79844 13.0023 5.29056 12.6624 5.66515C13.9191 6.25469 14.7971 7.52284 14.7971 9C14.7971 9.29147 14.5612 9.52734 14.2698 9.52734Z" fill="#3AB8EE"/>
<path d="M10.051 15.3633V18L10.8132 17.4917C10.9018 17.4325 11.0038 17.4031 11.1057 17.4031C11.2077 17.4031 11.3097 17.4325 11.3983 17.4917L12.1604 18V15.3633H10.051Z" fill="#3AB8EE"/>
</svg>
