<svg width="26.000000" height="18.000000" viewBox="0 0 26 18" fill="none" xmlns="http://www.w3.org/2000/svg" xmlns:xlink="http://www.w3.org/1999/xlink">
	<desc>
			Created with Pixso.
	</desc>
	<defs/>
	<path id="Vector" d="M12.9943 0C9.35095 0 6.16119 2.21494 3.96936 4.26443C2.8559 5.30563 1.95782 6.34372 1.33813 7.12079C1.02771 7.51001 0.785583 7.83572 0.61969 8.06625C0.536743 8.18161 0.472717 8.27319 0.42865 8.33719C0.406616 8.3692 0.389526 8.39426 0.377625 8.41199L0.363525 8.43292L0.359375 8.43921L0 9.01761L0.358032 9.55881L0.359375 9.56079L0.363525 9.56708L0.377625 9.58801C0.389526 9.60574 0.406616 9.6308 0.42865 9.66281C0.472717 9.72681 0.536743 9.81839 0.61969 9.93375C0.785583 10.1643 1.02771 10.49 1.33813 10.8792C1.95782 11.6563 2.8559 12.6944 3.96936 13.7356C6.16119 15.7851 9.35095 18 12.9943 18C16.6375 18 19.8271 15.7851 22.019 13.7356C23.1325 12.6944 24.0306 11.6563 24.6502 10.8792C24.9607 10.49 25.2027 10.1643 25.3687 9.93375C25.4516 9.81839 25.5157 9.72681 25.5597 9.66281C25.5817 9.6308 25.5988 9.60574 25.6108 9.58801L25.6248 9.56708L25.629 9.56079L25.6309 9.55814L26 9L25.6303 8.44119L25.629 8.43921L25.6248 8.43292L25.6108 8.41199C25.5988 8.39426 25.5817 8.3692 25.5597 8.33719C25.5157 8.27319 25.4516 8.18161 25.3687 8.06625C25.2027 7.83572 24.9607 7.51001 24.6502 7.12079C24.0306 6.34372 23.1325 5.30563 22.019 4.26443C19.8271 2.21494 16.6375 0 12.9943 0ZM2.86914 9.62079C2.68085 9.38467 2.52057 9.1748 2.3905 9C2.52057 8.8252 2.68085 8.61533 2.86914 8.37921C3.44568 7.65628 4.2785 6.6944 5.30389 5.73557C7.38983 3.78506 10.1098 2 12.9943 2C15.8785 2 18.5986 3.78506 20.6844 5.73557C21.7098 6.6944 22.5427 7.65628 23.1192 8.37921C23.3076 8.61533 23.4678 8.8252 23.5979 9C23.4678 9.1748 23.3076 9.38467 23.1192 9.62079C22.5427 10.3437 21.7098 11.3056 20.6844 12.2644C18.5986 14.2149 15.8785 16 12.9943 16C10.1098 16 7.38983 14.2149 5.30389 12.2644C4.2785 11.3056 3.44568 10.3437 2.86914 9.62079ZM15.949 9C15.949 10.6568 14.6261 12 12.9941 12C11.3622 12 10.0393 10.6568 10.0393 9C10.0393 7.3432 11.3622 6 12.9941 6C14.6261 6 15.949 7.3432 15.949 9ZM17.9188 9C17.9188 11.7615 15.714 14 12.9941 14C10.2743 14 8.06946 11.7615 8.06946 9C8.06946 6.23859 10.2743 4 12.9941 4C15.714 4 17.9188 6.23859 17.9188 9Z" fill="#2770F1" fill-opacity="1.000000" fill-rule="evenodd"/>
</svg>
