<?xml version="1.0" encoding="UTF-8" standalone="no" ?>
<!DOCTYPE svg PUBLIC "-//W3C//DTD SVG 1.1//EN" "http://www.w3.org/Graphics/SVG/1.1/DTD/svg11.dtd">
<svg xmlns="http://www.w3.org/2000/svg" xmlns:xlink="http://www.w3.org/1999/xlink" version="1.1" width="1080" height="1080" viewBox="0 0 1080 1080" xml:space="preserve">
<desc>Created with Fabric.js 5.2.4</desc>
<defs>
</defs>
<rect x="0" y="0" width="100%" height="100%" fill="transparent"></rect>
<g transform="matrix(1 0 0 1 540 540)" id="c4b14959-d5e9-48f7-98c9-7ae25cae0844"  >
<rect style="stroke: none; stroke-width: 1; stroke-dasharray: none; stroke-linecap: butt; stroke-dashoffset: 0; stroke-linejoin: miter; stroke-miterlimit: 4; fill: rgb(255,255,255); fill-rule: nonzero; opacity: 1; visibility: hidden;" vector-effect="non-scaling-stroke"  x="-540" y="-540" rx="0" ry="0" width="1080" height="1080" />
</g>
<g transform="matrix(1 0 0 1 540 540)" id="6906441c-00b8-4215-8431-fa93260d50b7"  >
</g>
<g transform="matrix(41.54 0 0 41.54 540 540)"  >
<g style=""   >
		<g transform="matrix(1 0 0 1 0 0)"  >
<rect style="stroke: none; stroke-width: 1; stroke-dasharray: none; stroke-linecap: butt; stroke-dashoffset: 0; stroke-linejoin: miter; stroke-miterlimit: 4; fill: rgb(58,184,238); fill-rule: nonzero; opacity: 1;" vector-effect="non-scaling-stroke"  x="-13" y="-13" rx="13" ry="13" width="26" height="26" />
</g>
		<g transform="matrix(1 0 0 1 0 0.5)"  >
<path style="stroke: none; stroke-width: 1; stroke-dasharray: none; stroke-linecap: butt; stroke-dashoffset: 0; stroke-linejoin: miter; stroke-miterlimit: 4; fill: rgb(255,255,255); fill-rule: evenodd; opacity: 1;" vector-effect="non-scaling-stroke"  transform=" translate(-13, -13.5)" d="M 13 21 C 13 21 19 15.3135 19 12 C 19 8.68652 16.3137 6 13 6 C 9.68628 6 7 8.68652 7 12 C 7 15.3135 13 21 13 21 Z M 13 15 C 14.6569 15 16 13.6567 16 12 C 16 10.3433 14.6569 9 13 9 C 11.3431 9 10 10.3433 10 12 C 10 13.6567 11.3431 15 13 15 Z" stroke-linecap="round" />
</g>
</g>
</g>
<g transform="matrix(41.54 0 0 41.54 540 540)"  >
<g style=""   >
		<g transform="matrix(1 0 0 1 0 0)"  >
<rect style="stroke: none; stroke-width: 1; stroke-dasharray: none; stroke-linecap: butt; stroke-dashoffset: 0; stroke-linejoin: miter; stroke-miterlimit: 4; fill: rgb(58,184,238); fill-rule: nonzero; opacity: 1;" vector-effect="non-scaling-stroke"  x="-13" y="-13" rx="13" ry="13" width="26" height="26" />
</g>
		<g transform="matrix(1 0 0 1 0 0)"  >
<path style="stroke: none; stroke-width: 1; stroke-dasharray: none; stroke-linecap: butt; stroke-dashoffset: 0; stroke-linejoin: miter; stroke-miterlimit: 4; fill: rgb(255,255,255); fill-rule: evenodd; opacity: 1;" vector-effect="non-scaling-stroke"  transform=" translate(-13, -13)" d="M 15.1543 16.7392 L 15.6717 16.0249 C 15.9941 15.579 16.5328 15.3917 17.0637 15.5423 L 20.0618 16.3878 C 20.6565 16.5558 21.0426 17.106 20.9962 17.7218 C 20.9596 18.2218 20.9943 18.7295 20.6603 19.1407 C 19.5695 20.4862 18.4286 21.3936 15.9903 20.8299 C 10.8569 18.6735 7.32583 15.1407 5.16938 10.0095 C 4.60758 7.5713 5.51302 6.42846 6.85863 5.33966 C 7.27178 5.00762 7.77759 5.04044 8.27761 5.00376 C 8.89346 4.95743 9.44367 5.34352 9.61163 5.93811 L 10.4572 8.93616 C 10.6059 9.46511 10.4186 10.0037 9.97458 10.328 L 9.26027 10.8454 C 9.12513 10.9439 9.08652 11.1273 9.17146 11.272 C 10.3549 13.2585 12.7411 15.6427 14.7277 16.826 C 14.8725 16.9129 15.0559 16.8743 15.1543 16.7392 Z" stroke-linecap="round" />
</g>
</g>
</g>
<g transform="matrix(41.54 0 0 41.54 540 540)"  >
<g style=""   >
		<g transform="matrix(1 0 0 1 0 0)"  >
<rect style="stroke: none; stroke-width: 1; stroke-dasharray: none; stroke-linecap: butt; stroke-dashoffset: 0; stroke-linejoin: miter; stroke-miterlimit: 4; fill: rgb(58,184,238); fill-rule: nonzero; opacity: 1;" vector-effect="non-scaling-stroke"  x="-13" y="-13" rx="13" ry="13" width="26" height="26" />
</g>
		<g transform="matrix(1 0 0 1 0 0.5)"  >
<path style="stroke: none; stroke-width: 1; stroke-dasharray: none; stroke-linecap: butt; stroke-dashoffset: 0; stroke-linejoin: miter; stroke-miterlimit: 4; fill: rgb(255,255,255); fill-rule: evenodd; opacity: 1;" vector-effect="non-scaling-stroke"  transform=" translate(-13, -13.5)" d="M 13 21 C 13 21 19 15.3135 19 12 C 19 8.68652 16.3137 6 13 6 C 9.68628 6 7 8.68652 7 12 C 7 15.3135 13 21 13 21 Z M 13 15 C 14.6569 15 16 13.6567 16 12 C 16 10.3433 14.6569 9 13 9 C 11.3431 9 10 10.3433 10 12 C 10 13.6567 11.3431 15 13 15 Z" stroke-linecap="round" />
</g>
</g>
</g>
<g transform="matrix(41.54 0 0 41.54 540 540)"  >
<g style=""   >
		<g transform="matrix(1 0 0 1 0 0)"  >
<rect style="stroke: none; stroke-width: 1; stroke-dasharray: none; stroke-linecap: butt; stroke-dashoffset: 0; stroke-linejoin: miter; stroke-miterlimit: 4; fill: rgb(58,184,238); fill-rule: nonzero; opacity: 1;" vector-effect="non-scaling-stroke"  x="-13" y="-13" rx="13" ry="13" width="26" height="26" />
</g>
		<g transform="matrix(1 0 0 1 0 0)"  >
<path style="stroke: none; stroke-width: 1; stroke-dasharray: none; stroke-linecap: butt; stroke-dashoffset: 0; stroke-linejoin: miter; stroke-miterlimit: 4; fill: rgb(255,255,255); fill-rule: nonzero; opacity: 1;" vector-effect="non-scaling-stroke"  transform=" translate(-13, -13)" d="M 13 6 C 9.13413 6 6 9.13413 6 13 C 6 16.8659 9.13413 20 13 20 C 16.8659 20 20 16.8659 20 13 C 20 9.13413 16.8659 6 13 6 Z M 15.3819 15.38 C 15.2288 15.5331 15.0272 15.6096 14.8275 15.6096 C 14.6277 15.6096 14.4261 15.5331 14.2731 15.38 L 12.216 13.3248 L 12.216 8.94373 C 12.216 8.51067 12.5669 8.15973 13 8.15973 C 13.4331 8.15973 13.784 8.51067 13.784 8.94373 L 13.784 12.6752 L 15.3819 14.2731 C 15.6861 14.5773 15.6861 15.0739 15.3819 15.38 Z" stroke-linecap="round" />
</g>
</g>
</g>
<g transform="matrix(41.54 0 0 41.54 540 540)"  >
<g style=""   >
		<g transform="matrix(1 0 0 1 0 0)"  >
<rect style="stroke: none; stroke-width: 1; stroke-dasharray: none; stroke-linecap: butt; stroke-dashoffset: 0; stroke-linejoin: miter; stroke-miterlimit: 4; fill: rgb(58,184,238); fill-rule: nonzero; opacity: 1;" vector-effect="non-scaling-stroke"  x="-13" y="-13" rx="13" ry="13" width="26" height="26" />
</g>
		<g transform="matrix(1 0 0 1 0 -2.55)"  >
<path style="stroke: none; stroke-width: 1; stroke-dasharray: none; stroke-linecap: butt; stroke-dashoffset: 0; stroke-linejoin: miter; stroke-miterlimit: 4; fill: rgb(255,255,255); fill-rule: nonzero; opacity: 1;" vector-effect="non-scaling-stroke"  transform=" translate(-13, -10.45)" d="M 6 9.66667 C 6 8.74619 6.7835 8 7.75 8 L 18.25 8 C 19.2165 8 20 8.74619 20 9.66667 L 13.3913 12.8137 C 13.145 12.931 12.855 12.931 12.6087 12.8137 L 6 9.66667 Z" stroke-linecap="round" />
</g>
		<g transform="matrix(1 0 0 1 0 1.46)"  >
<path style="stroke: none; stroke-width: 1; stroke-dasharray: none; stroke-linecap: butt; stroke-dashoffset: 0; stroke-linejoin: miter; stroke-miterlimit: 4; fill: rgb(255,255,255); fill-rule: nonzero; opacity: 1;" vector-effect="non-scaling-stroke"  transform=" translate(-13, -14.46)" d="M 13.3913 14.0637 L 20 10.9167 L 20 16.3333 C 20 17.2538 19.2165 18 18.25 18 L 7.75 18 C 6.7835 18 6 17.2538 6 16.3333 L 6 10.9167 L 12.6087 14.0637 C 12.855 14.181 13.145 14.181 13.3913 14.0637 Z" stroke-linecap="round" />
</g>
</g>
</g>
</svg>