<svg width="15" height="17" viewBox="0 0 15 17" fill="none" xmlns="http://www.w3.org/2000/svg">
<path fill-rule="evenodd" clip-rule="evenodd" d="M12.0969 2.82035C13.3122 3.96559 14 5.55332 14 7.2136C14 8.8738 13.3122 10.4616 12.0969 11.6068L7.49996 16L2.90314 11.6068C1.68781 10.4616 1 8.8738 1 7.2136C1 5.55332 1.68781 3.96559 2.90314 2.82035C5.47642 0.393216 9.52352 0.393216 12.0969 2.82035Z" stroke="#3AB8EE" stroke-width="1.625" stroke-linecap="round" stroke-linejoin="round"/>
<path fill-rule="evenodd" clip-rule="evenodd" d="M10.1001 6.83214C10.0907 7.50473 9.81142 8.14624 9.32384 8.61524C8.83614 9.08424 8.18011 9.34248 7.49995 9.33305C6.8198 9.34248 6.16377 9.08424 5.67618 8.61524C5.18849 8.14624 4.90924 7.50473 4.89983 6.83214C4.92003 5.43171 6.08409 4.31258 7.49995 4.33226C8.91593 4.31258 10.0799 5.43171 10.1001 6.83214Z" stroke="#3AB8EE" stroke-width="1.625" stroke-linecap="round" stroke-linejoin="round"/>
</svg>
