<?xml version="1.0" encoding="UTF-8" standalone="no" ?>
<!DOCTYPE svg PUBLIC "-//W3C//DTD SVG 1.1//EN" "http://www.w3.org/Graphics/SVG/1.1/DTD/svg11.dtd">
<svg xmlns="http://www.w3.org/2000/svg" xmlns:xlink="http://www.w3.org/1999/xlink" version="1.1" width="1080" height="1080" viewBox="0 0 1080 1080" xml:space="preserve">
<desc>Created with Fabric.js 5.2.4</desc>
<defs>
</defs>
<g transform="matrix(1 0 0 1 540 540)" id="c4b14959-d5e9-48f7-98c9-7ae25cae0844"  >
<rect style="stroke: none; stroke-width: 1; stroke-dasharray: none; stroke-linecap: butt; stroke-dashoffset: 0; stroke-linejoin: miter; stroke-miterlimit: 4; fill: rgb(255,255,255); fill-rule: nonzero; opacity: 1; visibility: hidden;" vector-effect="non-scaling-stroke"  x="-540" y="-540" rx="0" ry="0" width="1080" height="1080" />
</g>
<g transform="matrix(1 0 0 1 540 540)" id="6906441c-00b8-4215-8431-fa93260d50b7"  >
</g>
<g transform="matrix(41.54 0 0 41.54 540 540)"  >
<g style=""   >
		<g transform="matrix(1 0 0 1 0 0)"  >
<rect style="stroke: none; stroke-width: 1; stroke-dasharray: none; stroke-linecap: butt; stroke-dashoffset: 0; stroke-linejoin: miter; stroke-miterlimit: 4; fill: rgb(58,184,238); fill-rule: nonzero; opacity: 1;" vector-effect="non-scaling-stroke"  x="-13" y="-13" rx="13" ry="13" width="26" height="26" />
</g>
		<g transform="matrix(1 0 0 1 0 0.5)"  >
<path style="stroke: none; stroke-width: 1; stroke-dasharray: none; stroke-linecap: butt; stroke-dashoffset: 0; stroke-linejoin: miter; stroke-miterlimit: 4; fill: rgb(255,255,255); fill-rule: evenodd; opacity: 1;" vector-effect="non-scaling-stroke"  transform=" translate(-13, -13.5)" d="M 13 21 C 13 21 19 15.3135 19 12 C 19 8.68652 16.3137 6 13 6 C 9.68628 6 7 8.68652 7 12 C 7 15.3135 13 21 13 21 Z M 13 15 C 14.6569 15 16 13.6567 16 12 C 16 10.3433 14.6569 9 13 9 C 11.3431 9 10 10.3433 10 12 C 10 13.6567 11.3431 15 13 15 Z" stroke-linecap="round" />
</g>
</g>
</g>
</svg>