<svg width="20" height="20" viewBox="0 0 20 20" fill="none" xmlns="http://www.w3.org/2000/svg">
<path d="M15.3004 10.6718C15.0459 10.1537 14.3277 9.71729 13.3731 10.4537C12.0731 11.49 10.0004 11.49 10.0004 11.49C10.0004 11.49 7.92767 11.49 6.62767 10.4537C5.67313 9.71729 4.95495 10.1537 4.7004 10.6718C4.24586 11.5809 4.75495 12.0264 5.90949 12.7627C6.9004 13.3991 8.25495 13.6355 9.12767 13.7264L8.4004 14.4537C7.36404 15.4809 6.36404 16.4718 5.68222 17.1627C5.27313 17.5809 5.27313 18.2446 5.68222 18.6355L5.80949 18.7809C6.21858 19.19 6.89131 19.19 7.3004 18.7809L10.0004 16.0718C11.0459 17.0991 12.0368 18.09 12.7277 18.7809C13.1368 19.19 13.8004 19.19 14.2186 18.7809L14.3368 18.6355C14.7549 18.2446 14.7549 17.5809 14.3368 17.1627L11.6277 14.4537L10.9095 13.7173C11.7731 13.6355 13.1095 13.39 14.0913 12.7627C15.2459 12.0264 15.7549 11.5809 15.3004 10.6718ZM10.0004 3.24457C11.2549 3.24457 12.2731 4.26275 12.2731 5.5082C12.2731 6.76275 11.2549 7.77184 10.0004 7.77184C8.74586 7.77184 7.72767 6.76275 7.72767 5.5082C7.72767 4.26275 8.74586 3.24457 10.0004 3.24457ZM10.0004 10.1082C12.5459 10.1082 14.6004 8.05366 14.6004 5.5082C14.6004 4.28821 14.1158 3.11818 13.2531 2.25551C12.3904 1.39284 11.2204 0.908203 10.0004 0.908203C8.78041 0.908203 7.61038 1.39284 6.74771 2.25551C5.88504 3.11818 5.4004 4.28821 5.4004 5.5082C5.4004 8.05366 7.45495 10.1082 10.0004 10.1082Z" fill="#2770F1"/>
</svg>
