<svg width="24" height="24" viewBox="0 0 24 24" fill="none" xmlns="http://www.w3.org/2000/svg">
<path d="M11.5205 16.9281L17.4371 11.0115C16.4417 10.5959 15.5376 9.9887 14.7764 9.22439C14.0117 8.46299 13.4042 7.55867 12.9885 6.56288L7.07189 12.4795C6.6103 12.9411 6.37911 13.1722 6.18072 13.4266C5.94641 13.7268 5.7455 14.0517 5.58154 14.3954C5.44314 14.6866 5.33995 14.997 5.13356 15.6162L4.04399 18.8824C3.99385 19.032 3.98641 19.1926 4.02251 19.3461C4.05861 19.4997 4.13683 19.6401 4.24836 19.7516C4.3599 19.8632 4.50033 19.9414 4.65388 19.9775C4.80743 20.0136 4.968 20.0062 5.11756 19.956L8.38384 18.8664C9.00382 18.6601 9.31341 18.5569 9.6046 18.4185C9.94858 18.2545 10.2734 18.0537 10.5734 17.8193C10.8278 17.6209 11.0589 17.3897 11.5205 16.9281ZM19.0787 9.36998C19.6686 8.78006 20 7.97995 20 7.14566C20 6.31138 19.6686 5.51127 19.0787 4.92134C18.4887 4.33142 17.6886 4 16.8543 4C16.0201 4 15.2199 4.33142 14.63 4.92134L13.9204 5.63092L13.9508 5.71972C14.3005 6.72025 14.8727 7.62837 15.6244 8.37562C16.394 9.14975 17.3339 9.73326 18.3691 10.0796L19.0787 9.36998Z" fill="white"/>
</svg>
