<svg width="26" height="26" viewBox="0 0 26 26" fill="none" xmlns="http://www.w3.org/2000/svg">
<path d="M24.9978 19.6805V19.593C24.9783 18.9801 24.5698 18.4354 23.9862 18.2505L18.9673 16.5968C18.3643 16.4023 17.7029 16.6065 17.3138 17.1221C17.0415 17.4918 16.7303 17.9101 16.4871 18.2408C16.1175 18.7467 15.4561 18.9509 14.8628 18.7467C14.0068 18.4548 13.3065 17.9976 12.1977 17.0735C11.0208 16.0812 9.93144 14.982 8.92961 13.8049C8.0056 12.696 7.54845 11.9859 7.25666 11.1395C7.0524 10.5461 7.26638 9.89438 7.76243 9.515C8.09314 9.2718 8.51137 8.96051 8.88098 8.68813C9.39648 8.30875 9.60074 7.64726 9.40621 7.03441L7.75271 2.01488C7.55818 1.43121 7.02322 1.02265 6.41045 1.00319H6.32292C5.00984 0.944825 3.23962 1.69386 2.38369 2.67637C-1.39991 7.04414 3.35634 14.7485 7.30529 18.698C11.2542 22.6475 18.9576 27.3946 23.3248 23.6203C24.2975 22.7545 25.0464 20.984 24.9978 19.6805Z" fill="#2B4999"/>
</svg>
