<svg width="18" height="18" viewBox="0 0 18 18" fill="none" xmlns="http://www.w3.org/2000/svg">
<path d="M17.9983 14.0104V13.9447C17.9837 13.4851 17.6773 13.0765 17.2397 12.9379L13.4755 11.6976C13.0232 11.5517 12.5272 11.7049 12.2354 12.0916C12.0311 12.3688 11.7977 12.6825 11.6153 12.9306C11.3381 13.31 10.8421 13.4632 10.3971 13.31C9.75513 13.0911 9.2299 12.7482 8.39828 12.0551C7.5156 11.3109 6.69858 10.4865 5.94721 9.60371C5.2542 8.77198 4.91134 8.23939 4.69249 7.60465C4.5393 7.15961 4.69979 6.67078 5.07183 6.38625C5.31985 6.20385 5.63353 5.97038 5.91073 5.7661C6.29736 5.48156 6.45055 4.98545 6.30466 4.52581L5.06453 0.761161C4.91863 0.323411 4.51742 0.0169857 4.05784 0.00239407H3.99219C3.00738 -0.0413809 1.67972 0.520398 1.03777 1.25728C-1.79993 4.53311 1.76725 10.3114 4.72897 13.2735C7.69068 16.2356 13.4682 19.796 16.7436 16.9652C17.4731 16.3159 18.0348 14.988 17.9983 14.0104Z" fill="white"/>
</svg>
