<svg width="20" height="20" viewBox="0 0 20 20" fill="none" xmlns="http://www.w3.org/2000/svg">
<path d="M8.06403 12.6695C9.16158 11.6499 10.2239 10.6737 11.2863 9.69018C12.8341 8.25111 14.389 6.81928 15.9298 5.37298C16.1056 5.21389 16.1971 4.96079 16.3237 4.75107C16.0212 4.56306 15.8172 4.8017 15.6061 4.93909C12.3698 7.04345 9.13343 9.15505 5.90413 11.2739C5.68603 11.4185 5.5031 11.4474 5.25686 11.3606C4.12414 10.9485 2.97735 10.558 1.83759 10.1602C1.81649 10.153 1.78835 10.153 1.76724 10.1385C1.39436 9.9939 1.01444 9.81311 1.00037 9.3503C0.986295 8.89471 1.38028 8.75731 1.71799 8.61992C7.02981 6.47217 12.3416 4.33165 17.6535 2.19113C17.8927 2.09712 18.1459 2.02481 18.3992 2.00311C18.8284 1.96696 19.0676 2.24898 18.9832 2.68287C18.35 5.98766 17.7097 9.29244 17.0695 12.59C16.7811 14.0797 16.4926 15.5621 16.2041 17.0446C16.0212 17.9775 15.1981 18.2884 14.4523 17.7027C12.5175 16.184 10.5828 14.6582 8.64798 13.1324C8.47913 12.995 8.29621 12.8503 8.06403 12.6695Z" fill="#2770F1"/>
</svg>
