<svg width="20" height="20" viewBox="0 0 20 20" fill="none" xmlns="http://www.w3.org/2000/svg">
<path d="M6.58967 4.83856C6.87067 4.67076 7.12826 4.42305 7.42487 4.35913C8.58012 4.10343 9.75097 4.11941 10.914 4.3032C11.4916 4.39908 11.7102 4.67875 11.7102 5.30202C11.718 6.23691 11.679 7.16382 11.6712 8.09871C11.6712 8.48226 11.6634 8.8738 11.7336 9.24935C11.7726 9.45711 11.9288 9.7208 12.1005 9.80869C12.2254 9.87262 12.5142 9.72879 12.6547 9.59295C13.4665 8.83384 13.966 7.851 14.4734 6.87616C14.7388 6.37275 14.9574 5.84537 15.1681 5.318C15.332 4.91048 15.5584 4.71871 16.0111 4.7267C17.0649 4.75067 18.1187 4.71071 19.1724 4.69473C19.8984 4.68674 20.195 5.03833 19.8671 5.68556C19.4222 6.56452 18.8758 7.39554 18.3372 8.21857C17.9079 8.8738 17.4162 9.47309 16.979 10.1123C16.5966 10.6717 16.6434 10.9993 17.1039 11.4947C17.8377 12.2858 18.6026 13.0449 19.3129 13.8599C19.5705 14.1556 19.7735 14.5391 19.914 14.9147C20.0857 15.3781 19.8593 15.7297 19.3754 15.7537C18.2982 15.8096 17.2132 15.8496 16.136 15.8256C15.5428 15.8176 15.051 15.466 14.6451 15.0425C14.2471 14.627 13.8724 14.1795 13.4821 13.748C13.404 13.6601 13.3182 13.5802 13.2323 13.4923C12.483 12.7572 12.0458 13.2127 11.8195 13.9318C11.718 14.2514 11.718 14.611 11.6946 14.9546C11.6478 15.5459 11.4448 15.7776 10.8672 15.7697C10.0632 15.7537 9.2358 15.8096 8.46303 15.6418C6.84725 15.2902 5.5359 14.3473 4.48213 13.0688C2.62438 10.8155 1.26618 8.24254 0.110942 5.55771C-0.131034 4.99837 0.0172738 4.74268 0.610506 4.7267C1.50816 4.70272 2.40582 4.69473 3.30347 4.68674C3.78742 4.67875 4.08404 4.91847 4.29479 5.36594C4.84119 6.52457 5.41101 7.67521 6.01985 8.80188C6.19938 9.14548 6.48819 9.44113 6.777 9.69682C7.15948 10.0404 7.51074 9.93654 7.65905 9.43314C7.91663 8.53819 7.92444 7.62727 7.85419 6.70036C7.83858 6.52457 7.82297 6.35677 7.79174 6.18897C7.66685 5.43786 7.56538 5.33398 6.65992 4.96641C6.6365 4.92646 6.61308 4.87852 6.58967 4.83856Z" fill="#2770F1"/>
</svg>
