<svg width="35" height="35" viewBox="0 0 35 35" fill="none" xmlns="http://www.w3.org/2000/svg">
<path d="M33.6376 28.7115C33.6379 28.7115 33.6375 28.7115 33.6376 28.7115L31.7732 28.7137L31.7712 27.1008C31.7708 26.8248 31.5527 26.6013 31.2837 26.6013C31.284 26.6013 31.2835 26.6013 31.2837 26.6013C31.0145 26.6017 30.796 26.8257 30.7963 27.102L30.7983 28.7149L23.5063 28.7235L23.4991 22.3153L28.5457 22.3093C28.8033 22.309 29.0453 22.2058 29.2271 22.0189C29.4089 21.8319 29.5089 21.5835 29.5086 21.3193L29.5027 16.0946C29.5024 15.8304 29.4018 15.5821 29.2197 15.3956C29.0377 15.2094 28.796 15.1069 28.5389 15.1069C28.5385 15.1069 28.5381 15.1069 28.5376 15.1069L23.4909 15.1128L23.4885 13.0448L30.7806 13.0362L30.7936 24.8349C30.794 25.1108 31.012 25.3344 31.2811 25.3344C31.5504 25.334 31.7689 25.11 31.7685 24.8338L31.7555 13.0351L32.7149 13.034C33.4555 13.0329 34.0572 12.414 34.0561 11.6546L34.0549 10.3429C34.0539 9.58328 33.4513 8.96606 32.7116 8.96606C32.711 8.96606 32.7103 8.96606 32.7098 8.96606L29.5877 8.96939C29.3184 8.96966 29.1005 9.19383 29.1007 9.46999C29.101 9.74604 29.3192 9.96953 29.5882 9.96953L32.7109 9.9662C32.9139 9.9662 33.0798 10.1357 33.08 10.3441L33.0813 11.6558C33.0816 11.8639 32.9165 12.0336 32.7136 12.0338L23.4875 12.0446L23.4851 9.97693L27.3791 9.9722C27.6482 9.97187 27.8662 9.7477 27.8659 9.47153C27.8656 9.19556 27.6474 8.97206 27.3785 8.97206C27.3787 8.97206 27.3783 8.97206 27.3785 8.97206L23.484 8.97679L23.4813 6.62873C23.4809 6.26001 23.3405 5.91349 23.0861 5.65312C22.8321 5.39309 22.4946 5.25 22.1358 5.25C22.1353 5.25 22.1347 5.25 22.1343 5.25L12.8114 5.26107C12.452 5.26147 12.1143 5.40549 11.8605 5.66653C11.6067 5.92756 11.4671 6.27434 11.4676 6.64306L11.4702 8.99119L2.24382 9.0022C1.885 9.00259 1.54784 9.14649 1.29444 9.40732C1.04124 9.66796 0.902036 10.0142 0.902491 10.3822L0.903921 11.694C0.904311 12.0621 1.04443 12.4079 1.29828 12.6678C1.5518 12.9273 1.88858 13.0701 2.24668 13.0701H2.24837L3.21327 13.069V14.5662C3.21327 14.8425 3.43151 15.0664 3.70069 15.0664C3.96988 15.0664 4.18812 14.8425 4.18812 14.5662V13.0678L11.4747 13.0591L11.477 15.127L6.43058 15.133C6.17303 15.1333 5.93107 15.2364 5.74923 15.4234C5.56739 15.6104 5.46744 15.8589 5.46776 16.1231L5.47361 21.3477C5.47394 21.6119 5.57448 21.8602 5.7567 22.0467C5.93868 22.233 6.18038 22.3355 6.43747 22.3355H6.43871L11.4853 22.3296L11.4924 28.7378L4.18818 28.7465V16.8333C4.18818 16.5571 3.96994 16.3333 3.70075 16.3333C3.43157 16.3333 3.21333 16.5571 3.21333 16.8333V28.7477L1.3619 28.7499C1.09265 28.7502 0.874675 28.9744 0.875 29.2505C0.875325 29.5265 1.09343 29.75 1.36242 29.75L33.6381 29.7117C33.9074 29.7113 34.1253 29.4872 34.125 29.211C34.1247 28.9351 33.9066 28.7115 33.6376 28.7115ZM28.5278 16.107L28.5337 21.3092L23.4979 21.3152L23.492 16.113L28.5278 16.107ZM2.24726 12.07C2.24746 12.07 2.24713 12.07 2.24726 12.07C2.14906 12.07 2.05632 12.0309 1.98684 11.9598C1.91731 11.8886 1.8789 11.7939 1.87877 11.6929L1.87734 10.3811C1.87721 10.28 1.91542 10.185 1.98496 10.1134C2.05437 10.0419 2.14672 10.0025 2.24499 10.0023L11.4713 9.99141L11.4737 12.0591L2.24726 12.07ZM6.44852 21.3355L6.44268 16.1332L11.4783 16.1273L11.484 21.3294L6.44852 21.3355ZM12.4423 6.64193C12.4422 6.54038 12.4807 6.44484 12.5507 6.37296C12.6206 6.30109 12.7136 6.26141 12.8125 6.26127L22.1354 6.25021C22.3395 6.25021 22.5062 6.4205 22.5065 6.63L22.5313 28.7248L21.3132 28.7262L21.3033 19.9075C21.3027 19.4859 21.145 19.0893 20.859 18.7907C20.5709 18.49 20.1874 18.3244 19.779 18.3244C19.7784 18.3244 19.7778 18.3244 19.7772 18.3244L15.1981 18.3298C14.7891 18.3303 14.4052 18.4969 14.1173 18.7988C13.8321 19.098 13.6752 19.4949 13.6757 19.9166L13.6856 28.7354L12.4673 28.7368L12.4423 6.64193ZM14.6506 19.9153C14.6504 19.7571 14.7085 19.6089 14.8143 19.498C14.9174 19.3897 15.0542 19.33 15.1993 19.3299L19.7784 19.3244C19.9232 19.3244 20.0604 19.3838 20.1637 19.4916C20.2697 19.6023 20.3282 19.7503 20.3284 19.9084L20.3383 28.7272L14.6605 28.734L14.6506 19.9153Z" fill="#3AB8EE"/>
<path d="M14.3293 13.7896H14.3305L15.9557 13.7877L15.9576 15.4552C15.9582 15.9695 16.3664 16.3876 16.8675 16.3876H16.8686L18.1037 16.3862C18.3468 16.3858 18.5752 16.2885 18.7468 16.1119C18.9186 15.9354 19.0129 15.7009 19.0125 15.4515L19.0107 13.784L20.6359 13.7821C21.1377 13.7815 21.5454 13.3623 21.5449 12.8474L21.5434 11.5802C21.5431 11.3309 21.4482 11.0966 21.2761 10.9204C21.1043 10.7445 20.8762 10.6478 20.6335 10.6478C20.6331 10.6478 20.6327 10.6478 20.6323 10.6478L19.007 10.6497L19.0052 8.98234C19.0049 8.73297 18.91 8.49867 18.738 8.32251C18.5661 8.14661 18.3379 8.0498 18.0953 8.0498C18.095 8.0498 18.0946 8.0498 18.0941 8.0498L16.859 8.05127C16.6159 8.05154 16.3875 8.14895 16.2159 8.32551C16.0443 8.502 15.9499 8.73664 15.9501 8.98593L15.9521 10.6534L14.3268 10.6553C14.0838 10.6556 13.8553 10.7529 13.6837 10.9295C13.5119 11.106 13.4176 11.3406 13.418 11.59L13.4194 12.8571C13.4196 13.1065 13.5145 13.3408 13.6866 13.5169C13.8585 13.6929 14.0866 13.7896 14.3293 13.7896ZM16.4407 11.653C16.7099 11.6526 16.9279 11.4285 16.9276 11.1523L16.9251 9.05141L18.0304 9.05008L18.0329 11.151C18.0329 11.1683 18.0338 11.1853 18.0354 11.2021C18.0607 11.4541 18.2681 11.6505 18.5203 11.6505L20.5686 11.648L20.57 12.782L18.5221 12.7845C18.253 12.7848 18.0349 13.009 18.0353 13.2851L18.0377 15.386L16.9323 15.3873L16.93 13.2864C16.9296 13.0104 16.7115 12.7869 16.4425 12.7869C16.4428 12.7869 16.4424 12.7869 16.4425 12.7869L14.3941 12.7894L14.3929 11.6554L16.4407 11.653Z" fill="#3AB8EE"/>
</svg>
