<svg width="35" height="35" viewBox="0 0 35 35" fill="none" xmlns="http://www.w3.org/2000/svg">
<path d="M26.5656 20.0752C24.3269 20.0752 22.5063 21.9225 22.5063 24.1919V28.3076C22.5063 29.9095 21.22 31.2129 19.6394 31.2129H15.4937C14.11 31.2129 12.9522 30.2135 12.6859 28.8887H13.66C13.9769 28.8887 14.2328 28.6284 14.2328 28.3076V25.6348H16.6666C18.3588 25.6348 19.735 24.2393 19.735 22.524V20.1152C19.7359 20.0398 19.7217 19.9649 19.6934 19.8948C19.6651 19.8248 19.6231 19.761 19.57 19.707C19.5168 19.6531 19.4534 19.61 19.3834 19.5804C19.3134 19.5507 19.2383 19.535 19.1622 19.5342C19.0861 19.535 19.0109 19.5507 18.941 19.5804C18.871 19.61 18.8076 19.6531 18.7544 19.707C18.7012 19.761 18.6593 19.8248 18.631 19.8948C18.6026 19.9649 18.5885 20.0398 18.5894 20.1152V22.524C18.5894 23.5987 17.7269 24.4727 16.6675 24.4727H7.4425C6.38313 24.4727 5.52063 23.5987 5.52063 22.524V12.1738H7.12563V21.335C7.12563 21.6557 7.3825 21.916 7.69938 21.916H16.4106C16.7275 21.916 16.9844 21.6557 16.9844 21.335V12.1738H18.5894V14.8848C18.5894 15.2065 18.8453 15.4668 19.1613 15.4668C19.4781 15.4668 19.735 15.2065 19.735 14.8848V8.5248C19.735 6.80859 18.3588 5.41406 16.6666 5.41406H13.8306C13.9413 5.16584 14.0041 4.89065 14.0041 4.60059C14.0031 3.51099 13.1294 2.625 12.055 2.625C10.9806 2.625 10.1069 3.51099 10.1069 4.60059C10.1069 4.89065 10.1687 5.16584 10.2803 5.41406H7.44344C5.75125 5.41406 4.375 6.80952 4.375 8.5248V22.524C4.375 24.2393 5.75125 25.6348 7.44344 25.6348H9.87719V28.3076C9.87719 28.6284 10.1341 28.8887 10.45 28.8887H11.5234C11.8028 30.8568 13.4762 32.375 15.4937 32.375H19.6394C21.8519 32.375 23.6519 30.55 23.6519 28.3076V24.1919C23.6519 22.5631 24.9588 21.2383 26.5656 21.2383C28.1716 21.2383 29.4784 22.5631 29.4784 24.1919V31.7939C29.4784 32.1147 29.7353 32.375 30.0522 32.375C30.3681 32.375 30.625 32.1147 30.625 31.7939V24.1919C30.625 21.9225 28.8034 20.0752 26.5656 20.0752ZM15.8378 20.7539H8.27219V10.2949H15.8378V20.7539ZM11.2534 4.60059C11.2534 4.15248 11.6125 3.78711 12.055 3.78711C12.4975 3.78711 12.8575 4.15248 12.8575 4.60059C12.8595 4.81389 12.7762 5.01927 12.6257 5.17175C12.4753 5.32423 12.2701 5.41137 12.055 5.41406C11.8399 5.41137 11.6347 5.32423 11.4843 5.17175C11.3338 5.01927 11.2514 4.81389 11.2534 4.60059ZM7.4425 6.57617H16.6656C17.725 6.57617 18.5875 7.45008 18.5875 8.5248V11.0108H16.9844V9.71387C16.9852 9.63834 16.9711 9.56338 16.9427 9.49328C16.9143 9.42319 16.8723 9.35933 16.819 9.30536C16.7657 9.25139 16.7022 9.20837 16.6321 9.17876C16.5621 9.14916 16.4868 9.13354 16.4106 9.13281H7.69938C7.62329 9.13366 7.54812 9.14937 7.47815 9.17903C7.40819 9.20869 7.3448 9.25173 7.29161 9.30568C7.23841 9.35964 7.19646 9.42346 7.16814 9.4935C7.13983 9.56353 7.1257 9.63842 7.12656 9.71387V11.0117H5.52063V8.5248C5.52063 7.45008 6.38313 6.57617 7.4425 6.57617ZM11.0228 25.6348H13.0853V27.7266H11.0228V25.6348Z" fill="#3AB8EE"/>
<path d="M10.2222 13.3164H13.8907C14.2066 13.3164 14.4625 13.0561 14.4625 12.7354C14.4643 12.5831 14.405 12.4364 14.2978 12.3275C14.1906 12.2186 14.0442 12.1563 13.8907 12.1543H10.2222C10.1461 12.155 10.0708 12.1706 10.0007 12.2002C9.93064 12.2299 9.86714 12.2729 9.81385 12.3268C9.76056 12.3808 9.71852 12.4447 9.69015 12.5148C9.66177 12.5849 9.64761 12.6598 9.64847 12.7354C9.64847 13.0561 9.90535 13.3164 10.2222 13.3164ZM10.2222 16.1055H13.8907C14.2066 16.1055 14.4625 15.8452 14.4625 15.5244C14.4643 15.3722 14.405 15.2255 14.2978 15.1166C14.1906 15.0076 14.0442 14.9453 13.8907 14.9434H10.2222C10.1461 14.9441 10.0708 14.9597 10.0007 14.9893C9.93064 15.0189 9.86714 15.0619 9.81385 15.1159C9.76056 15.1699 9.71852 15.2337 9.69015 15.3038C9.66177 15.3739 9.64761 15.4489 9.64847 15.5244C9.64847 15.8452 9.90535 16.1055 10.2222 16.1055ZM10.2222 18.8945H13.8907C14.2066 18.8945 14.4625 18.6342 14.4625 18.3135C14.4643 18.1613 14.405 18.0146 14.2978 17.9056C14.1906 17.7967 14.0442 17.7344 13.8907 17.7324H10.2222C10.1461 17.7332 10.0708 17.7488 10.0007 17.7784C9.93064 17.808 9.86714 17.851 9.81385 17.905C9.76056 17.9589 9.71852 18.0228 9.69015 18.0929C9.66177 18.163 9.64761 18.2379 9.64847 18.3135C9.64847 18.6342 9.90535 18.8945 10.2222 18.8945ZM19.1632 16.9189C19.0877 16.9193 19.013 16.9346 18.9435 16.9638C18.874 16.993 18.811 17.0356 18.7582 17.0891C18.6509 17.1994 18.591 17.3467 18.591 17.5C18.591 17.6533 18.6509 17.8006 18.7582 17.9109C18.811 17.9644 18.874 18.007 18.9435 18.0362C19.013 18.0654 19.0877 18.0807 19.1632 18.0811C19.3132 18.0811 19.4613 18.0188 19.5682 17.9109C19.6756 17.8007 19.7357 17.6533 19.7357 17.5C19.7357 17.3467 19.6756 17.1993 19.5682 17.0891C19.5154 17.0356 19.4524 16.993 19.3828 16.9638C19.3133 16.9346 19.2387 16.9193 19.1632 16.9189Z" fill="#3AB8EE"/>
</svg>
