<svg width="35" height="35" viewBox="0 0 35 35" fill="none" xmlns="http://www.w3.org/2000/svg">
<path d="M32.5139 23.5533H31.0422C30.797 17.626 26.1776 12.7204 20.0867 11.6167C20.7816 10.9626 21.1902 10.0632 21.1902 9.04126C21.1902 6.99731 19.5552 5.3623 17.5113 5.3623C15.4673 5.3623 13.8323 6.99731 13.8323 9.04126C13.8323 10.0632 14.2412 11.0034 14.9361 11.6575C8.84507 12.7613 4.22582 17.6667 3.98055 23.5942H2.50891C2.05923 23.5942 1.69141 23.962 1.69141 24.4117C1.69141 24.8613 2.05925 25.2292 2.50891 25.2292H32.514C32.9637 25.2292 33.3315 24.8613 33.3315 24.4117C33.3312 23.9623 32.9634 23.5533 32.5137 23.5533H32.5139ZM17.5113 6.99739C18.6559 6.99739 19.5553 7.89672 19.5553 9.04133C19.5553 10.1859 18.6559 11.0853 17.5113 11.0853C16.3667 11.0853 15.4674 10.1859 15.4674 9.04133C15.4674 7.89672 16.3667 6.99739 17.5113 6.99739ZM17.5113 13.0477C23.8884 13.0477 29.1209 17.7486 29.4071 23.5944H5.61556C5.90185 17.7078 11.1344 13.0477 17.5113 13.0477Z" fill="#3AB8EE"/>
<path d="M32.514 28.0088H2.50891C2.05923 28.0088 1.69141 28.3766 1.69141 28.8263C1.69141 29.276 2.05925 29.6438 2.50891 29.6438H32.514C32.9637 29.6438 33.3315 29.276 33.3315 28.8263C33.3315 28.3766 32.9637 28.0088 32.514 28.0088Z" fill="#3AB8EE"/>
</svg>
