<svg width="35" height="35" viewBox="0 0 35 35" fill="none" xmlns="http://www.w3.org/2000/svg">
<path d="M4.00658 6.85416H5.52632V8.38541C5.52632 8.52079 5.57969 8.65062 5.67469 8.74633C5.76969 8.84206 5.89854 8.89584 6.0329 8.89584H8.05921C8.19356 8.89584 8.32241 8.84206 8.41741 8.74633C8.51242 8.65062 8.56579 8.52079 8.56579 8.38541V6.85416H10.0855C10.2199 6.85416 10.3487 6.80039 10.4437 6.70467C10.5387 6.60894 10.5921 6.47912 10.5921 6.34375V4.30209C10.5921 4.16672 10.5387 4.03688 10.4437 3.94117C10.3487 3.84544 10.2199 3.79166 10.0855 3.79166H8.56579V2.26042C8.56579 2.12505 8.51242 1.99522 8.41741 1.8995C8.32241 1.80378 8.19356 1.75 8.05921 1.75H6.0329C5.89854 1.75 5.76969 1.80378 5.67469 1.8995C5.57969 1.99522 5.52632 2.12505 5.52632 2.26042V3.79166H4.00658C3.87223 3.79166 3.74338 3.84544 3.64837 3.94117C3.55337 4.03688 3.5 4.16672 3.5 4.30209V6.34375C3.5 6.47912 3.55337 6.60894 3.64837 6.70467C3.74338 6.80039 3.87223 6.85416 4.00658 6.85416ZM4.51315 4.8125H6.0329C6.16725 4.8125 6.2961 4.75872 6.3911 4.66301C6.4861 4.56728 6.53947 4.43746 6.53947 4.30209V2.77084H7.55263V4.30209C7.55263 4.43746 7.606 4.56728 7.70101 4.66301C7.796 4.75872 7.92486 4.8125 8.05921 4.8125H9.57895V5.83334H8.05921C7.92486 5.83334 7.796 5.88711 7.70101 5.98283C7.606 6.07856 7.55263 6.20838 7.55263 6.34375V7.875H6.53947V6.34375C6.53947 6.20838 6.4861 6.07856 6.3911 5.98283C6.2961 5.88711 6.16725 5.83334 6.0329 5.83334H4.51315V4.8125Z" fill="#3AB8EE"/>
<path d="M24.8468 21.1452H23.2569V19.719C23.2565 19.2851 23.0853 18.8693 22.7809 18.5625C22.4764 18.2558 22.0636 18.0831 21.6331 18.0827H19.1976C19.6908 18.0821 20.1732 17.9371 20.586 17.6652C20.9988 17.3933 21.3243 17.0064 21.5227 16.5515H24.2701V15.5306H21.7372C21.7372 15.5283 21.7372 15.526 21.7372 15.5239V11.4541C21.7372 11.4518 21.7372 11.4496 21.7372 11.4472H24.2701V10.4264H21.5227C21.3243 9.97151 20.9988 9.58454 20.586 9.31266C20.1732 9.04079 19.6908 8.89574 19.1976 8.89519H17.1848C16.6916 8.89573 16.2093 9.04078 15.7964 9.31265C15.3836 9.58453 15.0581 9.9715 14.8597 10.4264H12.6076C12.0734 10.427 11.5612 10.6412 11.1834 11.0218C10.8056 11.4024 10.5931 11.9185 10.5925 12.4568V14.521C10.5931 15.0593 10.8056 15.5754 11.1834 15.9561C11.5612 16.3367 12.0734 16.5508 12.6076 16.5515H14.8597C15.0581 17.0064 15.3836 17.3933 15.7964 17.6652C16.2093 17.9371 16.6916 18.0821 17.1848 18.0827H14.7494C14.3188 18.0831 13.9061 18.2557 13.6016 18.5625C13.2972 18.8693 13.1259 19.2851 13.1254 19.719V21.1452H11.5356C11.1513 21.1456 10.7828 21.2996 10.511 21.5734C10.2392 21.8473 10.0864 22.2186 10.0859 22.6058V31.864C10.0859 31.9993 10.1393 32.1291 10.2343 32.2248C10.3293 32.3205 10.4582 32.3744 10.5925 32.3744H25.7899C25.9242 32.3744 26.0531 32.3205 26.1481 32.2248C26.2431 32.1291 26.2964 31.9993 26.2964 31.864V27.2277C26.8653 27.1205 27.3791 26.8164 27.749 26.3681C28.1191 25.9197 28.322 25.3553 28.3228 24.7722V12.9785H29.0204C29.3727 12.9781 29.7104 12.8369 29.9594 12.586C30.2086 12.335 30.3487 11.9947 30.3491 11.6397V7.17144C30.3487 6.81651 30.2086 6.47622 29.9594 6.22525C29.7104 5.97427 29.3727 5.83309 29.0204 5.83269H28.3228V4.30144H31.3622V20.6347H32.3754V2.25977H31.3622V3.2806H26.2964V2.25977H25.2833V3.79101C25.2833 3.92638 25.3366 4.05622 25.4317 4.15193C25.5267 4.24766 25.6555 4.30144 25.7899 4.30144H27.3096V5.83269H26.612C26.2598 5.83307 25.922 5.97424 25.6729 6.22522C25.4238 6.4762 25.2837 6.81649 25.2833 7.17144V11.6397C25.2837 11.9947 25.4238 12.335 25.6729 12.586C25.922 12.837 26.2598 12.9781 26.612 12.9785H27.3096V24.7722C27.3092 25.084 27.2111 25.3878 27.0291 25.6401C26.8472 25.8923 26.5907 26.0802 26.2964 26.1769V22.6058C26.296 22.2186 26.1431 21.8473 25.8714 21.5734C25.5996 21.2996 25.2311 21.1456 24.8468 21.1452ZM17.1848 9.91601H19.1976C19.6023 9.91647 19.9903 10.0787 20.2765 10.367C20.5626 10.6554 20.7236 11.0462 20.7241 11.4541V13.0363C20.5656 12.9055 20.438 12.7409 20.3504 12.5544C20.2628 12.3679 20.2174 12.164 20.2175 11.9577C20.2175 11.8223 20.1642 11.6925 20.0691 11.5968C19.9741 11.501 19.8453 11.4472 19.7109 11.4472H16.6714C16.5371 11.4472 16.4082 11.501 16.3133 11.5968C16.2183 11.6925 16.1649 11.8223 16.1649 11.9577C16.1651 12.1641 16.1197 12.368 16.0321 12.5545C15.9444 12.7411 15.8168 12.9058 15.6583 13.0366V11.4543C15.6587 11.0465 15.8196 10.6554 16.1058 10.3671C16.392 10.0787 16.7801 9.91647 17.1848 9.91601ZM12.6076 15.5306C12.342 15.5303 12.0873 15.4238 11.8995 15.2346C11.7116 15.0453 11.606 14.7887 11.6057 14.521V12.4568C11.606 12.1891 11.7116 11.9325 11.8995 11.7432C12.0873 11.554 12.342 11.4476 12.6076 11.4472H14.6451C14.6451 11.4496 14.6451 11.4518 14.6451 11.4541V15.5239C14.6451 15.526 14.6451 15.5283 14.6451 15.5306H12.6076ZM15.6583 15.5239V14.2725L16.1095 13.9694C16.629 13.6213 16.9931 13.0827 17.1242 12.4681H19.2583C19.3894 13.0826 19.7535 13.6213 20.273 13.9694L20.7243 14.2725V15.5239C20.7237 15.9316 20.5628 16.3226 20.2766 16.6109C19.9904 16.8993 19.6023 17.0614 19.1976 17.0619H17.1848C16.7801 17.0614 16.3921 16.8992 16.1059 16.6109C15.8198 16.3226 15.6588 15.9316 15.6583 15.5239ZM26.612 6.85351H29.0204C29.104 6.8536 29.1843 6.88712 29.2434 6.94673C29.3026 7.00633 29.3358 7.08715 29.3359 7.17144V8.62205L28.5789 9.13055C28.5248 9.1667 28.46 9.18292 28.3955 9.17648C28.3309 9.17004 28.2705 9.14133 28.2246 9.0952C28.1044 8.97412 27.9617 8.87807 27.8048 8.81254C27.6478 8.74701 27.4795 8.71328 27.3096 8.71328C27.1396 8.71328 26.9713 8.74701 26.8143 8.81254C26.6574 8.87807 26.5147 8.97412 26.3945 9.0952L26.2964 9.19416V7.17164C26.2965 7.0873 26.3298 7.00642 26.3889 6.94677C26.4481 6.88712 26.5284 6.85358 26.612 6.85351ZM26.2964 11.6397V10.638L27.1111 9.81725C27.1638 9.76427 27.2352 9.73452 27.3096 9.73452C27.3841 9.73452 27.4555 9.76427 27.5081 9.81725C27.7201 10.0297 27.9982 10.162 28.2957 10.1916C28.5932 10.2212 28.8918 10.1464 29.1408 9.97982L29.3359 9.84889V11.6397C29.3358 11.7241 29.3026 11.8048 29.2434 11.8644C29.1843 11.9241 29.104 11.9576 29.0204 11.9577H26.612C26.5284 11.9576 26.4482 11.9241 26.389 11.8645C26.3299 11.8048 26.2965 11.7241 26.2964 11.6397ZM25.2833 22.6058V24.2077H23.2569V22.166H24.8468C24.9626 22.1662 25.0735 22.2125 25.1553 22.295C25.2372 22.3774 25.2832 22.4892 25.2833 22.6058ZM22.2439 22.166V25.2285H21.2307V22.166H22.2439ZM21.2307 28.291H22.2439V28.8015C22.2439 28.9368 22.1905 29.0666 22.0955 29.1623C22.0004 29.258 21.8716 29.3119 21.7372 29.3119C21.6029 29.3119 21.474 29.258 21.379 29.1623C21.2841 29.0666 21.2307 28.9368 21.2307 28.8015V28.291ZM22.2439 27.2702H21.2307V26.2494H22.2439V27.2702ZM18.9945 19.1035L18.1912 19.913L17.3879 19.1035H18.9945ZM14.1386 19.719C14.1387 19.5558 14.2031 19.3993 14.3177 19.284C14.4322 19.1686 14.5874 19.1037 14.7494 19.1035H15.9551L17.833 20.9957C17.88 21.0431 17.9359 21.0807 17.9973 21.1064C18.0588 21.132 18.1246 21.1452 18.1912 21.1452C18.2577 21.1452 18.3236 21.132 18.385 21.1064C18.4465 21.0807 18.5024 21.0431 18.5494 20.9957L20.4274 19.1035H21.6331C21.795 19.1037 21.9503 19.1686 22.0648 19.284C22.1793 19.3993 22.2437 19.5558 22.2439 19.719V21.1452H14.1386V19.719ZM11.0991 31.3535V22.6058C11.0992 22.4892 11.1452 22.3774 11.2271 22.295C11.3089 22.2124 11.4199 22.1661 11.5356 22.166H20.2175V24.2077H12.1122V25.2285H20.2175V28.8015C20.2175 29.2075 20.3777 29.597 20.6627 29.8842C20.9476 30.1714 21.3342 30.3327 21.7372 30.3327C22.1403 30.3327 22.5268 30.1714 22.8118 29.8842C23.0969 29.597 23.2569 29.2075 23.2569 28.8015V25.2285H25.2833V26.2494H24.2701V27.2702H25.2833V31.3535H11.0991Z" fill="#3AB8EE"/>
<path d="M8.56641 10.4076V21.6559H9.57957V10.4076C9.58019 9.8714 9.79187 9.35732 10.1682 8.97816C10.5445 8.599 11.0547 8.38572 11.5869 8.38509H24.2703V7.36426H11.5869C10.7861 7.36519 10.0184 7.68612 9.45211 8.25666C8.88585 8.8272 8.56733 9.60075 8.56641 10.4076Z" fill="#3AB8EE"/>
</svg>
