<svg width="35" height="35" viewBox="0 0 35 35" fill="none" xmlns="http://www.w3.org/2000/svg">
<path d="M28.2367 23.1518L24.7672 21.926C24.515 21.8357 24.2304 21.9083 24.0482 22.1096C22.3472 23.9942 20.1767 25.0323 17.9375 25.0323C15.6982 25.0323 13.5277 23.9941 11.8267 22.1096C11.6433 21.9083 11.3613 21.8371 11.1077 21.926L7.63819 23.1518C4.11609 24.3953 1.75 27.7741 1.75 31.5596V32.5648C1.75 32.9428 2.05219 33.2496 2.4245 33.2496H33.4505C33.8228 33.2496 34.125 32.9428 34.125 32.5648V31.5596C34.1249 27.7727 31.7589 24.394 28.2367 23.1518ZM32.776 31.88H3.09893V31.5596C3.09893 28.3561 5.1008 25.4965 8.08063 24.4446L11.1401 23.364C13.0529 25.3266 15.4513 26.4017 17.9375 26.4017C20.4237 26.4017 22.8221 25.3266 24.7348 23.364L27.7943 24.4446C30.7741 25.4965 32.776 28.3561 32.776 31.5596V31.88Z" fill="#3AB8EE"/>
<path d="M26.0285 10.1454C26.0311 10.0866 26.0325 10.0263 26.0325 9.96739C26.0325 5.4355 22.4025 1.75 17.9388 1.75C13.475 1.75 9.84503 5.4355 9.84503 9.96739C9.84503 10.0263 9.84636 10.0866 9.84908 10.1454C9.04507 10.5919 8.49609 11.8395 8.49609 13.3912C8.49609 15.2963 9.32437 16.744 10.4358 16.8125C11.6621 20.9376 14.615 23.663 17.9388 23.663C21.2625 23.663 24.2155 20.9376 25.4417 16.8125C26.5532 16.744 27.3814 15.2963 27.3814 13.3912C27.3814 11.8395 26.8325 10.5919 26.0285 10.1454ZM25.3162 15.4155C25.1328 15.3005 24.9075 15.2812 24.7064 15.3635C24.5082 15.4456 24.3598 15.6195 24.3071 15.8318C23.3629 19.6968 20.804 22.2935 17.9388 22.2935C15.0736 22.2935 12.5147 19.6968 11.5703 15.8318C11.5178 15.6195 11.3491 15.462 11.1494 15.3786C11.0753 15.347 10.9944 15.3334 10.912 15.3334C10.7745 15.3334 10.6341 15.3731 10.5194 15.4456C10.3509 15.4456 9.84503 14.7171 9.84503 13.3912C9.84503 12.1354 10.2996 11.4164 10.4898 11.3424C10.4966 11.3437 10.5047 11.3451 10.5101 11.3451C10.7084 11.3602 10.912 11.2931 11.055 11.1479C11.198 11.0014 11.2695 10.7974 11.248 10.5933L11.229 10.422C11.2128 10.2713 11.194 10.1221 11.194 9.96732C11.194 6.1915 14.2197 3.11955 17.9388 3.11955C21.6579 3.11955 24.6836 6.1915 24.6836 9.96739C24.6836 10.1222 24.6647 10.2714 24.6485 10.4207L24.6295 10.5919C24.6093 10.7974 24.6794 11.0015 24.8225 11.1466C24.9668 11.2932 25.1678 11.3616 25.3674 11.3451C25.3728 11.3438 25.381 11.3438 25.3877 11.3424C25.5779 11.4164 26.0325 12.1354 26.0325 13.3912C26.0325 14.7171 25.5375 15.4456 25.3162 15.4155Z" fill="#3AB8EE"/>
<path d="M17.9363 7.22852C16.3472 7.22852 15.2383 8.35429 15.2383 9.96766C15.2383 10.3456 15.5405 10.6524 15.9128 10.6524C16.2852 10.6524 16.5873 10.3456 16.5873 9.96766C16.5873 8.73229 17.5303 8.59812 17.9363 8.59812C18.3423 8.59812 19.2852 8.73236 19.2852 9.96766C19.2852 11.1167 19.0356 11.6413 18.2586 12.122C16.7586 13.0533 16.5076 14.2845 16.5954 14.8652C16.6466 15.2021 16.9299 15.4335 17.2563 15.4335C17.2833 15.4335 17.3116 15.4308 17.34 15.4281C17.7001 15.3857 17.9604 15.0473 17.9308 14.679C17.9295 14.6502 17.8863 13.9586 18.9627 13.2916C20.1498 12.5548 20.6341 11.592 20.6341 9.96766C20.6342 8.35429 19.5253 7.22852 17.9363 7.22852Z" fill="#3AB8EE"/>
<path d="M17.2643 18.1841C17.6369 18.1841 17.9389 17.8775 17.9389 17.4993C17.9389 17.1211 17.6369 16.8145 17.2643 16.8145C16.8918 16.8145 16.5898 17.1211 16.5898 17.4993C16.5898 17.8775 16.8918 18.1841 17.2643 18.1841Z" fill="#3AB8EE"/>
</svg>
