<svg width="40" height="46" viewBox="0 0 40 46" fill="none" xmlns="http://www.w3.org/2000/svg">
<path d="M39.9717 43.1958L37.9765 31.5412C37.7615 30.2855 36.8687 29.2768 35.6463 28.9089L30.2649 27.2889C30.1535 25.9763 29.6141 24.7379 28.7165 23.7578C27.9985 22.9738 27.0954 22.4029 26.1 22.0879C26.2703 21.8994 26.4282 21.7113 26.5731 21.5274C27.8529 19.9035 28.5381 18.1144 28.7125 16.8935H29.1275C30.2073 16.8935 31.0858 16.0171 31.0858 14.9397V13.9381C31.0858 13.219 30.6805 12.5675 30.0709 12.2294V9.8208C30.0709 9.45685 29.7751 9.1618 29.4104 9.1618C29.0456 9.1618 28.7499 9.45675 28.7499 9.8208V12.5247C28.4928 12.5692 28.1858 12.6462 27.8719 12.7781C27.8398 12.7899 27.8085 12.8034 27.7789 12.8196C27.708 12.8519 27.637 12.8859 27.5663 12.9243V7.61369C27.5663 6.14653 26.3701 4.95297 24.8995 4.95297H23.0766C22.4479 4.95297 21.8336 5.17156 21.3469 5.56866L21.168 5.71455C20.8394 5.98262 20.4247 6.13027 20.0002 6.13027C19.5757 6.13027 19.1609 5.98262 18.8323 5.71455L18.6535 5.56866C18.1667 5.17165 17.5525 4.95297 16.9238 4.95297H15.1006C13.6302 4.95297 12.4339 6.14653 12.4339 7.61369V12.9243C12.3632 12.8859 12.2922 12.8519 12.2213 12.8196C12.1917 12.8034 12.1605 12.7899 12.1283 12.7781C11.8144 12.6462 11.5074 12.5692 11.2503 12.5247V5.68774C11.2503 3.55394 12.9902 1.81792 15.1288 1.81792H24.8713C27.0099 1.81792 28.7498 3.55394 28.7498 5.68774V6.72362C28.7498 7.08757 29.0455 7.38263 29.4102 7.38263C29.7749 7.38263 30.0706 7.08767 30.0706 6.72362V5.68774C30.0706 2.82726 27.7382 0.5 24.8713 0.5H15.1288C12.2618 0.5 9.92944 2.82726 9.92944 5.68774V12.2294C9.3198 12.5676 8.91441 13.219 8.91441 13.9381V14.9397C8.91441 16.0172 9.7929 16.8936 10.8727 16.8936H11.2878C11.4622 18.1145 12.1474 19.9036 13.4271 21.5276C13.5719 21.7112 13.7297 21.899 13.8999 22.0876C11.6114 22.8128 9.94248 24.8657 9.73538 27.2889L4.3538 28.9089C3.13141 29.2768 2.23855 30.2855 2.02362 31.5412L1.21339 36.2741C1.152 36.6328 1.39371 36.9732 1.75319 37.0344C2.11259 37.0959 2.45393 36.8547 2.51542 36.4959L3.32563 31.763C3.45566 31.0034 3.99581 30.3931 4.73529 30.1706L9.71266 28.6723V29.9757C8.57175 30.1852 7.60095 30.9672 7.20112 32.0507C7.09497 32.3382 7.029 32.6394 7.00504 32.9455L6.52399 39.1062C6.4877 39.5703 6.64864 40.0324 6.96532 40.3739C7.28198 40.7154 7.73114 40.9114 8.19756 40.9114H9.021C9.38577 40.9114 9.68148 40.6164 9.68148 40.2524C9.68148 39.8884 9.38577 39.5935 9.021 39.5935H8.19756C8.09812 39.5935 8.00245 39.5518 7.93488 39.4789C7.86741 39.4061 7.83314 39.3076 7.84089 39.2088L8.32194 33.048C8.33647 32.8625 8.37638 32.6801 8.44069 32.506C8.71886 31.7524 9.47007 31.242 10.3102 31.2361L10.4189 31.2352C10.424 31.2351 10.4291 31.2351 10.4341 31.2351C11.2506 31.2351 11.9734 31.6971 12.2782 32.4153C12.3638 32.6166 12.4157 32.8295 12.4328 33.048L12.9141 39.2089C12.9217 39.3076 12.8874 39.4061 12.8199 39.479C12.7525 39.5517 12.6567 39.5935 12.5573 39.5935H11.7338C11.3691 39.5935 11.0733 39.8885 11.0733 40.2524C11.0733 40.6163 11.3691 40.9114 11.7338 40.9114H12.5573C13.0237 40.9114 13.4729 40.7156 13.7895 40.3739C14.1063 40.0323 14.2672 39.5702 14.2309 39.1063L13.7497 32.9455C13.7215 32.585 13.6357 32.2335 13.4944 31.901C13.0593 30.8765 12.129 30.1641 11.0334 29.9714V28.2746L13.3038 27.5911C13.5104 28.0252 13.9197 28.9632 14.7305 30.9852C15.5478 33.0256 16.5634 35.6407 17.5376 38.1831C17.5446 38.2044 17.5526 38.2253 17.5616 38.2456C18.2117 39.943 18.8423 41.6053 19.3816 43.0393C19.4784 43.2965 19.7247 43.4668 20 43.4668C20.2753 43.4668 20.5216 43.2965 20.6184 43.0393C21.1576 41.6053 21.7882 39.943 22.4384 38.2456C22.4475 38.2253 22.4554 38.2044 22.4624 38.1831C23.4359 35.6423 24.4511 33.0287 25.2679 30.989C26.0798 28.9644 26.4895 28.0256 26.6961 27.5911L28.9665 28.2746V32.1669C27.3934 32.4717 26.2018 33.856 26.2018 35.5134C26.2018 37.3935 27.7349 38.9231 29.6192 38.9231C31.5035 38.9231 33.0366 37.3936 33.0366 35.5134C33.0366 33.8615 31.8528 32.4806 30.2873 32.1696V28.6723L35.2648 30.1708C36.0042 30.3933 36.5443 31.0034 36.6744 31.7632L38.6696 43.4177C38.7027 43.6109 38.6512 43.7999 38.5245 43.9497C38.3978 44.0996 38.2198 44.1822 38.0232 44.1822H1.97675C1.78024 44.1822 1.6023 44.0997 1.47554 43.9497C1.34887 43.7999 1.29726 43.6111 1.33038 43.4177L1.98882 39.5714C2.05023 39.2127 1.80851 38.8722 1.44903 38.811C1.08963 38.7495 0.748296 38.9909 0.686812 39.3496L0.0283604 43.1959C-0.0698568 43.77 0.0896691 44.3545 0.465977 44.7997C0.842462 45.2448 1.3931 45.5 1.97675 45.5H38.0232C38.6069 45.5 39.1576 45.2448 39.5341 44.7997C39.9103 44.3544 40.0698 43.7699 39.9717 43.1958ZM28.7577 13.8673C29.1096 13.7796 29.3921 13.7813 29.3953 13.7813C29.5091 13.7828 29.6198 13.7563 29.7181 13.7049C29.7474 13.7778 29.7648 13.8564 29.7648 13.9381V14.9397C29.7648 15.2904 29.4789 15.5757 29.1274 15.5757H28.7577V13.8673ZM11.2423 15.5757H10.8726C10.5211 15.5757 10.2352 15.2904 10.2352 14.9397V13.9381C10.2352 13.8564 10.2526 13.7778 10.282 13.7049C10.3802 13.7564 10.4908 13.7829 10.6047 13.7813C10.6097 13.7822 10.8914 13.7807 11.2423 13.8676V15.5757ZM12.5632 16.3147V14.5833C12.7633 14.6431 12.9822 14.635 13.1842 14.5509C13.5309 14.4065 13.7547 14.0714 13.7547 13.697V7.61369C13.7547 6.8733 14.3585 6.27089 15.1006 6.27089H16.9235C17.2485 6.27089 17.5658 6.38383 17.8173 6.58897L17.9961 6.73487C18.56 7.1949 19.2717 7.44811 20 7.44811C20.7283 7.44811 21.44 7.1948 22.0039 6.73487L22.1827 6.58897C22.4341 6.38383 22.7515 6.27089 23.0765 6.27089H24.8994C25.6415 6.27089 26.2453 6.8733 26.2453 7.61369V13.6971C26.2453 14.0714 26.4691 14.4067 26.8158 14.551C26.9315 14.5991 27.0527 14.6225 27.1728 14.6225C27.2624 14.6225 27.3513 14.6094 27.4368 14.5839V16.3147C27.4368 17.2767 26.7702 19.1452 25.5347 20.7129C25.1255 21.2322 24.5994 21.7902 23.9517 22.2778C23.9312 22.2915 23.9115 22.3064 23.8928 22.3222C22.8894 23.0624 21.5991 23.6295 20 23.6295C18.4009 23.6295 17.1106 23.0624 16.1072 22.3222C16.0885 22.3064 16.0688 22.2915 16.0485 22.2779C15.4007 21.7902 14.8746 21.2322 14.4653 20.7129C13.2299 19.1452 12.5632 17.2767 12.5632 16.3147ZM24.3269 26.9612L20 30.188L15.6731 26.9612C16.1023 26.4172 16.3426 25.7186 16.3426 25.0953V24.0331C17.3601 24.579 18.5742 24.9474 20 24.9474C21.4258 24.9474 22.64 24.579 23.6574 24.0331V25.0953C23.6574 25.7186 23.8977 26.4172 24.3269 26.9612ZM14.571 26.2257C14.2182 26.0916 13.8272 26.0697 13.4574 26.1698C13.4411 26.1736 13.4253 26.1778 13.4098 26.1824L11.1281 26.8694C11.5141 24.9761 13.0549 23.4691 15.0217 23.1772V25.0953C15.0217 25.5087 14.8368 25.9361 14.571 26.2257ZM16.3634 31.5157C16.3622 31.5126 16.3609 31.5095 16.3598 31.5065C16.3263 31.422 16.2933 31.3387 16.2606 31.2563C16.2546 31.2414 16.2487 31.2266 16.2429 31.2118C16.2107 31.1311 16.179 31.0512 16.1475 30.9726C16.1454 30.967 16.1432 30.9616 16.141 30.956C16.0431 30.7105 15.9488 30.475 15.8581 30.2494C15.8514 30.233 15.8448 30.2165 15.8383 30.2001C15.8121 30.1355 15.7865 30.0718 15.761 30.0089C15.7518 29.9858 15.7425 29.9629 15.7333 29.9401C15.7086 29.8791 15.6841 29.8183 15.66 29.759C15.6527 29.7414 15.6457 29.7241 15.6385 29.7064C15.5947 29.5987 15.552 29.4936 15.5102 29.3912C15.499 29.3636 15.4874 29.3353 15.4762 29.3081C15.4598 29.2681 15.4439 29.2293 15.4279 29.1901C15.4106 29.1479 15.3933 29.1061 15.3763 29.0649C15.3701 29.0497 15.3634 29.0333 15.3571 29.018C15.352 29.0057 15.3473 28.9944 15.3423 28.9822C15.2661 28.7973 15.1935 28.623 15.1247 28.4591C15.1242 28.4578 15.1235 28.4564 15.1231 28.4551C15.0864 28.3678 15.0505 28.2825 15.0161 28.2014C14.9983 28.1592 14.9806 28.1179 14.9633 28.0773L18.6846 30.8524L17.1297 31.5114C17.127 31.5126 17.1241 31.5136 17.1214 31.5149L16.4722 31.7902C16.4354 31.6972 16.3993 31.6061 16.3634 31.5157ZM17.9393 35.5505C17.8088 35.2128 17.6774 34.873 17.5457 34.5337C17.3398 34.003 17.1431 33.4983 16.9549 33.0175L17.2013 32.913L18.2083 34.081L17.9393 35.5505ZM20.0128 40.9064C19.9938 40.8672 19.9713 40.8302 19.9453 40.7957C19.6467 40.0087 19.268 39.0128 18.8488 37.917L19.4654 34.5487H20.5346L21.1512 37.917C20.7119 39.065 20.3174 40.103 20.0128 40.9064ZM20.7823 33.2309H19.2177L18.4774 32.3721L20 31.7268L21.5226 32.3721L20.7823 33.2309ZM22.4543 34.5337C22.3226 34.873 22.1912 35.2128 22.0607 35.5505L21.7917 34.0809L22.7987 32.9129L23.0451 33.0175C22.8569 33.4981 22.6602 34.003 22.4543 34.5337ZM24.984 28.2014C24.9513 28.2784 24.9173 28.3591 24.8826 28.4416C24.8782 28.4523 24.8736 28.4631 24.8691 28.4739C24.8349 28.5556 24.8 28.6391 24.7639 28.7261C24.7615 28.7318 24.759 28.7379 24.7566 28.7437C24.7255 28.8186 24.6935 28.8959 24.6609 28.9748C24.6549 28.9896 24.6491 29.0032 24.6431 29.018C24.6359 29.0357 24.6281 29.0544 24.6208 29.0723C24.6063 29.1074 24.5917 29.1433 24.5768 29.1791C24.5586 29.2234 24.5406 29.2674 24.5221 29.3127C24.5161 29.3271 24.5101 29.3422 24.5041 29.3566C24.4581 29.469 24.4109 29.5848 24.3626 29.7038C24.355 29.7225 24.3475 29.7408 24.34 29.7597C24.3161 29.8184 24.2918 29.8785 24.2674 29.9389C24.2578 29.9626 24.2482 29.9861 24.2386 30.0099C24.2135 30.0723 24.188 30.1353 24.1623 30.1994C24.1551 30.2172 24.1478 30.2355 24.1406 30.2534C24.051 30.4759 23.9581 30.7081 23.8616 30.95C23.8584 30.958 23.8552 30.9658 23.852 30.9739C23.8209 31.052 23.7894 31.1315 23.7575 31.2116C23.7515 31.2265 23.7456 31.2414 23.7395 31.2564C23.7066 31.3392 23.6734 31.4229 23.6398 31.5078C23.6391 31.5095 23.6385 31.511 23.6379 31.5126C23.6016 31.6041 23.5651 31.6962 23.528 31.7903L22.8782 31.5148C22.8759 31.5139 22.8736 31.5129 22.8714 31.512L21.3155 30.8525L25.0368 28.0774C25.0194 28.1179 25.0017 28.1591 24.984 28.2014ZM26.5902 26.1826C26.5896 26.1823 26.5887 26.1822 26.5881 26.1819C26.2049 26.0672 25.7962 26.0862 25.4291 26.2257C25.1632 25.9361 24.9783 25.5087 24.9783 25.0953V23.1762C26.9576 23.4673 28.4937 24.9601 28.8746 26.8701L26.5902 26.1826ZM31.7157 35.5134C31.7157 36.6669 30.7752 37.6052 29.6192 37.6052C28.4632 37.6052 27.5227 36.6669 27.5227 35.5134C27.5227 34.3599 28.4632 33.4216 29.6192 33.4216C30.7752 33.4216 31.7157 34.3599 31.7157 35.5134Z" fill="#3AB8EE"/>
</svg>
