<svg width="50" height="50" viewBox="0 0 50 50" fill="none" xmlns="http://www.w3.org/2000/svg">
<path d="M44.3409 43.2486H41.6258V32.7382C41.6258 32.3662 41.3307 32.0646 40.9667 32.0646C40.6027 32.0646 40.3076 32.3662 40.3076 32.7382V43.2486H34.5234V20.0973H40.3076V29.5944C40.3076 29.9665 40.6027 30.2681 40.9667 30.2681C41.3307 30.2681 41.6258 29.9665 41.6258 29.5944V19.4236C41.6258 19.0516 41.3307 18.75 40.9667 18.75H33.8643C33.5003 18.75 33.205 19.0516 33.205 19.4236V43.2486H31.6825V23.0532C31.6825 22.6811 31.3874 22.3795 31.0232 22.3795H23.9206C23.5566 22.3795 23.2614 22.6811 23.2614 23.0532V43.2486H21.7387V28.4974C21.7387 28.1253 21.4436 27.8237 21.0795 27.8237H13.9768C13.6127 27.8237 13.3176 28.1253 13.3176 28.4974V43.2486H11.7949V32.8528C11.7949 32.4808 11.4998 32.1791 11.1357 32.1791H4.03295C3.66891 32.1791 3.37377 32.4808 3.37377 32.8528V43.2486H0.65918C0.295137 43.2486 0 43.5502 0 43.9222V46.8262C0 47.1983 0.295137 47.5 0.65918 47.5H7.77832C8.14236 47.5 8.4375 47.1983 8.4375 46.8262C8.4375 46.4542 8.14236 46.1526 7.77832 46.1526H1.31836V44.596H43.6816V46.1526H10.8545C10.4904 46.1526 10.1953 46.4542 10.1953 46.8262C10.1953 47.1983 10.4904 47.5 10.8545 47.5H44.3409C44.7049 47.5 45 47.1983 45 46.8262V43.9222C45 43.5502 44.7049 43.2486 44.3409 43.2486ZM24.5797 23.7268H30.3641V43.2486H24.5797V23.7268ZM14.6359 29.1711H20.4203V43.2486H14.6359V29.1711ZM4.69213 33.5264H10.4765V43.2486H4.69213V33.5264Z" fill="#3AB8EE"/>
<path d="M4.39473 26.25H14.2067C14.7759 26.25 15.3227 26.0072 15.7066 25.5839L23.6987 16.7795H29.1429C29.6865 16.7795 30.1973 16.5659 30.5814 16.1782L37.1822 9.51266V11.5693C37.1822 11.9289 37.4709 12.2204 37.8269 12.2204H40.6053C40.9614 12.2204 41.25 11.9289 41.25 11.5693V4.55382C41.25 3.42135 40.3376 2.5 39.2161 2.5H32.2694C31.9133 2.5 31.6247 2.79149 31.6247 3.15104V5.95745C31.6247 6.31701 31.9133 6.60849 32.2694 6.60849H34.3054L28.3008 12.6718H22.8039C22.2352 12.6718 21.6888 12.9146 21.3049 13.3377L13.3118 22.1423H11.534C11.178 22.1423 10.8893 22.4338 10.8893 22.7934C10.8893 23.1529 11.178 23.4444 11.534 23.4444H13.5955C13.7762 23.4444 13.9486 23.3678 14.0706 23.2333L22.2554 14.2176C22.3959 14.0628 22.5957 13.974 22.8038 13.974H28.5677C28.7387 13.974 28.9027 13.9054 29.0236 13.7833L36.3176 6.41787C36.502 6.23168 36.5572 5.95164 36.4574 5.70841C36.3575 5.46509 36.1224 5.30651 35.8617 5.30651H32.9141V3.80208H39.2161C39.6265 3.80208 39.9605 4.13932 39.9605 4.55382V10.9184H38.4716V7.94096C38.4716 7.67768 38.3145 7.44027 38.0736 7.33949C37.8328 7.23888 37.5553 7.29443 37.371 7.48063L29.6696 15.2574C29.5291 15.3993 29.342 15.4774 29.1429 15.4774H23.4151C23.2343 15.4774 23.062 15.554 22.9398 15.6885L14.7559 24.7042C14.6154 24.859 14.4153 24.9479 14.2067 24.9479H5.03946V23.4444H8.52529C8.88136 23.4444 9.17002 23.1529 9.17002 22.7934C9.17002 22.4338 8.88136 22.1423 8.52529 22.1423H4.39473C4.03867 22.1423 3.75 22.4338 3.75 22.7934V25.5989C3.75 25.9584 4.03867 26.25 4.39473 26.25Z" fill="#3AB8EE"/>
</svg>
