<svg width="50" height="50" viewBox="0 0 50 50" fill="none" xmlns="http://www.w3.org/2000/svg">
<path d="M37.8049 33.1687L37.8049 33.1687C42.7958 34.9289 46.1499 39.7173 46.15 45.0855V46.5216C46.15 47.0078 45.7617 47.3999 45.2865 47.3999H0.96357C0.488347 47.3999 0.1 47.0078 0.1 46.5216V45.0855C0.1 39.7193 3.45413 34.9308 8.44499 33.1687L8.44501 33.1687L13.4012 31.4177C13.4013 31.4177 13.4013 31.4177 13.4013 31.4176C13.7254 31.304 14.086 31.3947 14.3211 31.6528C16.7673 34.3626 19.8939 35.8608 23.125 35.8608C26.356 35.8608 29.4826 34.3627 31.9288 31.6527C32.1623 31.3946 32.5265 31.3023 32.848 31.4175L32.8484 31.4176L37.8049 33.1687ZM44.3229 45.6433H44.4229V45.5433V45.0855C44.4229 40.4675 41.537 36.344 37.2394 34.827L32.8688 33.2833L32.8085 33.262L32.7639 33.3078C30.0479 36.0945 26.6467 37.6171 23.125 37.6171C19.6032 37.6171 16.2021 36.0945 13.486 33.3078L13.4414 33.262L13.3811 33.2833L9.01048 34.827C4.71284 36.344 1.82705 40.4675 1.82705 45.0855V45.5433V45.6433H1.92705H44.3229Z" fill="#3AB8EE" stroke="white" stroke-width="0.2"/>
<path d="M34.5831 14.4889L34.5803 14.5508L34.6344 14.5809C35.1831 14.8856 35.6539 15.4695 35.988 16.2588C36.3216 17.047 36.5158 18.0332 36.5158 19.1303C36.5158 20.4778 36.2227 21.6573 35.7387 22.5086C35.2543 23.3607 34.587 23.8719 33.8385 23.918L33.7687 23.9223L33.7488 23.9893C32.0047 29.857 27.8147 33.7043 23.1263 33.7043C18.4378 33.7043 14.2479 29.857 12.5036 23.9893L12.4837 23.9223L12.4139 23.918C11.6656 23.8719 10.9982 23.3607 10.5138 22.5086C10.0298 21.6573 9.73672 20.4778 9.73672 19.1303C9.73672 18.0332 9.93087 17.047 10.2645 16.2588C10.5986 15.4695 11.0694 14.8856 11.6181 14.5809L11.6723 14.5508L11.6694 14.4888C11.6656 14.4064 11.6638 14.3218 11.6638 14.2391C11.6638 7.81879 16.8061 2.6 23.1263 2.6C29.4463 2.6 34.5887 7.81879 34.5887 14.2391C34.5887 14.3217 34.5868 14.4064 34.5831 14.4889ZM33.6123 22.1069L33.6306 22.1184L33.652 22.1213C33.7207 22.1306 33.7887 22.1094 33.8494 22.075C33.9109 22.0402 33.9725 21.9879 34.0325 21.9223C34.1527 21.7908 34.276 21.5954 34.3871 21.3429C34.6097 20.837 34.7887 20.0893 34.7887 19.1303C34.7887 18.2214 34.6242 17.5035 34.423 16.9968C34.3224 16.7437 34.2122 16.542 34.1076 16.3951C34.0553 16.3216 34.0036 16.2607 33.9542 16.2136C33.9058 16.1675 33.8549 16.1301 33.8038 16.1102L33.7761 16.0995L33.748 16.1054L33.7428 16.1059L33.7324 16.107C33.7304 16.1073 33.7279 16.1076 33.7251 16.1081C33.4695 16.1276 33.2143 16.0393 33.0314 15.8536L33.0313 15.8535C32.8486 15.6681 32.758 15.4064 32.784 15.1416C32.784 15.1414 32.784 15.1413 32.784 15.1411L32.8109 14.8977L32.811 14.8975C32.8138 14.8715 32.8167 14.8454 32.8196 14.8192C32.8403 14.6326 32.8617 14.439 32.8617 14.2391C32.8617 8.79121 28.4959 4.35649 23.1263 4.35649C17.7566 4.35649 13.3909 8.79121 13.3909 14.239C13.3909 14.4381 13.4121 14.631 13.4327 14.8182C13.4356 14.8454 13.4386 14.8724 13.4415 14.8993L13.4415 14.8996L13.4685 15.1438C13.4685 15.1439 13.4685 15.1439 13.4685 15.144C13.4961 15.4056 13.4044 15.6675 13.2209 15.8557C13.0391 16.04 12.7781 16.1272 12.5214 16.1076L12.5214 16.1074H12.516L12.5146 16.1072L12.504 16.1053L12.4756 16.0998L12.4486 16.1102C12.3975 16.1301 12.3467 16.1675 12.2983 16.2136C12.2489 16.2607 12.1971 16.3216 12.1449 16.3951C12.0403 16.542 11.93 16.7437 11.8295 16.9968C11.6283 17.5035 11.4638 18.2214 11.4638 19.1303C11.4638 20.0899 11.6468 20.837 11.8632 21.3471C11.9712 21.6017 12.0884 21.7994 12.197 21.9354C12.2512 22.0032 12.305 22.0579 12.3566 22.0967C12.4054 22.1333 12.4646 22.1652 12.5272 22.1652H12.5562L12.5807 22.1497C12.728 22.0565 12.9098 22.0048 13.088 22.0048C13.1949 22.0048 13.2967 22.0225 13.388 22.0614L13.3886 22.0616C13.6532 22.1722 13.8658 22.3763 13.9313 22.6407C15.2858 28.1842 18.9674 31.9478 23.1263 31.9478C27.2852 31.9478 30.9665 28.1844 32.321 22.641C32.3887 22.3679 32.5793 22.1452 32.8325 22.0403C33.0899 21.9351 33.3777 21.9598 33.6123 22.1069Z" fill="#3AB8EE" stroke="white" stroke-width="0.2"/>
<path d="M23.0161 20.9743L23.016 20.9743L23.0163 20.9777C23.0546 21.4542 22.7177 21.8861 22.2613 21.9404C22.2202 21.9443 22.185 21.9476 22.1524 21.9476C21.7343 21.9476 21.3727 21.6519 21.3071 21.2208C21.1881 20.4332 21.5258 18.7126 23.6369 17.4019C24.2022 17.0521 24.5854 16.6802 24.8241 16.1791C25.0614 15.6808 25.1508 15.0654 25.1508 14.2392C25.1508 13.327 24.8001 12.8046 24.3597 12.5156C23.9265 12.2314 23.4217 12.1827 23.1238 12.1827C22.826 12.1827 22.3211 12.2314 21.8879 12.5156C21.4474 12.8046 21.0967 13.327 21.0967 14.2392C21.0967 14.7254 20.7084 15.1175 20.2332 15.1175C19.758 15.1175 19.3695 14.7254 19.3695 14.2392C19.3695 13.1102 19.7571 12.1581 20.4166 11.4886C21.076 10.8192 22.0131 10.4262 23.1238 10.4262C24.2345 10.4262 25.1716 10.8192 25.8309 11.4886C26.4903 12.1581 26.8779 13.1102 26.8779 14.2392C26.8779 15.3901 26.7062 16.2971 26.3306 17.044C25.9557 17.7896 25.3733 18.384 24.5375 18.9028C23.7544 19.388 23.3712 19.887 23.1854 20.2777C23.0015 20.6642 23.0144 20.9376 23.016 20.9732L23.0161 20.9743Z" fill="#3AB8EE" stroke="white" stroke-width="0.2"/>
<path d="M22.1628 25.9782C22.695 25.9782 23.1264 25.5401 23.1264 24.9999C23.1264 24.4595 22.695 24.0215 22.1628 24.0215C21.6306 24.0215 21.1992 24.4595 21.1992 24.9999C21.1992 25.5401 21.6306 25.9782 22.1628 25.9782Z" fill="#3AB8EE"/>
</svg>
