<svg width="100" height="100" viewBox="0 0 100 100" fill="none" xmlns="http://www.w3.org/2000/svg">
<path d="M27.5833 44.9583C33.5833 56.75 43.25 66.375 55.0417 72.4167L64.2083 63.25C65.3333 62.125 67 61.75 68.4583 62.25C73.125 63.7917 78.1667 64.625 83.3333 64.625C85.625 64.625 87.5 66.5 87.5 68.7917V83.3333C87.5 85.625 85.625 87.5 83.3333 87.5C44.2083 87.5 12.5 55.7917 12.5 16.6667C12.5 14.375 14.375 12.5 16.6667 12.5H31.25C33.5417 12.5 35.4167 14.375 35.4167 16.6667C35.4167 21.875 36.25 26.875 37.7917 31.5417C38.25 33 37.9167 34.625 36.75 35.7917L27.5833 44.9583Z" fill="#3AB8EE"/>
</svg>
