<svg width="100" height="100" viewBox="0 0 100 100" fill="none" xmlns="http://www.w3.org/2000/svg">
<path d="M25.0033 91.6673C22.7116 91.6673 20.7491 90.8507 19.1158 89.2173C17.4824 87.584 16.6672 85.6229 16.6699 83.334V16.6673C16.6699 14.3757 17.4866 12.4132 19.1199 10.7798C20.7533 9.14649 22.7144 8.33121 25.0033 8.33399H58.3366L83.3366 33.334V46.2507L50.0033 79.4798V91.6673H25.0033ZM58.3366 91.6673V82.8132L79.7949 61.2507L88.7533 70.0007L67.1908 91.6673H58.3366ZM91.7741 67.084L82.9199 58.2298L85.8366 55.3132C86.6699 54.4798 87.6769 54.0632 88.8574 54.0632C90.038 54.0632 91.0102 54.4798 91.7741 55.3132L94.6908 58.334C95.4546 59.1673 95.8366 60.1576 95.8366 61.3048C95.8366 62.4521 95.4546 63.4062 94.6908 64.1673L91.7741 67.084ZM54.1699 37.5007H75.0033L54.1699 16.6673V37.5007Z" fill="#3AB8EE"/>
</svg>
