<svg width="100" height="100" viewBox="0 0 100 100" fill="none" xmlns="http://www.w3.org/2000/svg">
<path d="M77.875 24.23C75.0625 19.82 70.0625 17.3 65.0625 17.3H46.625V14.15C46.625 12.26 45.375 11 43.5 11C41.625 11 40.375 12.26 40.375 14.15V17.3H21.625C12.875 17.3 6 24.23 6 33.05V70.85C6 75.89 10.0625 80.3 15.375 80.3H15.6875C16.9375 85.655 21.9375 89.75 27.875 89.75C33.8125 89.75 38.5 85.655 40.0625 80.3H56.625C57.875 85.655 62.875 89.75 68.8125 89.75C74.75 89.75 79.4375 85.655 81 80.3H84.125C89.4375 80.3 93.5 75.89 93.5 70.85V52.58C93.5 49.43 92.5625 46.595 91 43.76L77.875 24.23ZM27.875 83.45C24.4375 83.45 21.625 80.615 21.625 77.15C21.625 73.685 24.4375 70.85 27.875 70.85C31.3125 70.85 34.125 73.685 34.125 77.15C34.125 80.615 31.3125 83.45 27.875 83.45ZM52.875 49.115H46.625V55.1C46.625 56.675 45.0625 58.25 43.5 58.25C41.9375 58.25 40.375 56.675 40.375 55.1V49.115H34.125C32.5625 49.115 31 47.54 31 45.965C31 44.39 32.5625 42.815 34.125 42.815H40.375V36.2C40.375 34.625 41.9375 33.05 43.5 33.05C45.0625 33.05 46.625 34.625 46.625 36.2V42.815H52.875C54.4375 42.815 56 44.39 56 45.965C56 47.54 54.4375 49.115 52.875 49.115ZM68.5 83.45C65.0625 83.45 62.25 80.615 62.25 77.15C62.25 73.685 65.0625 70.85 68.5 70.85C71.9375 70.85 74.75 73.685 74.75 77.15C74.75 80.615 71.9375 83.45 68.5 83.45Z" fill="#3AB8EE"/>
</svg>
