<svg width="100" height="100" viewBox="0 0 100 100" fill="none" xmlns="http://www.w3.org/2000/svg">
<path fill-rule="evenodd" clip-rule="evenodd" d="M84.425 40.8241C84.1841 40.8125 83.9429 40.8083 83.7017 40.8117H73.6377C65.4046 40.8117 58.3535 47.3461 58.3535 55.8685C58.3535 64.3909 65.4046 70.9253 73.6418 70.9253H83.6976C83.9497 70.9253 84.1936 70.9253 84.4209 70.9088C86.1203 70.8003 87.7223 70.0776 88.9283 68.8754C90.1343 67.6732 90.8621 66.0735 90.976 64.3744C90.9925 64.1305 90.9925 63.8702 90.9925 63.6304V48.1066C90.9925 47.8668 90.9925 47.6065 90.976 47.3626C90.8622 45.6642 90.135 44.065 88.9299 42.8629C87.7247 41.6608 86.1237 40.9377 84.425 40.8282V40.8241ZM72.7573 59.8817C74.8776 59.8817 76.6011 58.088 76.6011 55.8685C76.6011 53.649 74.8776 51.8553 72.7573 51.8553C70.637 51.8553 68.9177 53.649 68.9177 55.8685C68.9177 58.088 70.6329 59.8817 72.7573 59.8817Z" fill="#3AB8EE"/>
<path fill-rule="evenodd" clip-rule="evenodd" d="M83.6986 76.9483C83.8371 76.9434 83.9748 76.9712 84.1006 77.0293C84.2263 77.0874 84.3367 77.1742 84.4228 77.2828C84.5088 77.3914 84.5682 77.5187 84.596 77.6544C84.6239 77.7901 84.6195 77.9305 84.5831 78.0642C83.7813 80.9243 82.5124 83.3628 80.4748 85.4128C77.4949 88.4176 73.7131 89.7526 69.0427 90.3849C64.5046 91.0008 58.71 91.0008 51.3862 91.0008H42.9671C35.6474 91.0008 29.8487 91.0008 25.3105 90.3849C20.6401 89.7526 16.8584 88.4176 13.8784 85.4128C10.8985 82.4122 9.57586 78.6015 8.94763 73.8939C8.33594 69.3186 8.33594 63.4744 8.33594 56.0968V55.6422C8.33594 48.2646 8.33594 42.4163 8.94763 37.8451C9.57586 33.1375 10.8985 29.3351 13.8743 26.3221C16.8542 23.3215 20.636 21.9823 25.3064 21.3541C29.8487 20.7383 35.6474 20.7383 42.9671 20.7383H51.3862C58.7059 20.7383 64.5046 20.7383 69.0427 21.3541C73.7131 21.9865 77.4949 23.3215 80.4748 26.3221C82.5124 28.3762 83.7813 30.8147 84.5831 33.679C84.6187 33.8124 84.6225 33.9523 84.5943 34.0875C84.5661 34.2227 84.5066 34.3494 84.4207 34.4574C84.3347 34.5655 84.2246 34.652 84.0992 34.7098C83.9738 34.7677 83.8367 34.7954 83.6986 34.7908H73.6428C62.343 34.7908 52.3864 43.7885 52.3864 55.8695C52.3864 67.9505 62.3471 76.9483 73.647 76.9483H83.6986ZM23.2729 36.7995C22.8794 36.8011 22.4901 36.8802 22.1271 37.0323C21.7642 37.1844 21.4348 37.4065 21.1577 37.6859C20.8806 37.9653 20.6612 38.2965 20.5122 38.6607C20.3631 39.0249 20.2872 39.4148 20.2888 39.8083C20.2888 41.474 21.6238 42.8214 23.2729 42.8214H39.2101C40.8633 42.8214 42.1983 41.474 42.1983 39.8083C42.2005 39.0132 41.887 38.2498 41.3268 37.6856C40.7665 37.1215 40.0052 36.8027 39.2101 36.7995H23.2729Z" fill="#3AB8EE"/>
<path d="M32.2129 16.7037L40.3055 10.7397C42.4172 9.17848 44.9742 8.33594 47.6004 8.33594C50.2266 8.33594 52.7835 9.17848 54.8953 10.7397L63.0333 16.7368C59.6277 16.6045 55.8252 16.6045 51.6632 16.6045H42.6944C38.8837 16.6045 35.383 16.6045 32.2129 16.7037Z" fill="#3AB8EE"/>
</svg>
