<svg width="100" height="100" viewBox="0 0 100 100" fill="none" xmlns="http://www.w3.org/2000/svg">
<path d="M18.3679 93.75H81.822C90.2067 93.75 96.875 87.0478 96.875 79.043V40.5054C96.875 32.3135 90.0151 25.7984 81.822 25.7984H69.4367V15.9313C69.4367 10.533 65.0544 6.25 59.5276 6.25H40.4723C34.947 6.25 30.5633 10.5316 30.5633 15.9313V25.7984H18.178C9.79333 25.7984 3.125 32.5006 3.125 40.5054V79.043C3.12367 87.235 9.98354 93.75 18.3682 93.75H18.3679ZM39.9007 15.93C39.9007 15.5573 40.0908 15.3715 40.4722 15.3715H59.5275C59.909 15.3715 60.0991 15.5572 60.0991 15.93V25.7971H39.9008L39.9007 15.93ZM32.2779 53.7229H43.7118V42.5519H56.097V53.7229H67.5309V65.8235H56.097V76.9945H43.7118V65.8235H32.2779V53.7229Z" fill="#3AB8EE"/>
</svg>
