<svg width="100" height="100" viewBox="0 0 100 100" fill="none" xmlns="http://www.w3.org/2000/svg">
<path d="M21.1505 28.6071C22.4243 22.0946 25.8621 16.3559 30.6824 12.1709L30.8113 12.0674C35.9412 7.66422 42.6117 5 49.8985 5C57.2483 5 63.9704 7.705 69.1154 12.1708L69.2381 12.2854C73.9937 16.4633 77.3828 22.1502 78.6472 28.596C80.6232 28.6941 82.4121 29.5392 83.7275 30.852C85.1295 32.2511 86 34.1832 86 36.3074V38.1915C86 40.3055 85.1319 42.2353 83.7243 43.6423C82.4458 44.9151 80.7403 45.747 78.8539 45.8929L78.7478 48.3554C78.6809 49.9021 78.1509 51.328 77.2687 52.4839C76.3833 53.6383 75.148 54.525 73.6681 54.9967L68.6137 56.6109C67.431 56.9883 66.1634 56.3401 65.786 55.1599C65.4078 53.9797 66.0573 52.7147 67.2399 52.338L72.2943 50.7238C72.8762 50.5394 73.3566 50.1988 73.6924 49.7601C74.0282 49.3215 74.2303 48.769 74.2554 48.1616L74.371 45.4747C73.8159 45.0651 73.4549 44.4067 73.4549 43.6651V30.8364C73.4549 30.1851 73.7317 29.5997 74.1752 29.1877C73.0634 23.8422 70.2223 19.1266 66.2648 15.6542L66.1555 15.5656C61.807 11.791 56.1181 9.50266 49.8974 9.50266C43.7232 9.50266 38.0782 11.7508 33.7416 15.4713L33.6394 15.5655C29.6597 19.019 26.7928 23.7173 25.6519 29.0441C26.1936 29.4545 26.5451 30.1043 26.5451 30.8365V43.6652C26.5451 44.9074 25.5347 45.9158 24.29 45.9158H21.7399C19.6192 45.9158 17.6856 45.0471 16.2757 43.6425C14.8682 42.2355 14 40.3059 14 38.1917V36.3076C14 34.1833 14.8705 32.2514 16.2725 30.8521C17.5424 29.5848 19.2535 28.753 21.1485 28.6078L21.1505 28.6071ZM49.8979 12.7445C55.8441 12.7445 61.2312 15.152 65.1282 19.0412C69.0251 22.9303 71.4377 28.3065 71.4377 34.2407C71.4377 40.4715 69.4459 46.8121 65.3516 51.3737C61.7683 55.368 56.636 57.9826 49.8979 57.9826C43.1599 57.9826 38.0268 55.3678 34.4443 51.3751C30.3515 46.8135 28.3596 40.4713 28.3596 34.2413C28.3596 28.3134 30.772 22.9403 34.6691 19.0497C38.566 15.1528 43.9534 12.7445 49.8979 12.7445ZM41.4818 59.2549H58.3154C65.7486 59.2549 72.5102 62.2933 77.4104 67.1822C82.317 72.0814 85.3617 78.8285 85.3617 86.2472V92.7494C85.3617 93.9916 84.3513 95 83.1065 95H16.6901C15.4454 95 14.435 93.9916 14.435 92.7494V86.2472C14.435 78.8237 17.4772 72.0733 22.3784 67.1822L22.5066 67.0637C27.3983 62.2448 34.1085 59.2549 41.4818 59.2549Z" fill="#3AB8EE"/>
</svg>
