<svg width="25" height="25" viewBox="0 0 25 25" fill="none" xmlns="http://www.w3.org/2000/svg">
<g clip-path="url(#clip0_444_1638)">
<path d="M10.1173 0.0830083C9.90247 0.185547 9.75599 0.405274 9.73157 0.649415C9.70228 0.9375 10.2638 4.09668 10.3761 4.2627C10.464 4.4043 10.8107 4.58984 10.9767 4.58984C11.2794 4.58984 11.6408 4.28711 11.6945 3.98926C11.7384 3.75 11.1622 0.498047 11.0451 0.341797C10.8058 0.0244145 10.4445 -0.0781245 10.1173 0.0830083Z" fill="#3AB8EE"/>
<path d="M14.3671 0.199407C14.1815 0.23847 13.9472 0.438665 13.8739 0.629095C13.8446 0.697454 13.703 1.45429 13.5565 2.3039C13.2685 3.98847 13.2636 4.05195 13.5077 4.34003C13.8251 4.71601 14.5087 4.61347 14.6894 4.16425C14.7821 3.93476 15.2948 0.912298 15.2655 0.765813C15.1874 0.370306 14.7772 0.111516 14.3671 0.199407Z" fill="#3AB8EE"/>
<path d="M18.0903 1.67923C18.0121 1.71341 17.895 1.79642 17.8364 1.85989C17.7827 1.92337 17.3871 2.57767 16.9672 3.31009C16.1274 4.76517 16.0737 4.90677 16.2495 5.22415C16.4594 5.60501 16.9428 5.73685 17.2895 5.50247C17.5336 5.33646 19.0913 2.64114 19.0913 2.37747C19.0913 1.83548 18.559 1.4595 18.0903 1.67923Z" fill="#3AB8EE"/>
<path d="M3.80898 2.97844C2.37344 3.26653 1.12832 3.54485 1.04531 3.58879C0.757226 3.74504 0.596093 4.22356 0.737695 4.50676C0.766992 4.56536 1.06484 4.88762 1.39199 5.22454L1.99746 5.83489L1.79727 6.15227C1.12344 7.24602 0.517968 8.79387 0.254296 10.0829C0.0638667 10.996 0.0248042 11.4306 0.029687 12.5488C0.029687 13.8183 0.0980464 14.4042 0.391015 15.5566C0.630273 16.4941 0.845117 17.08 1.29922 17.998C2.50527 20.4638 4.53164 22.4902 7.00723 23.706C7.92031 24.1552 8.50625 24.37 9.44375 24.6093C10.6059 24.9023 11.182 24.9706 12.476 24.9706C14.2191 24.9755 15.5277 24.7363 17.0414 24.1357C19.9369 22.9931 22.3441 20.7763 23.7016 17.998C24.4926 16.3915 24.9027 14.7948 24.9857 13.0468C25.0102 12.4218 25.0053 12.3632 24.9076 12.1728C24.727 11.8115 24.5707 11.7675 23.5355 11.7675C22.7494 11.7675 22.6322 11.7773 22.4613 11.8652C22.2025 11.997 22.0707 12.2558 22.0707 12.6415C22.0707 13.0712 21.9828 13.8671 21.8705 14.3993C21.3578 16.8993 19.849 19.1015 17.6762 20.5175C13.6479 23.1493 8.31094 22.3486 5.1957 18.6376C3.79922 16.9775 3.04238 15.0292 2.94473 12.8661C2.88613 11.455 3.15469 10.0976 3.77969 8.69133C4.14102 7.88567 4.06777 7.9052 4.65371 8.48137C4.92715 8.74993 5.20059 8.99895 5.25918 9.02825C5.53262 9.16985 6.00625 9.01848 6.17227 8.73528C6.24551 8.60833 7.32461 3.3886 7.32461 3.15422C7.32461 3.10051 7.28066 2.96379 7.22207 2.85149C7.10977 2.61711 6.8168 2.43645 6.56289 2.44621C6.48477 2.4511 5.24453 2.69036 3.80898 2.97844Z" fill="#3AB8EE"/>
<path d="M21.158 4.31152C20.9285 4.44336 18.6873 6.36719 18.5994 6.50879C18.3308 6.95801 18.6873 7.56836 19.2244 7.56836C19.3416 7.56836 19.4978 7.53418 19.571 7.5C19.8005 7.37305 21.988 5.50293 22.1052 5.32715C22.408 4.87793 22.0466 4.24316 21.49 4.24805C21.3679 4.25293 21.2166 4.27734 21.158 4.31152Z" fill="#3AB8EE"/>
<path d="M21.9247 8.29102C21.1337 8.58398 20.4354 8.84766 20.3768 8.87695C20.2108 8.96484 20.0692 9.19922 20.0399 9.43359C19.9911 9.83398 20.3231 10.2051 20.7382 10.2051C21.0507 10.2051 23.8388 9.18457 24.0292 9.00391C24.4833 8.56934 24.1513 7.75879 23.5263 7.76367C23.4384 7.76367 22.7157 8.00293 21.9247 8.29102Z" fill="#3AB8EE"/>
<path d="M9.79004 8.90625C9.37988 9.00879 9.07227 9.18457 8.75977 9.49707C8.34961 9.90234 8.10547 10.4736 8.10547 11.0156C8.10547 11.4062 8.45703 11.7676 8.83789 11.7676C8.9209 11.7676 9.07715 11.7236 9.17969 11.6699C9.39941 11.5576 9.57031 11.2793 9.57031 11.0352C9.57031 10.8008 9.73145 10.5322 9.95117 10.4102C10.1904 10.2783 10.3955 10.2734 10.6445 10.4004C11.0059 10.5859 11.1182 11.0205 10.957 11.5771C10.8594 11.9141 10.5469 12.2266 9.94141 12.5928C8.68164 13.3594 8.20801 14.0283 8.125 15.1611C8.0957 15.5029 8.10547 15.5811 8.19824 15.7617C8.2666 15.8984 8.36914 15.9961 8.49609 16.0645C8.67676 16.1572 8.7793 16.1621 10.3027 16.1621C11.8262 16.1621 11.9287 16.1572 12.1094 16.0645C12.3291 15.9521 12.5 15.6738 12.5 15.4297C12.5 15.21 12.3291 14.9072 12.1436 14.8096C12.0117 14.7363 11.8164 14.7168 10.8398 14.6973L9.69238 14.6729L9.87793 14.4727C10.0635 14.2676 10.0928 14.2432 10.9131 13.7061C11.9678 13.0127 12.4023 12.3535 12.4805 11.3086C12.5391 10.5713 12.334 9.98535 11.8408 9.49219C11.2939 8.94043 10.5273 8.7207 9.79004 8.90625Z" fill="#3AB8EE"/>
<path d="M14.3506 8.93579C14.2529 8.98462 14.1406 9.07739 14.1016 9.14087C13.9941 9.30688 12.5 13.8186 12.5 13.9797C12.5 14.2092 12.6758 14.4924 12.8906 14.5999C13.0664 14.6877 13.1738 14.6975 14.2578 14.6975H15.4297V15.137C15.4297 15.6838 15.5273 15.9133 15.8203 16.0647C16.0645 16.1868 16.2598 16.1868 16.5039 16.0647C16.7969 15.9133 16.8945 15.6838 16.8945 15.137V14.6975H17.334C17.6807 14.6975 17.8174 14.678 17.9688 14.5999C18.1885 14.4875 18.3594 14.2092 18.3594 13.9651C18.3594 13.7209 18.1885 13.4426 17.9688 13.3303C17.8174 13.2522 17.6807 13.2327 17.334 13.2327H16.8945V12.0608C16.8945 10.9768 16.8848 10.8694 16.7969 10.6936C16.6846 10.4739 16.4062 10.303 16.1621 10.303C15.918 10.303 15.6396 10.4739 15.5273 10.6936C15.4395 10.8694 15.4297 10.9768 15.4297 12.0608V13.2327H14.8438C14.5215 13.2327 14.2578 13.2278 14.2578 13.218C14.2578 13.2131 14.5215 12.4172 14.8438 11.4504C15.166 10.4836 15.4297 9.62915 15.4297 9.54614C15.4297 9.33618 15.2393 9.03345 15.0391 8.93091C14.8242 8.81372 14.5752 8.8186 14.3506 8.93579Z" fill="#3AB8EE"/>
</g>
<defs>
<clipPath id="clip0_444_1638">
<rect width="25" height="25" fill="white"/>
</clipPath>
</defs>
</svg>
