<svg width="25" height="25" viewBox="0 0 25 25" fill="none" xmlns="http://www.w3.org/2000/svg">
<path d="M8.18873 2.07489C7.39633 2.28583 6.77742 2.91864 6.56642 3.72021C6.51016 3.92645 6.49609 4.28271 6.49609 5.24364V6.49989H6.69771C7.37289 6.49989 8.39972 6.76708 9.14523 7.13271C12.5164 8.79208 13.5245 13.0952 11.2505 16.1374L11.002 16.4702L10.9879 19.6061C10.9785 21.9546 10.9598 22.7749 10.9176 22.8733L10.8566 22.9999H15.9345C21.5188 22.9999 21.2703 23.014 21.8329 22.714C22.1611 22.5358 22.5691 22.1233 22.7379 21.7905C23.0145 21.2468 23.0004 21.589 23.0004 14.5061V7.99989H20.9936C18.8228 7.99989 18.7055 7.99052 18.2085 7.73739C17.8756 7.56864 17.463 7.16083 17.2849 6.83271C17.0082 6.31239 16.9988 6.20927 16.9988 4.00614V1.99989L12.7227 2.00458C9.14054 2.00458 8.39972 2.01864 8.18873 2.07489ZM15.1515 6.62177C15.4 6.80458 15.475 6.95458 15.475 7.24989C15.475 7.54521 15.4 7.69521 15.1515 7.87802C15.0296 7.97177 14.9499 7.97646 13.7261 7.99052C12.8915 7.99989 12.3664 7.98583 12.2539 7.95771C11.7803 7.81708 11.5974 7.16552 11.921 6.77645C12.1507 6.50927 12.2023 6.49989 13.6792 6.51396C14.9546 6.52333 15.0296 6.52802 15.1515 6.62177ZM19.6527 10.3718C19.9012 10.5546 19.9762 10.7046 19.9762 10.9999C19.9762 11.2952 19.9012 11.4452 19.6527 11.628C19.5261 11.7218 19.4651 11.7265 17.102 11.7405C15.4844 11.7499 14.6217 11.7405 14.5044 11.703C14.0309 11.5671 13.848 10.9155 14.1715 10.5265C14.4107 10.2452 14.3544 10.2499 17.0551 10.264C19.4651 10.2733 19.5261 10.2733 19.6527 10.3718ZM19.6527 14.1218C19.9012 14.3046 19.9762 14.4546 19.9762 14.7499C19.9762 15.0452 19.9012 15.1952 19.6527 15.378C19.5261 15.4718 19.4651 15.4765 17.102 15.4905C15.4844 15.4999 14.6217 15.4905 14.5044 15.453C14.0309 15.3171 13.848 14.6655 14.1715 14.2765C14.4107 13.9952 14.3544 13.9999 17.0551 14.014C19.4651 14.0233 19.5261 14.0233 19.6527 14.1218ZM19.6527 17.8718C19.9012 18.0546 19.9762 18.2046 19.9762 18.4999C19.9762 18.7952 19.9012 18.9452 19.6527 19.128C19.5261 19.2265 19.4698 19.2265 16.3518 19.2405C14.2091 19.2499 13.1213 19.2405 13.0041 19.203C12.5305 19.0671 12.3476 18.4155 12.6712 18.0265C12.9103 17.7405 12.7884 17.7499 16.3049 17.764C19.4745 17.7733 19.5261 17.7733 19.6527 17.8718Z" fill="#3AB8EE"/>
<path d="M18.498 4.17012C18.498 5.52012 18.5121 5.92793 18.5637 6.04512C18.6434 6.24199 18.8825 6.44355 19.0748 6.47637C19.1592 6.49043 19.9703 6.49512 20.8799 6.49043L22.5304 6.47637L20.5142 4.46074L18.498 2.44512V4.17012Z" fill="#3AB8EE"/>
<path d="M5.71292 8.07069C4.77048 8.23944 3.91713 8.69882 3.25602 9.39726C1.57277 11.1551 1.58215 13.8785 3.27947 15.6316C4.07186 16.4566 5.12214 16.9254 6.28494 16.9863C8.41831 17.0941 10.2844 15.7066 10.8658 13.5832C11.0112 13.0676 11.0112 11.9332 10.8658 11.4176C10.3829 9.65038 9.00441 8.37538 7.2602 8.07069C6.78195 7.98632 6.17241 7.98632 5.71292 8.07069Z" fill="#3AB8EE"/>
<path d="M3.49414 20.0471C3.49414 22.6534 3.48946 22.6018 3.79891 22.8362C3.97708 22.9768 4.18339 23.0237 4.41782 22.9768C4.56786 22.9487 4.73666 22.8081 5.54781 22.0018L6.49493 21.0596L7.44674 22.0018C8.25321 22.8081 8.422 22.9487 8.57204 22.9768C8.80648 23.0237 9.01278 22.9768 9.19095 22.8362C9.50041 22.6018 9.49572 22.6487 9.49572 20.0565V17.7081L9.05029 17.919C8.18756 18.3221 7.49363 18.4721 6.49493 18.4721C5.37901 18.4768 4.64757 18.2846 3.53165 17.7127C3.50821 17.7034 3.49414 18.7534 3.49414 20.0471Z" fill="#3AB8EE"/>
</svg>
