<svg width="25" height="25" viewBox="0 0 25 25" fill="none" xmlns="http://www.w3.org/2000/svg">
<path d="M6.23122 3.10827C6.13736 3.1755 6.01222 3.2841 5.96007 3.3565C5.89229 3.44959 5.67328 4.43732 5.20398 6.7748L4.54175 10.069L3.70745 10.2345C2.39863 10.4982 0.500584 10.9843 0.349366 11.0981C0.088645 11.2946 0 11.4601 0 11.7807C0 12.1582 0.172076 12.4064 0.516227 12.5357C0.797805 12.6443 0.750875 12.6495 2.16398 12.2875C4.22889 11.76 6.20515 11.4084 8.34306 11.1963C10.8929 10.9378 14.0685 10.9378 16.634 11.1963C18.6728 11.398 20.8368 11.7807 22.8131 12.2875C24.2366 12.6495 24.1375 12.6288 24.3513 12.5926C24.6016 12.5461 24.9353 12.2151 24.9823 11.9721C25.0709 11.4808 24.8258 11.1239 24.2835 10.9585C23.7934 10.8085 21.984 10.3741 21.1392 10.1983L20.4301 10.0586L19.7731 6.7748C19.3038 4.42698 19.0848 3.44959 19.017 3.3565C18.725 2.96865 18.3652 2.90659 17.7186 3.14447C17.4944 3.22721 17.0563 3.36167 16.7383 3.44959C13.6983 4.2977 10.4236 4.20978 7.42011 3.20136C6.71616 2.96347 6.4763 2.94279 6.23122 3.10827Z" fill="#3AB8EE"/>
<path d="M5.78268 13.1051C4.22879 13.4412 2.95647 14.7599 2.68011 16.3062C2.60711 16.7509 2.64361 17.6508 2.76354 18.0696C3.05554 19.135 3.87421 20.1072 4.89102 20.6036C5.99647 21.1415 7.34179 21.1311 8.44725 20.5778C9.76649 19.921 10.6634 18.5247 10.6634 17.1233V16.7509H12.4832H14.2978L14.3291 17.2526C14.376 18.1162 14.6368 18.804 15.1738 19.4814C16.3419 20.9605 18.4328 21.4207 20.1275 20.5778C21.4937 19.9003 22.3437 18.5299 22.3437 17.0095C22.3437 15.2667 21.2434 13.767 19.5539 13.2034C19.0482 13.0379 18.1826 12.981 17.6194 13.0741C17.1449 13.1568 16.5661 13.3895 16.1385 13.674C15.737 13.9377 15.1686 14.5117 14.9653 14.8582L14.8245 15.0961H12.4884H10.1524L10.0116 14.8582C9.80821 14.5117 9.23984 13.9377 8.84354 13.6791C8.42118 13.3999 7.94145 13.1982 7.4878 13.0999C7.06021 13.012 6.20505 13.012 5.78268 13.1051Z" fill="#3AB8EE"/>
</svg>
