<svg width="25" height="25" viewBox="0 0 25 25" fill="none" xmlns="http://www.w3.org/2000/svg">
<g clip-path="url(#clip0_485_191)">
<path d="M18.4782 9.53645C18.4782 4.82208 14.3424 1 9.23911 1C4.13577 1 1.01573e-05 4.82239 1.01573e-05 9.53645C-0.00265871 11.2177 0.520679 12.8567 1.49454 14.2179C1.86114 14.7224 1.95868 15.3777 1.75536 15.9693L0.570641 19.2738C0.476263 19.5288 0.54735 19.816 0.74897 19.996C0.950591 20.1757 1.24077 20.2106 1.47828 20.0835L5.54901 17.9577H5.54877C5.94789 17.7507 6.4069 17.6961 6.84243 17.8033C7.62733 17.9919 8.43236 18.0824 9.23907 18.0733C14.3424 18.0733 18.4782 14.2509 18.4782 9.53681L18.4782 9.53645ZM4.65217 11.2217C4.28289 11.2231 3.92819 11.0758 3.66615 10.812C3.40436 10.5482 3.25659 10.1897 3.25563 9.8155C3.25466 9.44128 3.40047 9.08207 3.66105 8.81677C3.92162 8.55171 4.27561 8.40247 4.64514 8.40198C5.01441 8.40149 5.36862 8.54975 5.62992 8.81431C5.89122 9.07862 6.03801 9.4376 6.03801 9.81185C6.03801 10.1848 5.89219 10.5426 5.63259 10.8069C5.37274 11.0712 5.02021 11.2202 4.65217 11.2217ZM9.51097 11.2217C9.14194 11.2217 8.78818 11.0731 8.52712 10.8088C8.2663 10.5443 8.11976 10.1858 8.11976 9.81179C8.11976 9.43781 8.2663 9.07932 8.52712 8.81476C8.78818 8.55045 9.14193 8.40194 9.51097 8.40194C9.88001 8.40194 10.2338 8.55045 10.4948 8.81476C10.7556 9.07932 10.9022 9.43781 10.9022 9.81179C10.9022 10.1858 10.7556 10.5443 10.4948 10.8088C10.2338 11.0731 9.88001 11.2217 9.51097 11.2217ZM14.3698 11.2217C14.0007 11.2217 13.6467 11.0731 13.3859 10.8088C13.1249 10.5443 12.9783 10.1858 12.9783 9.81179C12.9783 9.43781 13.1249 9.07932 13.3859 8.81476C13.6467 8.55045 14.0007 8.40194 14.3698 8.40194C14.7386 8.40194 15.0926 8.55045 15.3534 8.81476C15.6144 9.07932 15.761 9.43781 15.761 9.81179C15.761 10.1858 15.6144 10.5443 15.3534 10.8088C15.0926 11.0731 14.7386 11.2217 14.3698 11.2217Z" fill="#3AB8EE"/>
<path d="M23.2449 19.797C23.051 19.2135 23.1483 18.571 23.5057 18.0731C24.4796 16.712 25.0029 15.073 25.0002 13.3917C24.9585 10.5078 23.4472 7.85134 21.0057 6.36964C20.7359 6.19605 20.3889 6.20613 20.1294 6.39521C19.87 6.58429 19.7499 6.91425 19.8263 7.22871C20.0141 7.98328 20.109 8.75831 20.109 9.53649C20.109 14.3721 16.5002 18.4204 11.6742 19.4502C11.3399 19.5195 11.0878 19.7991 11.0495 20.1428C11.0111 20.4863 11.1953 20.816 11.5058 20.9594C13.5815 21.9502 15.931 22.1858 18.158 21.6257C18.5935 21.5182 19.0525 21.5731 19.4516 21.7798L23.5224 23.9056L23.5221 23.9059C23.7601 24.0512 24.0629 24.0264 24.2747 23.8442C24.4865 23.662 24.5598 23.3633 24.4569 23.1016L23.2449 19.797Z" fill="#3AB8EE"/>
</g>
<defs>
<clipPath id="clip0_485_191">
<rect width="25" height="25" fill="white"/>
</clipPath>
</defs>
</svg>
