<svg width="25" height="25" viewBox="0 0 25 25" fill="none" xmlns="http://www.w3.org/2000/svg">
<path d="M20.2143 5.112C19.4429 3.908 18.0714 3.22 16.7 3.22H11.6429V2.36C11.6429 1.844 11.3 1.5 10.7857 1.5C10.2714 1.5 9.92857 1.844 9.92857 2.36V3.22H4.78571C2.38571 3.22 0.5 5.112 0.5 7.52V17.84C0.5 19.216 1.61429 20.42 3.07143 20.42H3.15714C3.5 21.882 4.87143 23 6.5 23C8.12857 23 9.41429 21.882 9.84286 20.42H14.3857C14.7286 21.882 16.1 23 17.7286 23C19.3571 23 20.6429 21.882 21.0714 20.42H21.9286C23.3857 20.42 24.5 19.216 24.5 17.84V12.852C24.5 11.992 24.2429 11.218 23.8143 10.444L20.2143 5.112ZM6.5 21.28C5.55714 21.28 4.78571 20.506 4.78571 19.56C4.78571 18.614 5.55714 17.84 6.5 17.84C7.44286 17.84 8.21429 18.614 8.21429 19.56C8.21429 20.506 7.44286 21.28 6.5 21.28ZM13.3571 11.906H11.6429V13.54C11.6429 13.97 11.2143 14.4 10.7857 14.4C10.3571 14.4 9.92857 13.97 9.92857 13.54V11.906H8.21429C7.78571 11.906 7.35714 11.476 7.35714 11.046C7.35714 10.616 7.78571 10.186 8.21429 10.186H9.92857V8.38C9.92857 7.95 10.3571 7.52 10.7857 7.52C11.2143 7.52 11.6429 7.95 11.6429 8.38V10.186H13.3571C13.7857 10.186 14.2143 10.616 14.2143 11.046C14.2143 11.476 13.7857 11.906 13.3571 11.906ZM17.6429 21.28C16.7 21.28 15.9286 20.506 15.9286 19.56C15.9286 18.614 16.7 17.84 17.6429 17.84C18.5857 17.84 19.3571 18.614 19.3571 19.56C19.3571 20.506 18.5857 21.28 17.6429 21.28Z" fill="#3AB8EE"/>
</svg>
