<svg width="25" height="25" viewBox="0 0 25 25" fill="none" xmlns="http://www.w3.org/2000/svg">
<path d="M22 7H19V3C19 2.4 18.6 2 18 2H7C6.4 2 6 2.4 6 3V7H3C2.4 7 2 7.4 2 8V22C2 22.6 2.4 23 3 23H22C22.6 23 23 22.6 23 22V8C23 7.4 22.6 7 22 7ZM8 19H7C6.4 19 6 18.6 6 18C6 17.4 6.4 17 7 17H8C8.6 17 9 17.4 9 18C9 18.6 8.6 19 8 19ZM8 15H7C6.4 15 6 14.6 6 14C6 13.4 6.4 13 7 13H8C8.6 13 9 13.4 9 14C9 14.6 8.6 15 8 15ZM13 19H12C11.4 19 11 18.6 11 18C11 17.4 11.4 17 12 17H13C13.6 17 14 17.4 14 18C14 18.6 13.6 19 13 19ZM13 15H12C11.4 15 11 14.6 11 14C11 13.4 11.4 13 12 13H13C13.6 13 14 13.4 14 14C14 14.6 13.6 15 13 15ZM14 9.5H13.5V10C13.5 10.6 13.1 11 12.5 11C11.9 11 11.5 10.6 11.5 10V9.5H11C10.4 9.5 10 9.1 10 8.5C10 7.9 10.4 7.5 11 7.5H11.5V7C11.5 6.4 11.9 6 12.5 6C13.1 6 13.5 6.4 13.5 7V7.5H14C14.6 7.5 15 7.9 15 8.5C15 9.1 14.6 9.5 14 9.5ZM18 19H17C16.4 19 16 18.6 16 18C16 17.4 16.4 17 17 17H18C18.6 17 19 17.4 19 18C19 18.6 18.6 19 18 19ZM18 15H17C16.4 15 16 14.6 16 14C16 13.4 16.4 13 17 13H18C18.6 13 19 13.4 19 14C19 14.6 18.6 15 18 15Z" fill="#3AB8EE"/>
</svg>
