<svg width="1316" height="687" viewBox="0 0 1316 687" fill="none" xmlns="http://www.w3.org/2000/svg">
<path d="M212 52L182 104H122L92 52L122 0L182 2.62462e-06L212 52Z" fill="white" fill-opacity="0.12"/>
<path d="M212 264L182 316H122L92 264L122 212L182 212L212 264Z" fill="white" fill-opacity="0.12"/>
<path d="M212 476L182 528H122L92 476L122 424L182 424L212 476Z" fill="white" fill-opacity="0.12"/>
<path d="M212 158L182 210H122L92 158L122 106L182 106L212 158Z" fill="white" fill-opacity="0.12"/>
<path d="M212 370L182 422H122L92 370L122 318L182 318L212 370Z" fill="white" fill-opacity="0.07"/>
<path d="M212 582L182 634H122L92 582L122 530L182 530L212 582Z" fill="white" fill-opacity="0.12"/>
<path d="M396 52L366 104H306L276 52L306 0L366 2.62462e-06L396 52Z" fill="white" fill-opacity="0.12"/>
<path d="M396 264L366 316H306L276 264L306 212L366 212L396 264Z" fill="white" fill-opacity="0.12"/>
<path d="M396 476L366 528H306L276 476L306 424L366 424L396 476Z" fill="white" fill-opacity="0.12"/>
<path d="M396 370L366 422H306L276 370L306 318L366 318L396 370Z" fill="white" fill-opacity="0.12"/>
<path d="M396 582L366 634H306L276 582L306 530L366 530L396 582Z" fill="white" fill-opacity="0.07"/>
<path d="M580 52L550 104H490L460 52L490 0L550 2.62462e-06L580 52Z" fill="white" fill-opacity="0.12"/>
<path d="M580 264L550 316H490L460 264L490 212L550 212L580 264Z" fill="white" fill-opacity="0.12"/>
<path d="M580 476L550 528H490L460 476L490 424L550 424L580 476Z" fill="white" fill-opacity="0.12"/>
<path d="M580 158L550 210H490L460 158L490 106L550 106L580 158Z" fill="white" fill-opacity="0.12"/>
<path d="M580 370L550 422H490L460 370L490 318L550 318L580 370Z" fill="white" fill-opacity="0.12"/>
<path d="M580 582L550 634H490L460 582L490 530L550 530L580 582Z" fill="white" fill-opacity="0.12"/>
<path d="M764 52L734 104H674L644 52L674 0L734 2.62462e-06L764 52Z" fill="white" fill-opacity="0.12"/>
<path d="M764 264L734 316H674L644 264L674 212L734 212L764 264Z" fill="white" fill-opacity="0.12"/>
<path d="M764 476L734 528H674L644 476L674 424L734 424L764 476Z" fill="white" fill-opacity="0.12"/>
<path d="M764 158L734 210H674L644 158L674 106L734 106L764 158Z" fill="white" fill-opacity="0.12"/>
<path d="M764 370L734 422H674L644 370L674 318L734 318L764 370Z" fill="white" fill-opacity="0.12"/>
<path d="M764 582L734 634H674L644 582L674 530L734 530L764 582Z" fill="white" fill-opacity="0.12"/>
<path d="M948 52L918 104H858L828 52L858 0L918 2.62462e-06L948 52Z" fill="white" fill-opacity="0.12"/>
<path d="M948 264L918 316H858L828 264L858 212L918 212L948 264Z" fill="white" fill-opacity="0.07"/>
<path d="M948 476L918 528H858L828 476L858 424L918 424L948 476Z" fill="white" fill-opacity="0.12"/>
<path d="M948 158L918 210H858L828 158L858 106L918 106L948 158Z" fill="white" fill-opacity="0.12"/>
<path d="M948 370L918 422H858L828 370L858 318L918 318L948 370Z" fill="white" fill-opacity="0.12"/>
<path d="M948 582L918 634H858L828 582L858 530L918 530L948 582Z" fill="white" fill-opacity="0.12"/>
<path d="M1132 52L1102 104H1042L1012 52L1042 0L1102 2.62462e-06L1132 52Z" fill="white" fill-opacity="0.12"/>
<path d="M1132 264L1102 316H1042L1012 264L1042 212L1102 212L1132 264Z" fill="white" fill-opacity="0.12"/>
<path d="M1132 476L1102 528H1042L1012 476L1042 424L1102 424L1132 476Z" fill="white" fill-opacity="0.12"/>
<path d="M1132 158L1102 210H1042L1012 158L1042 106L1102 106L1132 158Z" fill="white" fill-opacity="0.12"/>
<path d="M1132 582L1102 634H1042L1012 582L1042 530L1102 530L1132 582Z" fill="white" fill-opacity="0.05"/>
<path d="M1316 52L1286 104H1226L1196 52L1226 0L1286 2.62462e-06L1316 52Z" fill="white" fill-opacity="0.12"/>
<path d="M1316 370L1286 422H1226L1196 370L1226 318L1286 318L1316 370Z" fill="white" fill-opacity="0.05"/>
<path d="M1316 582L1286 634H1226L1196 582L1226 530L1286 530L1316 582Z" fill="white" fill-opacity="0.07"/>
<path d="M120 105L90 157H30L0 105L30 53L90 53L120 105Z" fill="white" fill-opacity="0.07"/>
<path d="M120 317L90 369H30L0 317L30 265L90 265L120 317Z" fill="white" fill-opacity="0.12"/>
<path d="M120 529L90 581H30L0 529L30 477L90 477L120 529Z" fill="white" fill-opacity="0.07"/>
<path d="M120 635L90 687H30L0 635L30 583L90 583L120 635Z" fill="white" fill-opacity="0.12"/>
<path d="M304 105L274 157H214L184 105L214 53L274 53L304 105Z" fill="white" fill-opacity="0.12"/>
<path d="M304 317L274 369H214L184 317L214 265L274 265L304 317Z" fill="white" fill-opacity="0.12"/>
<path d="M304 529L274 581H214L184 529L214 477L274 477L304 529Z" fill="white" fill-opacity="0.12"/>
<path d="M304 211L274 263H214L184 211L214 159L274 159L304 211Z" fill="white" fill-opacity="0.07"/>
<path d="M304 635L274 687H214L184 635L214 583L274 583L304 635Z" fill="white" fill-opacity="0.12"/>
<path d="M488 105L458 157H398L368 105L398 53L458 53L488 105Z" fill="white" fill-opacity="0.12"/>
<path d="M488 529L458 581H398L368 529L398 477L458 477L488 529Z" fill="white" fill-opacity="0.12"/>
<path d="M488 211L458 263H398L368 211L398 159L458 159L488 211Z" fill="white" fill-opacity="0.12"/>
<path d="M488 423L458 475H398L368 423L398 371L458 371L488 423Z" fill="white" fill-opacity="0.07"/>
<path d="M488 635L458 687H398L368 635L398 583L458 583L488 635Z" fill="white" fill-opacity="0.12"/>
<path d="M672 105L642 157H582L552 105L582 53L642 53L672 105Z" fill="white" fill-opacity="0.12"/>
<path d="M672 317L642 369H582L552 317L582 265L642 265L672 317Z" fill="white" fill-opacity="0.12"/>
<path d="M672 529L642 581H582L552 529L582 477L642 477L672 529Z" fill="white" fill-opacity="0.12"/>
<path d="M672 211L642 263H582L552 211L582 159L642 159L672 211Z" fill="white" fill-opacity="0.12"/>
<path d="M672 423L642 475H582L552 423L582 371L642 371L672 423Z" fill="white" fill-opacity="0.12"/>
<path d="M672 635L642 687H582L552 635L582 583L642 583L672 635Z" fill="white" fill-opacity="0.12"/>
<path d="M856 105L826 157H766L736 105L766 53L826 53L856 105Z" fill="white" fill-opacity="0.12"/>
<path d="M856 317L826 369H766L736 317L766 265L826 265L856 317Z" fill="white" fill-opacity="0.12"/>
<path d="M856 529L826 581H766L736 529L766 477L826 477L856 529Z" fill="white" fill-opacity="0.12"/>
<path d="M856 211L826 263H766L736 211L766 159L826 159L856 211Z" fill="white" fill-opacity="0.12"/>
<path d="M856 423L826 475H766L736 423L766 371L826 371L856 423Z" fill="white" fill-opacity="0.12"/>
<path d="M856 635L826 687H766L736 635L766 583L826 583L856 635Z" fill="white" fill-opacity="0.12"/>
<path d="M1040 105L1010 157H950L920 105L950 53L1010 53L1040 105Z" fill="white" fill-opacity="0.05"/>
<path d="M1040 317L1010 369H950L920 317L950 265L1010 265L1040 317Z" fill="white" fill-opacity="0.12"/>
<path d="M1040 529L1010 581H950L920 529L950 477L1010 477L1040 529Z" fill="white" fill-opacity="0.07"/>
<path d="M1040 211L1010 263H950L920 211L950 159L1010 159L1040 211Z" fill="white" fill-opacity="0.12"/>
<path d="M1040 423L1010 475H950L920 423L950 371L1010 371L1040 423Z" fill="white" fill-opacity="0.12"/>
<path d="M1040 635L1010 687H950L920 635L950 583L1010 583L1040 635Z" fill="white" fill-opacity="0.12"/>
<path d="M1224 105L1194 157H1134L1104 105L1134 53L1194 53L1224 105Z" fill="white" fill-opacity="0.07"/>
<path d="M1224 317L1194 369H1134L1104 317L1134 265L1194 265L1224 317Z" fill="white" fill-opacity="0.07"/>
<path d="M1224 529L1194 581H1134L1104 529L1134 477L1194 477L1224 529Z" fill="white" fill-opacity="0.12"/>
<path d="M1224 211L1194 263H1134L1104 211L1134 159L1194 159L1224 211Z" fill="white" fill-opacity="0.12"/>
<path d="M1224 423L1194 475H1134L1104 423L1134 371L1194 371L1224 423Z" fill="white" fill-opacity="0.12"/>
<path d="M1224 635L1194 687H1134L1104 635L1134 583L1194 583L1224 635Z" fill="white" fill-opacity="0.12"/>
</svg>
