<svg width="106.000000" height="45.000000" viewBox="0 0 106 45" fill="none" xmlns="http://www.w3.org/2000/svg" xmlns:xlink="http://www.w3.org/1999/xlink">
	<desc>
			Created with Pixso.
	</desc>
	<defs>
		<clipPath id="clip454_4604">
			<rect id="Logo" width="106.000000" height="45.000000" fill="white" fill-opacity="0"/>
		</clipPath>
	</defs>
	<g clip-path="url(#clip454_4604)">
		<path id="Vector" d="M20.851 1.54274L17.6711 0.766663L14.9364 3.27405L12.2017 0.766663L9.02185 1.54274L6.9231 5.60231L8.57666 8.94547L15 15.3333L21.4233 8.94547L23.0769 5.60231L20.851 1.54274Z" fill="#1E8F38" fill-opacity="1.000000" fill-rule="nonzero"/>
		<path id="Vector" d="M8.14307 1.53334C6.68872 1.00459 5.30054 0.528732 3.84619 0L12.3077 0C10.9194 0.528732 9.53125 1.00459 8.14307 1.53334Z" fill="#1E8F38" fill-opacity="1.000000" fill-rule="nonzero"/>
		<path id="Vector" d="M2.17957 0L6.9231 2.3L0 1.86874L2.17957 0Z" fill="#1E8F38" fill-opacity="1.000000" fill-rule="nonzero"/>
		<path id="Vector" d="M5.36267 3.06667L3.91211 7.79929C3.91211 8.96706 3.84619 10.0734 3.84619 11.2412C5.82422 13.3924 7.80225 15.4821 9.78027 17.6333C9.84619 16.8343 9.84619 16.0967 9.91211 15.2977L10.7693 12.9007L8.46155 10.4422L6.21973 7.18469C6.02197 7.06177 5.75818 6.87733 5.56042 6.75441C5.36267 6.87733 5.16479 7.00032 4.90112 7.18469C4.96704 7.36906 4.96704 7.55344 4.96704 7.73782C5.75818 9.02852 6.54944 10.3807 7.3407 11.7329L7.27466 12.1631C7.14282 12.1017 7.01099 11.9787 6.87915 11.9173C6.08789 10.5651 5.36255 9.21289 4.63733 7.86073C4.63733 7.6149 4.63733 7.3076 4.63733 7.06171C4.90112 6.87733 5.23083 6.69296 5.49451 6.50858C5.7583 6.69296 6.02197 6.87733 6.35168 7.06171C6.48352 6.3242 6.61536 5.58664 6.81323 4.84908L6.4176 4.35739L6.28564 3.55836L5.36267 3.06667Z" fill="#1E8F38" fill-opacity="1.000000" fill-rule="nonzero"/>
		<path id="Vector" d="M0.401367 2.3L0 6.13333L4.61536 2.63824L0.401367 2.3Z" fill="#1E8F38" fill-opacity="1.000000" fill-rule="nonzero"/>
		<path id="Vector" d="M0.769287 7.34723L4.61536 3.83333C4.29492 5.04723 3.91028 6.325 3.58972 7.53888C3.58972 8.62498 3.65381 9.64722 3.65381 10.7333C2.69226 9.58333 1.73071 8.49722 0.769287 7.34723Z" fill="#1E8F38" fill-opacity="1.000000" fill-rule="nonzero"/>
		<path id="Vector" d="M16.3956 15.3333L14.6154 17.2346L12.8352 15.3333L12.3077 17.2959L14.6154 23L16.9231 17.2959L16.3956 15.3333Z" fill="#1E8F38" fill-opacity="1.000000" fill-rule="nonzero"/>
		<path id="Vector" d="M10.8391 13.8L10.1399 15.7323L10 18.2878L13.0769 21.4667L11.5385 17.4775L12.3777 14.9219L10.8391 13.8Z" fill="#1E8F38" fill-opacity="1.000000" fill-rule="nonzero"/>
		<path id="Vector" d="M21.8571 1.53334C23.3113 1.00459 24.6996 0.528732 26.1538 0L17.6923 0C19.0806 0.528732 20.4689 1.00459 21.8571 1.53334Z" fill="#1E8F38" fill-opacity="1.000000" fill-rule="nonzero"/>
		<path id="Vector" d="M26.9872 0L22.3077 2.3L29.2307 1.86874L26.9872 0Z" fill="#1E8F38" fill-opacity="1.000000" fill-rule="nonzero"/>
		<path id="Vector" d="M24.6228 3.06667L26.0873 7.79927C26.0873 8.96712 26.1538 10.0734 26.1538 11.2412C24.1569 13.3924 22.1598 15.4821 20.2292 17.6333C20.1627 16.8343 20.1627 16.0967 20.0962 15.2977L19.2307 12.9007L21.5607 10.4422L23.824 7.18469C24.0237 7.06177 24.2899 6.87732 24.4897 6.75441C24.6893 6.87732 24.889 7.00031 25.1554 7.18469C25.0887 7.36906 25.0889 7.55344 25.0889 7.73781C24.29 9.02858 23.4911 10.3807 22.6923 11.7329L22.7589 12.1631C22.8921 12.1017 23.0251 11.9787 23.1583 11.9173C23.9572 10.5651 24.6893 9.21295 25.4216 7.86073C25.4216 7.6149 25.4216 7.3076 25.4216 7.06177C25.1554 6.87732 24.8225 6.69295 24.5563 6.50858C24.2899 6.69295 24.0237 6.87732 23.6908 7.06177C23.5577 6.3242 23.4246 5.58664 23.2249 4.84908L23.6243 4.35739L23.7574 3.55835L24.6228 3.06667Z" fill="#1E8F38" fill-opacity="1.000000" fill-rule="nonzero"/>
		<path id="Vector" d="M29.5988 2.3L30 6.13333L25.3846 2.63824L29.5988 2.3Z" fill="#1E8F38" fill-opacity="1.000000" fill-rule="nonzero"/>
		<path id="Vector" d="M29.2307 7.34723L25.3846 3.83333C25.7051 5.04723 26.0897 6.325 26.4102 7.53888C26.4102 8.62498 26.3462 9.64722 26.3462 10.7333C27.3718 9.58333 28.3334 8.49722 29.2307 7.34723Z" fill="#1E8F38" fill-opacity="1.000000" fill-rule="nonzero"/>
		<path id="Vector" d="M18.3916 13.8L19.0909 15.7323L19.2307 18.2878L16.1538 21.4667L17.6924 17.4775L16.8531 14.9219L18.3916 13.8Z" fill="#1E8F38" fill-opacity="1.000000" fill-rule="nonzero"/>
		<path id="Vector" d="M17.6923 0.47702C16.7729 0.340729 15.9193 0.136292 15 0C14.0807 0.136292 13.2271 0.340729 12.3077 0.47702C13.2271 1.36295 14.0807 2.18074 15 3.06667C15.9193 2.18074 16.8386 1.36295 17.6923 0.47702Z" fill="#1E8F38" fill-opacity="1.000000" fill-rule="nonzero"/>
		<path id="Vector" d="M10 8.81668L12.5 8.81668L14.3422 4.60001L16.1842 10.6055L17.1052 8.49725L20 8.62495L17.2368 8.94444L16.0526 13.0333L14.2106 6.64445L12.8947 9.26387L10 8.81668Z" fill="#FFFFFF" fill-opacity="1.000000" fill-rule="nonzero"/>
		<path id="Vector" d="M44.2787 11.399L41.4132 11.399L38.1383 7.61577L37.3197 8.50247L37.3197 11.399L35 11.399L35 2L37.3197 2L37.3197 6.19704L41.1404 2L44.0057 2L39.7075 6.4335L44.2787 11.399ZM49.7368 11.5763C48.7816 11.5763 47.963 11.2217 47.2806 10.5123L47.2806 14L45.2339 14L45.2339 4.60098L47.2806 4.60098L47.2806 5.48769C47.8948 4.77832 48.7134 4.48276 49.7368 4.48276C50.7603 4.48276 51.579 4.77832 52.2612 5.42857C52.9435 6.07881 53.2163 6.9064 53.2163 8.02956C53.2163 9.15271 52.8752 10.0394 52.2612 10.6306C51.6472 11.2808 50.8285 11.5763 49.7368 11.5763ZM49.1228 9.9803C49.7368 9.9803 50.2145 9.80295 50.5555 9.44826C50.8966 9.09358 51.1013 8.62068 51.1013 8.02956C51.1013 7.43842 50.8966 6.96552 50.5555 6.61082C50.2145 6.25615 49.7368 6.07881 49.1228 6.07881C48.7816 6.07881 48.4406 6.13792 48.0994 6.31526C47.7582 6.49261 47.4854 6.66994 47.3489 6.84727L47.3489 9.27094C47.5536 9.50739 47.7582 9.68472 48.0994 9.80295C48.4406 9.92117 48.7816 9.9803 49.1228 9.9803ZM56.764 11.399L54.7855 11.399L54.7855 4.60098L56.8323 4.60098L56.8323 8.73892L60.1072 4.60098L62.2223 4.60098L62.2223 11.399L60.1754 11.399L60.1754 7.14285L56.764 11.399ZM67.885 11.5763C66.6569 11.5763 65.7018 11.2217 64.8831 10.5714C64.1326 9.92119 63.7231 9.03447 63.7231 7.97043C63.7231 6.90639 64.1326 6.07881 64.8831 5.42857C65.6335 4.77832 66.6569 4.42363 67.885 4.42363C69.2495 4.42363 70.3411 4.83743 71.0233 5.66501L69.6588 6.78816C69.2495 6.31526 68.7037 6.07881 68.0215 6.07881C67.4075 6.07881 66.8616 6.25615 66.4523 6.61082C66.0428 6.96552 65.8383 7.43842 65.8383 8.02956C65.8383 8.62068 66.0428 9.09358 66.4523 9.44826C66.8616 9.80295 67.3392 9.9803 68.0215 9.9803C68.7037 9.9803 69.2495 9.74384 69.6588 9.27094L71.0233 10.335C70.3411 11.1626 69.3177 11.5763 67.885 11.5763ZM75.9357 11.399L73.8207 11.399L73.8207 6.13794L71.6375 6.13794L71.6375 4.54187L78.1191 4.54187L78.1191 6.13794L75.9357 6.13794L75.9357 11.399ZM86.2374 11.399L84.1914 11.399L84.1914 10.6897C83.6449 11.2808 82.8269 11.5763 81.6664 11.5763C80.9841 11.5763 80.3018 11.399 79.7561 10.9852C79.2104 10.5714 78.9373 10.0394 78.9373 9.33005C78.9373 8.62068 79.2104 8.02954 79.7561 7.67487C80.3018 7.32019 80.9841 7.14285 81.6664 7.14285C82.7585 7.14285 83.6449 7.43842 84.1914 7.97043L84.1914 7.02463C84.1914 6.66995 84.0548 6.37437 83.7133 6.19704C83.3726 5.96057 82.9626 5.90146 82.4854 5.90146C81.598 5.90146 80.8483 6.19705 80.166 6.72906L79.4154 5.5468C80.3701 4.83743 81.5306 4.48276 82.8269 4.48276C83.8499 4.48276 84.6688 4.6601 85.2827 5.07388C85.8967 5.48767 86.2374 6.13794 86.2374 7.02463L86.2374 11.399ZM82.4854 10.3941C83.236 10.3941 83.7816 10.2167 84.1232 9.80295L84.1232 8.97537C83.7816 8.56157 83.236 8.38423 82.4854 8.38423C82.0763 8.38423 81.7347 8.50246 81.3939 8.67979C81.1207 8.85713 80.9841 9.09358 80.9841 9.44826C80.9841 9.74384 81.1207 9.9803 81.3939 10.1576C81.6664 10.2758 82.0763 10.3941 82.4854 10.3941ZM87.5337 11.5763L87.5337 10.0985C87.8752 10.0985 88.1486 9.92119 88.2843 9.62561C88.4893 9.27094 88.6259 8.73892 88.7626 7.91133L89.2399 4.60098L95.5846 4.60098L95.5846 11.399L93.5377 11.399L93.5377 6.13794L91.0135 6.13794L90.7411 8.08867C90.6045 9.27094 90.2629 10.1576 89.7173 10.7488C89.2399 11.2808 88.4893 11.5763 87.5337 11.5763ZM96.9492 11.5763L96.9492 10.0985C97.2908 10.0985 97.5631 9.92119 97.6997 9.62561C97.9047 9.27094 98.0414 8.73892 98.1771 7.91133L98.6553 4.60098L105 4.60098L105 11.399L102.953 11.399L102.953 6.13794L100.429 6.13794L100.156 8.08867C100.02 9.27094 99.6783 10.1576 99.1327 10.7488C98.7236 11.2808 97.973 11.5763 96.9492 11.5763Z" fill="#1E8F38" fill-opacity="1.000000" fill-rule="nonzero"/>
		<path id="Vector" d="M40.3871 19.7234L39.4893 19.7234L39.4893 16.2128L37.9008 19.7234L37.4865 19.7234L35.8978 16.2128L35.8978 19.7234L35 19.7234L35 15L36.2432 15L37.6245 18.1276L39.0059 15L40.249 15L40.249 19.7234L40.3871 19.7234ZM43.1498 19.7872C42.5973 19.7872 42.1138 19.5957 41.7686 19.2766C41.4231 18.9574 41.2159 18.5106 41.2159 18C41.2159 17.4893 41.4231 17.1063 41.7686 16.7234C42.1138 16.4043 42.5973 16.2128 43.1498 16.2128C43.7023 16.2128 44.1167 16.4043 44.4622 16.7234C44.8074 17.0426 44.9456 17.4893 44.9456 18.0639L44.9456 18.2553L42.0447 18.2553C42.0447 18.5106 42.1829 18.7659 42.3901 18.9574C42.5973 19.1489 42.8735 19.2128 43.2189 19.2128C43.4261 19.2128 43.5642 19.1489 43.7714 19.0851C43.9786 19.0213 44.1167 18.9574 44.2549 18.8298L44.6002 19.3404C44.2549 19.6596 43.7714 19.7872 43.1498 19.7872ZM44.1167 17.7447C44.1167 17.4893 43.9786 17.2978 43.8405 17.1063C43.6333 16.9149 43.4261 16.8511 43.0807 16.8511C42.7355 16.8511 42.5282 16.9149 42.321 17.1063C42.1139 17.2978 42.0447 17.4893 42.0447 17.7447L44.1167 17.7447ZM45.3599 20.617L45.3599 19.1489C45.5671 19.0851 45.6362 19.0213 45.7743 18.8936C45.8434 18.7659 45.9125 18.4468 45.9814 18L46.1887 16.3404L49.0204 16.3404L49.0204 19.0851L49.4348 19.0851L49.4348 20.617L48.6061 20.617L48.6061 19.7234L46.1198 19.7234L46.1198 20.617L45.3599 20.617ZM46.8794 16.9149L46.7413 18C46.6721 18.4468 46.5341 18.7659 46.2578 19.0213L48.1917 19.0213L48.1917 16.9149L46.8794 16.9149ZM50.8853 19.7234L50.1255 19.7234L50.1255 16.2766L50.9543 16.2766L50.9543 18.5745L52.6809 16.2766L53.5096 16.2766L53.5096 19.7234L52.6809 19.7234L52.6809 17.3617L50.8853 19.7234ZM57.3774 20.617L57.3774 19.7234L54.4767 19.7234L54.4767 16.2766L55.3055 16.2766L55.3055 19.0213L57.0321 19.0213L57.0321 16.2766L57.8608 16.2766L57.8608 19.0213L58.2753 19.0213L58.2753 20.5532L57.3774 20.5532L57.3774 20.617ZM59.5875 19.7234L58.8279 19.7234L58.8279 16.2766L59.6566 16.2766L59.6566 18.5745L61.3833 16.2766L62.2122 16.2766L62.2122 19.7234L61.3833 19.7234L61.3833 17.3617L59.5875 19.7234ZM64.0078 19.7234L63.179 19.7234L63.179 16.2766L64.0078 16.2766L64.0078 17.617L65.7345 17.617L65.7345 16.2766L66.5632 16.2766L66.5632 19.7234L65.7345 19.7234L65.7345 18.3191L64.0078 18.3191L64.0078 19.7234ZM69.2568 19.7872C68.7043 19.7872 68.2208 19.5957 67.8755 19.2766C67.5302 18.9574 67.3229 18.5106 67.3229 18C67.3229 17.4893 67.5302 17.0426 67.8755 16.7234C68.2208 16.4043 68.7043 16.2128 69.2568 16.2128C69.8784 16.2128 70.3619 16.4043 70.7073 16.8511L70.1547 17.2978C69.9475 17.0426 69.6713 16.9149 69.3259 16.9149C68.9806 16.9149 68.7043 17.0426 68.4971 17.2341C68.2899 17.4255 68.2208 17.7447 68.2208 18.0639C68.2208 18.383 68.2899 18.7021 68.4971 18.8936C68.7043 19.0851 68.9806 19.2128 69.3259 19.2128C69.6713 19.2128 69.9475 19.0851 70.1547 18.8298L70.7073 19.2766C70.3619 19.5957 69.8784 19.7872 69.2568 19.7872ZM74.8512 19.7234L73.8152 19.7234L72.7101 18.3191L72.2267 18.8298L72.2267 19.7234L71.3979 19.7234L71.3979 16.2766L72.2267 16.2766L72.2267 17.9361L73.8843 16.2766L74.8512 16.2766L73.3318 17.8085L74.8512 19.7234ZM76.1631 19.7234L75.4037 19.7234L75.4037 16.2766L76.2324 16.2766L76.2324 18.5745L77.9592 16.2766L78.7876 16.2766L78.7876 19.7234L77.9592 19.7234L77.9592 17.3617L76.1631 19.7234ZM80.5144 19.7234L79.7545 19.7234L79.7545 16.2766L80.5837 16.2766L80.5837 18.5745L82.3105 16.2766L83.1388 16.2766L83.1388 19.7234L82.3105 19.7234L82.3105 17.3617L80.5144 19.7234ZM82.7939 15.3191C82.4482 15.7659 82.0341 15.9574 81.4813 15.9574C80.9294 15.9574 80.4459 15.7659 80.1002 15.3191L80.4459 15.0638C80.7214 15.383 80.9978 15.5106 81.4128 15.5106C81.827 15.5106 82.1719 15.383 82.3799 15.0638L82.7939 15.3191ZM89.0099 20.617L89.0099 19.7234L86.109 19.7234L86.109 16.2766L86.9374 16.2766L86.9374 19.0213L88.6642 19.0213L88.6642 16.2766L89.4933 16.2766L89.4933 19.0213L89.9075 19.0213L89.9075 20.5532L89.0099 20.5532L89.0099 20.617ZM92.1871 19.7872C91.6343 19.7872 91.1509 19.5957 90.8052 19.2766C90.4603 18.9574 90.2532 18.5106 90.2532 18C90.2532 17.4893 90.4603 17.1063 90.8052 16.7234C91.1509 16.4043 91.6343 16.2128 92.1871 16.2128C92.739 16.2128 93.1541 16.4043 93.4989 16.7234C93.8446 17.0426 93.9824 17.4893 93.9824 18.0639L93.9824 18.2553L91.1509 18.2553C91.1509 18.5106 91.2886 18.7659 91.4957 18.9574C91.7036 19.1489 91.98 19.2128 92.325 19.2128C92.532 19.2128 92.6707 19.1489 92.8777 19.0851C93.0847 19.0213 93.2225 18.9574 93.3612 18.8298L93.7061 19.3404C93.2919 19.6596 92.8083 19.7872 92.1871 19.7872ZM93.1541 17.7447C93.1541 17.4893 93.0155 17.2978 92.8777 17.1063C92.6707 16.9149 92.4626 16.8511 92.1178 16.8511C91.7721 16.8511 91.5651 16.9149 91.3579 17.1063C91.1509 17.2978 91.0815 17.4893 91.0815 17.7447L93.1541 17.7447ZM95.5706 19.7234L94.7423 19.7234L94.7423 16.2766L95.5706 16.2766L95.5706 17.617L97.2975 17.617L97.2975 16.2766L98.1266 16.2766L98.1266 19.7234L97.2975 19.7234L97.2975 18.3191L95.5706 18.3191L95.5706 19.7234ZM100.613 19.7234L99.7842 19.7234L99.7842 16.9787L98.7478 16.9787L98.7478 16.3404L101.649 16.3404L101.649 16.9787L100.613 16.9787L100.613 19.7234ZM104.343 19.7872C103.859 19.7872 103.445 19.5957 103.168 19.2128L103.168 21L102.339 21L102.339 16.2766L103.168 16.2766L103.168 16.7234C103.445 16.3404 103.859 16.1489 104.343 16.1489C104.826 16.1489 105.24 16.3404 105.516 16.6596C105.793 16.9787 106 17.4255 106 18C106 18.5745 105.862 19.0213 105.516 19.3404C105.171 19.6596 104.826 19.7872 104.343 19.7872ZM104.066 19.1489C104.412 19.1489 104.619 19.0213 104.826 18.8298C105.033 18.6383 105.102 18.3191 105.102 18C105.102 17.6808 105.033 17.3617 104.826 17.1702C104.619 16.9787 104.412 16.8511 104.066 16.8511C103.859 16.8511 103.721 16.9149 103.513 16.9787C103.306 17.0426 103.168 17.1702 103.099 17.2978L103.099 18.6383C103.168 18.7659 103.306 18.8936 103.513 18.9574C103.721 19.0213 103.859 19.1489 104.066 19.1489Z" fill="#2C4A99" fill-opacity="1.000000" fill-rule="nonzero"/>
		<rect id="Текст" rx="5.000000" width="106.000000" height="19.000000" transform="translate(0.000000 26.000000)" fill="#3BB9EC" fill-opacity="1.000000"/>
		<path id="24/7." d="M28.7191 31.3853L29.847 31.3853L27.5032 40.0938L26.3753 40.0938L28.7191 31.3853ZM19.1323 39L14.147 39L14.147 38.0479L16.6714 35.5723C17.3892 34.8447 17.7578 34.4126 17.7578 33.8047C17.7578 33.1187 17.2427 32.6963 16.5493 32.6963C15.8267 32.6963 15.3579 33.1626 15.3579 33.9048L14.103 33.9048C14.103 32.5229 15.126 31.627 16.5688 31.627C18.0312 31.627 19.0225 32.5181 19.0225 33.7363C19.0225 34.5566 18.6318 35.2183 17.2183 36.5757L15.9634 37.8501L15.9634 37.8989L19.1323 37.8989L19.1323 39ZM23.5426 37.6499L20.0734 37.6499L20.0734 36.6025L23.1593 31.7271L24.7999 31.7271L24.7999 36.5684L25.7301 36.5684L25.7301 37.6499L24.7999 37.6499L24.7999 39L23.5426 39L23.5426 37.6499ZM32.2824 39L30.9152 39L34.0085 32.877L34.0085 32.8281L30.4172 32.8281L30.4172 31.7271L35.3708 31.7271L35.3708 32.8525L32.2824 39ZM21.4235 36.5684L23.5573 36.5684L23.5573 33.2188L23.5011 33.2188L21.4235 36.5098L21.4235 36.5684ZM36.856 38.2969C36.8512 38.729 36.4947 39.0781 36.0748 39.0781C35.6402 39.0781 35.2887 38.729 35.2935 38.2969C35.2887 37.8696 35.6402 37.5229 36.0748 37.5229C36.4947 37.5229 36.8512 37.8696 36.856 38.2969Z" fill="#FFFFFF" fill-opacity="1.000000" fill-rule="evenodd"/>
		<path id="Анонимно" d="M47.1899 37.1104L47.8394 39L49.1992 39L46.5796 31.8296L45.1196 31.8296L42.5 39L43.8599 39L44.4995 37.1104L47.1899 37.1104ZM46.1206 33.79Q46.2012 34.0293 46.2402 34.1709L46.8604 36.0093L44.8511 36.0093L45.481 34.1709Q45.5103 34.0488 45.5786 33.8193Q45.6494 33.5898 45.7251 33.3311Q45.8008 33.0698 45.8496 32.8696Q45.8911 33.0405 45.9644 33.2969Q46.04 33.5508 46.1206 33.79ZM60.7499 38.2983Q61.3894 37.5701 61.3894 36.2803Q61.3894 35.3794 61.0598 34.7544Q60.8347 34.3274 60.4921 34.0406Q60.3333 33.9076 60.1492 33.8047Q60.121 33.7889 60.0925 33.7739Q59.5341 33.48 58.8211 33.48Q57.8876 33.48 57.2594 33.9178Q57.0792 34.0434 56.9241 34.2051Q56.9022 34.228 56.8809 34.2516Q56.2307 34.9729 56.2307 36.2803Q56.2307 37.1812 56.5603 37.811Q56.7922 38.2542 57.1474 38.5487Q57.297 38.6728 57.4685 38.7705Q57.5398 38.811 57.6135 38.8464Q58.1404 39.1001 58.7893 39.1001Q59.7044 39.1001 60.3276 38.6736Q60.5224 38.5403 60.6887 38.3652Q60.72 38.3324 60.7499 38.2983ZM94.9299 38.2983Q95.5694 37.5701 95.5694 36.2803Q95.5694 35.3794 95.2398 34.7544Q95.0147 34.3274 94.6721 34.0406Q94.5133 33.9076 94.3292 33.8047Q94.301 33.7889 94.2725 33.7739Q93.7141 33.48 93.0011 33.48Q92.0676 33.48 91.4394 33.9178Q91.2592 34.0434 91.1041 34.2051Q91.0822 34.228 91.0609 34.2516Q90.4107 34.9729 90.4107 36.2803Q90.4107 37.1812 90.7403 37.811Q90.9722 38.2542 91.3273 38.5487Q91.477 38.6728 91.6485 38.7705Q91.7198 38.811 91.7935 38.8464Q92.3203 39.1001 92.9693 39.1001Q93.8844 39.1001 94.5076 38.6736Q94.7024 38.5403 94.8687 38.3652Q94.9 38.3324 94.9299 38.2983ZM51.2803 35.731L51.2803 33.5801L50.0205 33.5801L50.0205 39L51.2803 39L51.2803 36.7002L53.6704 36.7002L53.6704 39L54.9302 39L54.9302 33.5801L53.6704 33.5801L53.6704 35.731L51.2803 35.731ZM63.9503 35.731L63.9503 33.5801L62.6905 33.5801L62.6905 39L63.9503 39L63.9503 36.7002L66.3404 36.7002L66.3404 39L67.6002 39L67.6002 33.5801L66.3404 33.5801L66.3404 35.731L63.9503 35.731ZM70.4095 36.6562Q70.429 36.3389 70.429 36.1606L70.429 33.5801L69.2206 33.5801L69.2206 39L70.7391 39L73.3807 34.9302Q73.3709 35.0693 73.349 35.3452Q73.3294 35.6211 73.3148 35.9263Q73.3001 36.229 73.3001 36.4512L73.3001 39L74.5111 39L74.5111 33.5801L72.9901 33.5801L70.3412 37.6597Q70.3509 37.54 70.3705 37.2568Q70.39 36.9712 70.4095 36.6562ZM82.5807 39L82.5807 33.5801L80.8693 33.5801L79.3703 37.5107L77.881 33.5801L76.1305 33.5801L76.1305 39L77.2902 39L77.2902 36.0801Q77.2902 35.709 77.2756 35.3892Q77.2609 35.0693 77.2389 34.7788L77.2707 34.7788L78.8698 39L79.839 39L81.4406 34.7788L81.4699 34.7788Q81.4211 35.3696 81.4211 36.041L81.4211 39L82.5807 39ZM85.4603 35.731L85.4603 33.5801L84.2005 33.5801L84.2005 39L85.4603 39L85.4603 36.7002L87.8504 36.7002L87.8504 39L89.1102 39L89.1102 33.5801L87.8504 33.5801L87.8504 35.731L85.4603 35.731ZM57.825 37.6108Q57.5198 37.1396 57.5198 36.2803Q57.5198 35.4209 57.825 34.9619Q57.915 34.8257 58.0368 34.7297Q58.3276 34.5005 58.7991 34.5005Q59.3082 34.5005 59.6078 34.751Q59.7149 34.8405 59.7952 34.9619Q60.1003 35.4209 60.1003 36.2803Q60.1003 37.1396 59.7952 37.6108Q59.7064 37.7471 59.5859 37.8438Q59.292 38.0796 58.8088 38.0796Q58.3299 38.0796 58.0369 37.8462Q57.9148 37.7488 57.825 37.6108ZM92.005 37.6108Q91.6998 37.1396 91.6998 36.2803Q91.6998 35.4209 92.005 34.9619Q92.095 34.8257 92.2168 34.7297Q92.5076 34.5005 92.9791 34.5005Q93.4882 34.5005 93.7878 34.751Q93.8949 34.8405 93.9752 34.9619Q94.2803 35.4209 94.2803 36.2803Q94.2803 37.1396 93.9752 37.6108Q93.8864 37.7471 93.7659 37.8438Q93.472 38.0796 92.9888 38.0796Q92.5099 38.0796 92.2169 37.8462Q92.0948 37.7488 92.005 37.6108Z" fill="#FFFFFF" fill-opacity="1.000000" fill-rule="evenodd"/>
	</g>
</svg>
