<svg width="216" height="50" viewBox="0 0 216 50" fill="none" xmlns="http://www.w3.org/2000/svg">
<path d="M43.6842 4.21051L36.9426 2.5L31.1449 8.02633L25.3472 2.5L18.6057 4.21051L14.1562 13.1579L17.6618 20.5263L31.2797 34.6052L44.8977 20.5263L48.4033 13.1579L43.6842 4.21051Z" fill="#1E8F38"/>
<path d="M16.9886 3.94664C14.0223 2.63085 11.1909 1.44665 8.22461 0.130859H25.483C22.6515 1.44665 19.8201 2.63085 16.9886 3.94664Z" fill="#1E8F38"/>
<path d="M5.39484 0.789062L15.3723 4.99956L0.810547 4.21008L5.39484 0.789062Z" fill="#1E8F38"/>
<path d="M11.1909 6.44746L8.22464 16.5791C8.22464 19.0791 8.08984 21.4474 8.08984 23.9474C12.1348 28.5527 16.1797 33.0264 20.2246 37.6317C20.3595 35.9212 20.3594 34.3422 20.4942 32.6317L22.2471 27.5001L17.528 22.2369L12.9437 15.2633C12.5392 15.0001 11.9999 14.6054 11.5954 14.3422C11.1909 14.6054 10.7864 14.8685 10.2471 15.2633C10.3819 15.658 10.3819 16.0527 10.3819 16.4475C11.9999 19.2106 13.6179 22.1054 15.2359 25.0001L15.101 25.9211C14.8313 25.7895 14.5617 25.5264 14.292 25.3948C12.6741 22.5001 11.1909 19.6053 9.70775 16.7106C9.70775 16.1843 9.70775 15.5264 9.70775 15.0001C10.2471 14.6054 10.9213 14.2106 11.4606 13.8159C11.9999 14.2106 12.5393 14.6054 13.2134 15.0001C13.4831 13.4211 13.7527 11.8422 14.1572 10.2632L13.3482 9.21063L13.0785 7.50008L11.1909 6.44746Z" fill="#1E8F38"/>
<path d="M0.808953 5.78906L0 14.7364L9.30329 6.57854L0.808953 5.78906Z" fill="#1E8F38"/>
<path d="M0.941406 15.9204L9.03127 8.68359C8.35711 11.1836 7.54816 13.8152 6.87401 16.3152C6.87401 18.552 7.0088 20.6573 7.0088 22.8941C4.98634 20.5257 2.96387 18.2889 0.941406 15.9204Z" fill="#1E8F38"/>
<path d="M34.7873 33.5527L31.1468 37.6317L27.5064 33.5527L26.4277 37.7632L31.1468 50.0001L35.8659 37.7632L34.7873 33.5527Z" fill="#1E8F38"/>
<path d="M22.9207 29.4746L21.5724 33.5536L21.3027 38.9483L27.2353 45.6588L24.269 37.2378L25.8869 31.843L22.9207 29.4746Z" fill="#1E8F38"/>
<path d="M45.1683 3.94664C48.1345 2.63085 50.966 1.44665 53.9323 0.130859H36.6738C39.5053 1.44665 42.3368 2.63085 45.1683 3.94664Z" fill="#1E8F38"/>
<path d="M56.7626 0.789062L46.9199 4.99956L61.4817 4.21008L56.7626 0.789062Z" fill="#1E8F38"/>
<path d="M50.9663 6.44747L53.9326 16.5791C53.9326 19.0791 54.0674 21.4474 54.0674 23.9474C50.0225 28.5527 45.9775 33.0264 42.0674 37.6317C41.9326 35.9212 41.9326 34.3422 41.7978 32.6317L40.0449 27.5001L44.764 22.2369L49.3483 15.2633C49.7528 15.0001 50.2921 14.6054 50.6966 14.3422C51.1011 14.6054 51.5056 14.8685 52.0449 15.2633C51.9101 15.658 51.9101 16.0527 51.9101 16.4475C50.2921 19.2106 48.6741 22.1054 47.0562 25.0001L47.191 25.9211C47.4607 25.7896 47.7303 25.5264 48 25.3948C49.618 22.5001 51.1011 19.6053 52.5843 16.7106C52.5843 16.1843 52.5843 15.5264 52.5843 15.0001C52.045 14.6054 51.3707 14.2106 50.8314 13.8159C50.2921 14.2106 49.7528 14.6054 49.0786 15.0001C48.809 13.4212 48.5393 11.8422 48.1348 10.2633L48.9438 9.21064L49.2135 7.50009L50.9663 6.44747Z" fill="#1E8F38"/>
<path d="M61.3499 5.78906L62.1588 14.7364L52.8555 6.57854L61.3499 5.78906Z" fill="#1E8F38"/>
<path d="M61.0781 15.9204L52.9883 8.68359C53.6624 11.1836 54.4714 13.8152 55.1455 16.3152C55.1455 18.552 55.0107 20.6573 55.0107 22.8941C57.168 20.5257 59.1905 18.2889 61.0781 15.9204Z" fill="#1E8F38"/>
<path d="M39.2365 29.4746L40.5848 33.5536L40.8545 38.9483L34.9219 45.6588L37.8882 37.2378L36.2702 31.843L39.2365 29.4746Z" fill="#1E8F38"/>
<path d="M36.5386 0.921028C34.651 0.65787 32.8982 0.263158 31.0105 0C29.1229 0.263158 27.3701 0.65787 25.4824 0.921028C27.3701 2.63155 29.1229 4.21053 31.0105 5.92105C32.8982 4.21053 34.7858 2.63155 36.5386 0.921028Z" fill="#1E8F38"/>
<path d="M20.7637 18.4205H25.8872L29.6626 9.73633L33.4378 22.1047L35.3254 17.7626L41.258 18.0258L35.5951 18.6837L33.1681 27.1048L29.3929 13.9469L26.6963 19.3416L20.7637 18.4205Z" fill="white"/>
<path d="M95.8663 26.3158H90.2034L83.7315 17.8947L82.1135 19.8684V26.3158H77.5293V5.39474H82.1135V14.7368L89.6641 5.39474H95.3269L86.8326 15.2632L95.8663 26.3158ZM106.653 26.7105C104.765 26.7105 103.147 25.921 101.799 24.3421V32.1052H97.754V11.1842H101.799V13.1579C103.012 11.5789 104.63 10.921 106.653 10.921C108.675 10.921 110.293 11.5789 111.642 13.0263C112.99 14.4737 113.529 16.3158 113.529 18.8158C113.529 21.3158 112.855 23.2894 111.642 24.6052C110.428 26.0526 108.81 26.7105 106.653 26.7105ZM105.439 23.1579C106.653 23.1579 107.597 22.7631 108.271 21.9737C108.945 21.1842 109.349 20.1316 109.349 18.8158C109.349 17.5 108.945 16.4474 108.271 15.6579C107.597 14.8684 106.653 14.4737 105.439 14.4737C104.765 14.4737 104.091 14.6053 103.417 15C102.743 15.3947 102.203 15.7895 101.934 16.1842V21.5789C102.338 22.1052 102.743 22.5 103.417 22.7631C104.091 23.0263 104.765 23.1579 105.439 23.1579ZM120.54 26.3158H116.63V11.1842H120.675V20.3947L127.147 11.1842H131.327V26.3158H127.282V16.8421L120.54 26.3158ZM142.518 26.7105C140.091 26.7105 138.203 25.9211 136.585 24.4737C135.102 23.0263 134.293 21.0526 134.293 18.6842C134.293 16.3158 135.102 14.4737 136.585 13.0263C138.068 11.5789 140.091 10.7894 142.518 10.7894C145.214 10.7894 147.372 11.7105 148.72 13.5526L146.023 16.0526C145.214 15 144.136 14.4737 142.788 14.4737C141.574 14.4737 140.495 14.8684 139.686 15.6579C138.877 16.4474 138.473 17.5 138.473 18.8158C138.473 20.1316 138.877 21.1842 139.686 21.9737C140.495 22.7631 141.439 23.1579 142.788 23.1579C144.136 23.1579 145.214 22.6316 146.023 21.5789L148.72 23.9473C147.372 25.7894 145.349 26.7105 142.518 26.7105ZM158.428 26.3158H154.248V14.6053H149.934V11.0526H162.742V14.6053H158.428V26.3158ZM178.787 26.3158H174.742V24.7368C173.664 26.0526 172.046 26.7105 169.754 26.7105C168.405 26.7105 167.057 26.3158 165.978 25.3947C164.9 24.4737 164.361 23.2895 164.361 21.7105C164.361 20.1316 164.9 18.8158 165.978 18.0263C167.057 17.2368 168.405 16.8421 169.754 16.8421C171.911 16.8421 173.664 17.5 174.742 18.6842V16.5789C174.742 15.7895 174.473 15.1316 173.799 14.7368C173.125 14.2105 172.315 14.0789 171.372 14.0789C169.619 14.0789 168.136 14.7368 166.787 15.9211L165.304 13.2895C167.192 11.7105 169.484 10.921 172.046 10.921C174.068 10.921 175.686 11.3158 176.9 12.2368C178.113 13.1579 178.787 14.6053 178.787 16.5789V26.3158ZM171.372 24.0789C172.855 24.0789 173.934 23.6842 174.608 22.7631V20.921C173.934 20 172.855 19.6052 171.372 19.6052C170.563 19.6052 169.889 19.8684 169.214 20.2631C168.675 20.6579 168.405 21.1842 168.405 21.9737C168.405 22.6315 168.675 23.1579 169.214 23.5526C169.754 23.8158 170.563 24.0789 171.372 24.0789ZM181.349 26.7105V23.421C182.023 23.421 182.563 23.0263 182.832 22.3684C183.237 21.5789 183.506 20.3947 183.776 18.5526L184.72 11.1842H197.259V26.3158H193.214V14.6053H188.226L187.686 18.9474C187.417 21.5789 186.742 23.5526 185.664 24.8684C184.72 26.0526 183.237 26.7105 181.349 26.7105ZM199.956 26.7105V23.421C200.63 23.421 201.169 23.0263 201.439 22.3684C201.844 21.5789 202.113 20.3947 202.383 18.5526L203.327 11.1842H215.866V26.3158H211.821V14.6053H206.832L206.293 18.9474C206.023 21.5789 205.349 23.5526 204.27 24.8684C203.462 26.0526 201.978 26.7105 199.956 26.7105Z" fill="#1E8F38"/>
<path d="M87.9113 44.0786H86.1586V36.8418L83.0575 44.0786H82.2485L79.1473 36.8418V44.0786H77.3945V34.3418H79.8215L82.5181 40.7892L85.2147 34.3418H87.6417V44.0786H87.9113ZM93.3046 44.2102C92.2259 44.2102 91.2821 43.8155 90.608 43.1576C89.9338 42.4997 89.5293 41.5786 89.5293 40.526C89.5293 39.4733 89.9338 38.6839 90.608 37.8944C91.2821 37.2365 92.2259 36.8418 93.3046 36.8418C94.3832 36.8418 95.1922 37.2365 95.8664 37.8944C96.5406 38.5523 96.8102 39.4734 96.8102 40.6576V41.0523H91.1473C91.1473 41.5786 91.417 42.1049 91.8215 42.4997C92.226 42.8944 92.7653 43.026 93.4395 43.026C93.844 43.026 94.1136 42.8944 94.5181 42.7628C94.9226 42.6313 95.1923 42.4997 95.4619 42.2365L96.1361 43.2891C95.4619 43.947 94.5181 44.2102 93.3046 44.2102ZM95.1922 39.9997C95.1922 39.4734 94.9226 39.0786 94.6529 38.6839C94.2484 38.2891 93.8439 38.1576 93.1698 38.1576C92.4956 38.1576 92.0912 38.2891 91.6867 38.6839C91.2822 39.0786 91.1473 39.4734 91.1473 39.9997H95.1922ZM97.6192 45.9207V42.8944C98.0237 42.7628 98.1586 42.6312 98.4282 42.3681C98.5631 42.1049 98.6979 41.447 98.8327 40.526L99.2372 37.1049H104.765V42.7628H105.574V45.9207H103.956V44.0786H99.1024V45.9207H97.6192ZM100.585 38.2892L100.316 40.526C100.181 41.447 99.9113 42.1049 99.372 42.6313H103.147V38.2892H100.585ZM108.406 44.0786H106.923V36.9734H108.541V41.7102L111.911 36.9734H113.529V44.0786H111.911V39.2102L108.406 44.0786ZM121.08 45.9207V44.0786H115.417V36.9734H117.035V42.6313H120.406V36.9734H122.024V42.6313H122.833V45.7891H121.08V45.9207ZM125.394 44.0786H123.911V36.9734H125.529V41.7102L128.9 36.9734H130.518V44.0786H128.9V39.2102L125.394 44.0786ZM134.024 44.0786H132.406V36.9734H134.024V39.7365H137.394V36.9734H139.012V44.0786H137.394V41.1839H134.024V44.0786ZM144.271 44.2102C143.192 44.2102 142.248 43.8155 141.574 43.1576C140.9 42.4997 140.495 41.5786 140.495 40.526C140.495 39.4733 140.9 38.5523 141.574 37.8944C142.248 37.2365 143.192 36.8418 144.271 36.8418C145.484 36.8418 146.428 37.2365 147.102 38.1576L146.023 39.0786C145.619 38.5523 145.08 38.2892 144.406 38.2892C143.731 38.2892 143.192 38.5523 142.788 38.9471C142.383 39.3418 142.248 39.9997 142.248 40.6576C142.248 41.3155 142.383 41.9733 142.788 42.3681C143.192 42.7628 143.731 43.026 144.406 43.026C145.08 43.026 145.619 42.7628 146.023 42.2365L147.102 43.1576C146.428 43.8155 145.484 44.2102 144.271 44.2102ZM155.192 44.0786H153.17L151.012 41.1839L150.068 42.2365V44.0786H148.451V36.9734H150.068V40.3944L153.304 36.9734H155.192L152.226 40.1313L155.192 44.0786ZM157.754 44.0786H156.271V36.9734H157.889V41.7102L161.259 36.9734H162.877V44.0786H161.259V39.2102L157.754 44.0786ZM166.248 44.0786H164.765V36.9734H166.383V41.7102L169.754 36.9734H171.372V44.0786H169.754V39.2102L166.248 44.0786ZM170.698 34.9997C170.023 35.9207 169.214 36.3155 168.136 36.3155C167.057 36.3155 166.113 35.9207 165.439 34.9997L166.113 34.4733C166.653 35.1312 167.192 35.3944 168.001 35.3944C168.81 35.3944 169.484 35.1312 169.889 34.4733L170.698 34.9997ZM182.832 45.9207V44.0786H177.17V36.9734H178.788V42.6313H182.158V36.9734H183.776V42.6313H184.585V45.7891H182.832V45.9207ZM189.035 44.2102C187.956 44.2102 187.012 43.8155 186.338 43.1576C185.664 42.4997 185.259 41.5786 185.259 40.526C185.259 39.4733 185.664 38.6839 186.338 37.8944C187.012 37.2365 187.956 36.8418 189.035 36.8418C190.113 36.8418 190.922 37.2365 191.596 37.8944C192.271 38.5523 192.54 39.4734 192.54 40.6576V41.0523H187.012C187.012 41.5786 187.282 42.1049 187.686 42.4997C188.091 42.8944 188.63 43.026 189.304 43.026C189.709 43.026 189.978 42.8944 190.383 42.7628C190.787 42.6313 191.057 42.4997 191.327 42.2365L192.001 43.2891C191.192 43.947 190.248 44.2102 189.035 44.2102ZM190.922 39.9997C190.922 39.4734 190.653 39.0786 190.383 38.6839C189.978 38.2891 189.574 38.1576 188.9 38.1576C188.226 38.1576 187.821 38.2891 187.417 38.6839C187.012 39.0786 186.877 39.4734 186.877 39.9997H190.922ZM195.641 44.0786H194.023V36.9734H195.641V39.7365H199.012V36.9734H200.63V44.0786H199.012V41.1839H195.641V44.0786ZM205.484 44.0786H203.866V38.4207H201.844V37.1049H207.507V38.4207H205.484V44.0786ZM212.765 44.2102C211.821 44.2102 211.012 43.8154 210.473 43.026V46.7102H208.855V36.9734H210.473V37.8944C211.012 37.1049 211.821 36.7102 212.765 36.7102C213.709 36.7102 214.518 37.1049 215.057 37.7628C215.596 38.4207 216.001 39.3418 216.001 40.526C216.001 41.7102 215.731 42.6313 215.057 43.2891C214.383 43.947 213.709 44.2102 212.765 44.2102ZM212.226 42.8944C212.9 42.8944 213.304 42.6313 213.709 42.2365C214.113 41.8418 214.248 41.1839 214.248 40.526C214.248 39.8681 214.113 39.2102 213.709 38.8155C213.304 38.4207 212.9 38.1576 212.226 38.1576C211.821 38.1576 211.551 38.2891 211.147 38.4207C210.742 38.5523 210.473 38.8154 210.338 39.0786V41.8418C210.473 42.1049 210.742 42.3681 211.147 42.4997C211.551 42.6312 211.821 42.8944 212.226 42.8944Z" fill="#2C4A99"/>
</svg>
