<svg width="70" height="70" viewBox="0 0 70 70" fill="none" xmlns="http://www.w3.org/2000/svg">
<rect width="70" height="70" rx="10" fill="#ECF5FA"/>
<path opacity="0.98" fill-rule="evenodd" clip-rule="evenodd" d="M39.1759 15.6797C40.1299 15.6797 41.0837 15.6797 42.0377 15.6797C46.5951 16.2847 50.0719 18.544 52.4679 22.4575C53.3999 24.1365 53.9899 25.9187 54.2377 27.8044C54.2377 28.7834 54.2377 29.7624 54.2377 30.7414C53.3419 36.5704 50.1036 40.4487 44.5229 42.3766C39.8918 43.6143 35.6996 42.7608 31.9463 39.8161C31.8961 39.7658 31.8459 39.7658 31.7957 39.8161C30.9537 40.6455 30.1253 41.4865 29.3105 42.3389C29.8115 42.8775 30.3261 43.4047 30.8544 43.9204C30.9046 43.9957 30.9046 44.071 30.8544 44.1463C27.7541 47.2465 24.654 50.3467 21.5538 53.4469C21.0609 53.7938 20.5337 54.0574 19.9723 54.2377C19.4702 54.2377 18.9682 54.2377 18.4661 54.2377C17.0101 53.836 16.0813 52.9072 15.6797 51.4512C15.6797 50.9492 15.6797 50.4472 15.6797 49.9451C15.86 49.3836 16.1236 48.8565 16.4704 48.3636C19.5706 45.2634 22.6708 42.1632 25.771 39.063C25.8463 39.0128 25.9216 39.0128 25.997 39.063C26.5127 39.5913 27.0398 40.1059 27.5784 40.6068C28.4309 39.792 29.2718 38.9637 30.1013 38.1216C30.1515 38.0714 30.1515 38.0212 30.1013 37.971C27.1564 34.217 26.3029 30.0248 27.5408 25.3945C29.4686 19.8138 33.347 16.5755 39.1759 15.6797ZM39.6278 20.2735C43.5487 20.056 46.5233 21.6124 48.5519 24.9426C50.2468 28.4264 49.9706 31.74 47.7235 34.8834C45.2067 37.8058 42.0564 38.8475 38.2722 38.0087C34.579 36.8258 32.3825 34.3281 31.6828 30.5155C31.3266 26.6337 32.7701 23.6339 36.013 21.5161C37.1523 20.8812 38.3573 20.467 39.6278 20.2735Z" fill="#3AB8EE"/>
<path opacity="0.975" fill-rule="evenodd" clip-rule="evenodd" d="M39.7786 22.4579C42.6795 22.2705 44.9262 23.375 46.5187 25.7715C47.9438 28.539 47.743 31.1748 45.9162 33.6789C43.7461 36.0006 41.1479 36.6658 38.1218 35.6745C35.3929 34.424 33.9369 32.2902 33.7539 29.2733C34.0786 25.4978 36.0867 23.226 39.7786 22.4579Z" fill="#03399E"/>
</svg>
