<svg width="70" height="70" viewBox="0 0 70 70" fill="none" xmlns="http://www.w3.org/2000/svg">
<rect width="70" height="70" rx="10" fill="#ECF5FA"/>
<g clip-path="url(#clip0_507_1630)">
<path fill-rule="evenodd" clip-rule="evenodd" d="M34.1387 13.959C34.6856 13.959 35.2324 13.959 35.7793 13.959C37.1792 14.3328 38.1636 15.1941 38.7324 16.543C39.8262 16.5703 40.92 16.5977 42.0137 16.625C42.3828 16.7754 42.6426 17.0352 42.793 17.4043C42.8477 19.4824 42.8477 21.5605 42.793 23.6387C42.6426 24.0078 42.3828 24.2676 42.0137 24.418C37.3106 24.4727 32.6074 24.4727 27.9043 24.418C27.5352 24.2676 27.2754 24.0078 27.125 23.6387C27.0703 21.5605 27.0703 19.4824 27.125 17.4043C27.2754 17.0352 27.5352 16.7754 27.9043 16.625C28.998 16.5977 30.0918 16.5703 31.1856 16.543C31.7545 15.1941 32.7388 14.3328 34.1387 13.959Z" fill="#03399E"/>
<path opacity="0.993" fill-rule="evenodd" clip-rule="evenodd" d="M48.7402 55.9582C39.5527 55.9582 30.3652 55.9582 21.1777 55.9582C20.1673 55.6724 19.5247 55.0161 19.25 53.9895C19.1953 43.052 19.1953 32.1145 19.25 21.177C19.5098 20.1516 20.1523 19.509 21.1777 19.2493C22.2711 19.2083 23.3649 19.1946 24.459 19.2082C24.4283 20.7694 24.4693 22.328 24.582 23.884C25.1102 25.834 26.3816 26.8867 28.3965 27.0422C32.7715 27.0969 37.1465 27.0969 41.5215 27.0422C43.5363 26.8867 44.8078 25.834 45.3359 23.884C45.4487 22.328 45.4897 20.7694 45.459 19.2082C46.553 19.1946 47.6468 19.2083 48.7402 19.2493C49.7656 19.509 50.4082 20.1516 50.668 21.177C50.7227 32.1145 50.7227 43.052 50.668 53.9895C50.3932 55.0161 49.7507 55.6724 48.7402 55.9582ZM33.2363 29.7903C34.6526 29.7703 35.1311 30.4266 34.6719 31.759C32.8262 33.6047 30.9805 35.4504 29.1348 37.2961C28.6426 37.5695 28.1504 37.5695 27.6582 37.2961C26.6875 36.3255 25.7168 35.3547 24.7461 34.384C24.3176 33.5332 24.5227 32.8907 25.3613 32.4563C25.7666 32.3709 26.1493 32.4256 26.5098 32.6204C27.1113 33.2219 27.7129 33.8235 28.3145 34.425C28.3692 34.4798 28.4238 34.4798 28.4785 34.425C30.0309 32.8315 31.6168 31.2865 33.2363 29.7903ZM38.8965 32.3332C40.7868 32.2966 42.6735 32.3376 44.5566 32.4563C45.2433 32.777 45.503 33.3102 45.3359 34.0559C45.1226 34.5935 44.7261 34.8806 44.1465 34.9172C42.2563 34.9949 40.3696 34.9676 38.4863 34.8352C37.7996 34.5145 37.5399 33.9813 37.707 33.2356C37.9384 32.7043 38.335 32.4035 38.8965 32.3332ZM33.2363 40.2903C34.6526 40.2703 35.1311 40.9266 34.6719 42.259C32.8262 44.1047 30.9805 45.9504 29.1348 47.7961C28.6426 48.0695 28.1504 48.0695 27.6582 47.7961C26.6875 46.8255 25.7168 45.8547 24.7461 44.884C24.3176 44.0332 24.5227 43.3907 25.3613 42.9563C25.7666 42.8709 26.1493 42.9256 26.5098 43.1204C27.1113 43.7219 27.7129 44.3235 28.3145 44.925C28.3692 44.9798 28.4238 44.9798 28.4785 44.925C30.0309 43.3315 31.6168 41.7865 33.2363 40.2903ZM38.8965 42.8333C40.7868 42.7966 42.6735 42.8376 44.5566 42.9563C45.2433 43.277 45.503 43.8102 45.3359 44.5559C45.1226 45.0935 44.7261 45.3806 44.1465 45.4172C42.2563 45.4949 40.3696 45.4676 38.4863 45.3352C37.7996 45.0145 37.5399 44.4813 37.707 43.7356C37.9384 43.2043 38.335 42.9035 38.8965 42.8333Z" fill="#3AB8EE"/>
</g>
<defs>
<clipPath id="clip0_507_1630">
<rect width="42" height="42" fill="white" transform="translate(14 14)"/>
</clipPath>
</defs>
</svg>
