<svg width="70" height="70" viewBox="0 0 70 70" fill="none" xmlns="http://www.w3.org/2000/svg">
<rect width="70" height="70" rx="10" fill="#ECF5FA"/>
<path d="M56 26.5742V49.3242C56 51.2578 54.4336 52.8242 52.5 52.8242H17.5C15.5664 52.8242 14 51.2578 14 49.3242V26.5742C14 24.6406 15.5664 23.0742 17.5 23.0742H20.125V25.6992H25.375V23.0742H44.625V25.6992H49.875V23.0742H52.5C54.4336 23.0742 56 24.6406 56 26.5742ZM42.875 40.2492V35.6492H37.3V30.0742H32.7V35.6492H27.125V40.2492H32.7V45.8242H37.3V40.2492H42.875Z" fill="#3AB8EE"/>
<path d="M49 21.875H45.5C45.5 20.9039 44.7125 20.125 43.75 20.125H26.25C25.2875 20.125 24.5 20.9039 24.5 21.875H21C21 18.9789 23.3539 16.625 26.25 16.625H43.75C46.6461 16.625 49 18.9789 49 21.875Z" fill="#03399E"/>
</svg>
