<svg width="70" height="70" viewBox="0 0 70 70" fill="none" xmlns="http://www.w3.org/2000/svg">
<rect width="70" height="70" rx="10" fill="#ECF5FA"/>
<g clip-path="url(#clip0_507_1613)">
<path d="M30.9976 14.1395C30.6366 14.3117 30.3905 14.6809 30.3495 15.091C30.3003 15.575 31.2437 20.8824 31.4323 21.1613C31.58 21.3992 32.1624 21.7109 32.4413 21.7109C32.9499 21.7109 33.5569 21.2023 33.6472 20.702C33.721 20.3 32.753 14.8367 32.5562 14.5742C32.1542 14.041 31.5472 13.8688 30.9976 14.1395Z" fill="#2B4999"/>
<path d="M38.1334 14.3366C37.8217 14.4022 37.428 14.7385 37.3049 15.0584C37.2557 15.1733 37.0178 16.4448 36.7717 17.8721C36.2877 20.7022 36.2795 20.8088 36.6897 21.2928C37.2229 21.9245 38.3713 21.7522 38.6748 20.9975C38.8307 20.612 39.692 15.5342 39.6428 15.2881C39.5115 14.6237 38.8225 14.1889 38.1334 14.3366Z" fill="#2B4999"/>
<path d="M44.3935 16.8224C44.2623 16.8798 44.0654 17.0192 43.967 17.1259C43.8767 17.2325 43.2123 18.3317 42.5068 19.5622C41.0959 22.0067 41.0056 22.2446 41.301 22.7778C41.6537 23.4177 42.4658 23.6392 43.0482 23.2454C43.4584 22.9665 46.0752 18.4384 46.0752 17.9954C46.0752 17.0849 45.181 16.4532 44.3935 16.8224Z" fill="#2B4999"/>
<path d="M20.3987 19.0042C17.987 19.4882 15.8952 19.9557 15.7557 20.0296C15.2717 20.2921 15.001 21.096 15.2389 21.5718C15.2882 21.6702 15.7885 22.2116 16.3382 22.7776L17.3553 23.803L17.019 24.3362C15.887 26.1737 14.8698 28.7741 14.4268 30.9397C14.1069 32.4737 14.0413 33.2038 14.0495 35.0823C14.0495 37.2151 14.1643 38.1995 14.6565 40.1354C15.0585 41.7104 15.4194 42.6948 16.1823 44.237C18.2085 48.3796 21.6128 51.7839 25.7717 53.8264C27.3057 54.5811 28.2901 54.9421 29.8651 55.344C31.8175 55.8362 32.7854 55.951 34.9592 55.951C37.8878 55.9593 40.0862 55.5573 42.6292 54.5483C47.4936 52.6288 51.5378 48.9046 53.8182 44.237C55.1471 41.5382 55.8362 38.8557 55.9757 35.919C56.0167 34.869 56.0085 34.7706 55.8444 34.4507C55.5409 33.8436 55.2784 33.7698 53.5393 33.7698C52.2186 33.7698 52.0217 33.7862 51.7346 33.9339C51.2999 34.1553 51.0784 34.5901 51.0784 35.2382C51.0784 35.96 50.9307 37.2971 50.7421 38.1913C49.8807 42.3913 47.346 46.0909 43.6956 48.4698C36.928 52.8913 27.962 51.546 22.7284 45.3116C20.3823 42.5225 19.1108 39.2495 18.9467 35.6155C18.8483 33.2448 19.2995 30.9643 20.3495 28.6018C20.9565 27.2483 20.8335 27.2811 21.8178 28.2491C22.2772 28.7003 22.7366 29.1186 22.835 29.1678C23.2944 29.4057 24.0901 29.1514 24.369 28.6757C24.4921 28.4624 26.305 19.6932 26.305 19.2995C26.305 19.2093 26.2311 18.9796 26.1327 18.7909C25.944 18.3971 25.4518 18.0936 25.0253 18.11C24.894 18.1182 22.8104 18.5202 20.3987 19.0042Z" fill="#3AB8EE"/>
<path d="M49.544 21.2434C49.1585 21.4648 45.3933 24.6969 45.2456 24.9348C44.7944 25.6895 45.3933 26.7148 46.2956 26.7148C46.4925 26.7148 46.755 26.6574 46.878 26.6C47.2636 26.3867 50.9386 23.2449 51.1354 22.9496C51.644 22.1949 51.037 21.1285 50.1019 21.1367C49.8968 21.1449 49.6425 21.1859 49.544 21.2434Z" fill="#2B4999"/>
<path d="M50.8326 27.9289C49.5037 28.4211 48.3307 28.8641 48.2322 28.9133C47.9533 29.0609 47.7154 29.4547 47.6662 29.8484C47.5842 30.5211 48.142 31.1445 48.8393 31.1445C49.3643 31.1445 54.0483 29.4301 54.3682 29.1266C55.1311 28.3965 54.5733 27.0348 53.5233 27.043C53.3756 27.043 52.1615 27.4449 50.8326 27.9289Z" fill="#2B4999"/>
<path d="M30.4473 28.9625C29.7582 29.1348 29.2414 29.4301 28.7164 29.9551C28.0273 30.6359 27.6172 31.5957 27.6172 32.5063C27.6172 33.1625 28.2078 33.7695 28.8477 33.7695C28.9871 33.7695 29.2496 33.6957 29.4219 33.6055C29.791 33.4168 30.0781 32.9492 30.0781 32.5391C30.0781 32.1453 30.3488 31.6941 30.718 31.4891C31.1199 31.2676 31.4645 31.2594 31.8828 31.4727C32.4898 31.7844 32.6785 32.5145 32.4078 33.4496C32.2437 34.0156 31.7188 34.5406 30.7016 35.1559C28.5852 36.4438 27.7895 37.5676 27.65 39.4707C27.6008 40.0449 27.6172 40.1762 27.773 40.4797C27.8879 40.7094 28.0602 40.8734 28.2734 40.9883C28.577 41.1441 28.7492 41.1523 31.3086 41.1523C33.868 41.1523 34.0402 41.1441 34.3437 40.9883C34.7129 40.7996 35 40.332 35 39.9219C35 39.5527 34.7129 39.0441 34.4012 38.8801C34.1797 38.757 33.8516 38.7242 32.2109 38.6914L30.2832 38.6504L30.5949 38.3141C30.9066 37.9695 30.9559 37.9285 32.334 37.0262C34.1059 35.8613 34.8359 34.7539 34.9672 32.9984C35.0656 31.7598 34.7211 30.7754 33.8926 29.9469C32.9738 29.0199 31.6859 28.6508 30.4473 28.9625Z" fill="#2B4999"/>
<path d="M38.109 29.0122C37.9449 29.0942 37.7562 29.2501 37.6906 29.3567C37.5102 29.6356 35 37.2153 35 37.486C35 37.8716 35.2953 38.3474 35.6562 38.5278C35.9516 38.6755 36.132 38.6919 37.9531 38.6919H39.9219V39.4302C39.9219 40.3489 40.0859 40.7345 40.5781 40.9888C40.9883 41.1938 41.3164 41.1938 41.7266 40.9888C42.2187 40.7345 42.3828 40.3489 42.3828 39.4302V38.6919H43.1211C43.7035 38.6919 43.9332 38.6591 44.1875 38.5278C44.5566 38.3392 44.8438 37.8716 44.8438 37.4614C44.8438 37.0513 44.5566 36.5837 44.1875 36.395C43.9332 36.2638 43.7035 36.231 43.1211 36.231H42.3828V34.2622C42.3828 32.4411 42.3664 32.2606 42.2187 31.9653C42.0301 31.5962 41.5625 31.3091 41.1523 31.3091C40.7422 31.3091 40.2746 31.5962 40.0859 31.9653C39.9383 32.2606 39.9219 32.4411 39.9219 34.2622V36.231H38.9375C38.3961 36.231 37.9531 36.2228 37.9531 36.2063C37.9531 36.1981 38.3961 34.861 38.9375 33.2368C39.4789 31.6126 39.9219 30.177 39.9219 30.0376C39.9219 29.6849 39.602 29.1763 39.2656 29.004C38.9047 28.8071 38.4863 28.8153 38.109 29.0122Z" fill="#2B4999"/>
</g>
<defs>
<clipPath id="clip0_507_1613">
<rect width="42" height="42" fill="white" transform="translate(14 14)"/>
</clipPath>
</defs>
</svg>
