<svg width="70" height="70" viewBox="0 0 70 70" fill="none" xmlns="http://www.w3.org/2000/svg">
<rect width="70" height="70" rx="10" fill="#ECF5FA"/>
<g clip-path="url(#clip0_507_1567)">
<path d="M24.0296 18.563C23.8654 18.6807 23.6464 18.8707 23.5551 18.9974C23.4365 19.1603 23.0532 20.8888 22.232 24.9794L21.0731 30.7442L19.613 31.0338C17.3226 31.4954 14.001 32.3461 13.7364 32.5452C13.2801 32.8891 13.125 33.1787 13.125 33.7398C13.125 34.4004 13.4261 34.8348 14.0284 35.0611C14.5212 35.2511 14.439 35.2602 16.912 34.6267C20.5256 33.7036 23.984 33.0882 27.7254 32.7171C32.1876 32.2646 37.7449 32.2646 42.2345 32.7171C45.8024 33.0701 49.5894 33.7398 53.0479 34.6267C55.539 35.2602 55.3657 35.224 55.7398 35.1606C56.1778 35.0792 56.7618 34.5 56.8439 34.0746C56.9991 33.2149 56.5702 32.5904 55.6212 32.3008C54.7634 32.0384 51.5969 31.2782 50.1187 30.9705L48.8776 30.7261L47.7278 24.9794C46.9066 20.8707 46.5233 19.1603 46.4047 18.9974C45.8937 18.3187 45.264 18.2101 44.1325 18.6264C43.7401 18.7712 42.9736 19.0065 42.417 19.1603C37.097 20.6445 31.3663 20.4907 26.1102 18.7259C24.8783 18.3096 24.4585 18.2734 24.0296 18.563Z" fill="#3AB8EE"/>
<path d="M23.2452 36.0589C20.5259 36.6472 18.2993 38.9549 17.8157 41.6608C17.6879 42.4391 17.7518 44.0138 17.9617 44.7469C18.4727 46.6112 19.9054 48.3126 21.6848 49.1814C23.6193 50.1225 25.9736 50.1044 27.9082 49.1361C30.2169 47.9868 31.7864 45.5433 31.7864 43.0907V42.4391H34.9711H38.1467L38.2014 43.317C38.2836 44.8283 38.7398 46.032 39.6797 47.2175C41.7238 49.8058 45.383 50.6112 48.3487 49.1361C50.7395 47.9506 52.2269 45.5523 52.2269 42.8916C52.2269 39.8418 50.3015 37.2173 47.3449 36.2309C46.4598 35.9413 44.945 35.8417 43.9594 36.0046C43.129 36.1494 42.1161 36.5567 41.3679 37.0544C40.6652 37.516 39.6706 38.5205 39.3147 39.1269L39.0683 39.5432H34.9802H30.8921L30.6457 39.1269C30.2899 38.5205 29.2952 37.516 28.6017 37.0635C27.8625 36.5748 27.023 36.2218 26.2291 36.0499C25.4809 35.896 23.9843 35.896 23.2452 36.0589Z" fill="#03399E"/>
</g>
<defs>
<clipPath id="clip0_507_1567">
<rect width="43.75" height="43.75" fill="white" transform="translate(13.125 13.125)"/>
</clipPath>
</defs>
</svg>
