<svg width="70" height="70" viewBox="0 0 70 70" fill="none" xmlns="http://www.w3.org/2000/svg">
<rect width="70" height="70" rx="10" fill="#ECF5FA"/>
<path d="M27.4613 16.7561C26.075 17.1252 24.9922 18.2326 24.623 19.6354C24.5246 19.9963 24.5 20.6197 24.5 22.3014V24.4998H24.8527C26.034 24.4998 27.8305 24.9674 29.1348 25.6072C35.0328 28.5111 36.7965 36.0416 32.818 41.3654L32.3832 41.9479L32.3586 47.4358C32.3422 51.5455 32.3094 52.9811 32.2355 53.1533L32.1289 53.3748H41.0129C50.7828 53.3748 50.348 53.3994 51.3324 52.8744C51.9066 52.5627 52.6203 51.8408 52.9156 51.2584C53.3996 50.3069 53.375 50.9057 53.375 38.5108V27.1248H49.8641C46.066 27.1248 45.8609 27.1084 44.9914 26.6654C44.409 26.3701 43.6871 25.6565 43.3754 25.0822C42.8914 24.1717 42.875 23.9912 42.875 20.1358V16.6248L35.3938 16.633C29.1266 16.633 27.8305 16.6576 27.4613 16.7561ZM39.643 24.7131C40.0777 25.033 40.209 25.2955 40.209 25.8123C40.209 26.3291 40.0777 26.5916 39.643 26.9115C39.4297 27.0756 39.2902 27.0838 37.1492 27.1084C35.6891 27.1248 34.7703 27.1002 34.5734 27.051C33.7449 26.8049 33.425 25.6647 33.991 24.9838C34.393 24.5162 34.4832 24.4998 37.0672 24.5244C39.2984 24.5408 39.4297 24.549 39.643 24.7131ZM47.518 31.2756C47.9527 31.5955 48.084 31.858 48.084 32.3748C48.084 32.8916 47.9527 33.1541 47.518 33.474C47.2965 33.6381 47.1898 33.6463 43.0555 33.6709C40.2254 33.6873 38.716 33.6709 38.5109 33.6053C37.6824 33.3674 37.3625 32.2272 37.9285 31.5463C38.3469 31.0541 38.2484 31.0623 42.9734 31.0869C47.1898 31.1033 47.2965 31.1033 47.518 31.2756ZM47.518 37.8381C47.9527 38.158 48.084 38.4205 48.084 38.9373C48.084 39.4541 47.9527 39.7166 47.518 40.0365C47.2965 40.2006 47.1898 40.2088 43.0555 40.2334C40.2254 40.2498 38.716 40.2334 38.5109 40.1678C37.6824 39.9299 37.3625 38.7897 37.9285 38.1088C38.3469 37.6166 38.2484 37.6248 42.9734 37.6494C47.1898 37.6658 47.2965 37.6658 47.518 37.8381ZM47.518 44.4006C47.9527 44.7205 48.084 44.983 48.084 45.4998C48.084 46.0166 47.9527 46.2791 47.518 46.599C47.2965 46.7713 47.198 46.7713 41.743 46.7959C37.9941 46.8123 36.091 46.7959 35.8859 46.7303C35.0574 46.4924 34.7375 45.3522 35.3035 44.6713C35.7219 44.1709 35.5086 44.1873 41.6609 44.2119C47.2063 44.2283 47.2965 44.2283 47.518 44.4006Z" fill="#3AB8EE"/>
<path d="M45.5 20.4227C45.5 22.7852 45.5246 23.4989 45.6148 23.704C45.7543 24.0485 46.1727 24.4012 46.509 24.4586C46.6566 24.4833 48.0758 24.4915 49.6672 24.4833L52.5547 24.4586L49.0273 20.9313L45.5 17.404V20.4227Z" fill="#3AB8EE"/>
<path d="M23.1307 27.2487C21.4818 27.544 19.9889 28.3479 18.8322 29.5702C15.8873 32.6464 15.9037 37.4124 18.8732 40.4804C20.2596 41.9241 22.0971 42.7444 24.1314 42.8511C27.8639 43.0397 31.1287 40.6116 32.1459 36.8956C32.4002 35.9933 32.4002 34.0081 32.1459 33.1058C31.301 30.0132 28.8893 27.7819 25.8377 27.2487C25.001 27.1011 23.9346 27.1011 23.1307 27.2487Z" fill="#03399E"/>
<path d="M19.25 48.2075C19.25 52.7685 19.2418 52.6782 19.7832 53.0884C20.0949 53.3345 20.4559 53.4165 20.866 53.3345C21.1285 53.2853 21.4238 53.0392 22.843 51.6282L24.5 49.9794L26.1652 51.6282C27.5762 53.0392 27.8715 53.2853 28.134 53.3345C28.5441 53.4165 28.9051 53.3345 29.2168 53.0884C29.7582 52.6782 29.75 52.7603 29.75 48.2239V44.1142L28.9707 44.4833C27.4613 45.1888 26.2473 45.4513 24.5 45.4513C22.5477 45.4595 21.268 45.1231 19.3156 44.1224C19.2746 44.106 19.25 45.9435 19.25 48.2075Z" fill="#03399E"/>
</svg>
