<svg width="70" height="70" viewBox="0 0 70 70" fill="none" xmlns="http://www.w3.org/2000/svg">
<rect width="70" height="70" rx="10" fill="#ECF5FA"/>
<path d="M33.6464 16.1891C29.4382 16.8536 26.239 20.1676 25.7304 24.3758C25.2382 28.4364 27.814 34.3672 31.1691 36.8938C33.5644 38.6985 35.9351 38.8133 38.3304 37.2547C41.3081 35.3188 43.8593 30.6758 44.2776 26.4348C44.7452 21.759 41.8331 17.5918 37.2394 16.3696C36.739 16.2301 36.3042 16.1891 35.246 16.1727C34.4995 16.1563 33.7858 16.1645 33.6464 16.1891Z" fill="#03399E"/>
<path d="M27.6577 36.9437C27.0917 37.0175 25.6808 37.403 25.0327 37.6655C22.096 38.855 19.7335 41.3159 18.6835 44.2937C18.2241 45.6062 18.0683 46.5249 18.0765 48.0425C18.0765 49.1663 18.1011 49.5026 18.2487 50.0358C18.8394 52.2097 20.3077 53.2843 23.2526 53.719C24.2862 53.8749 45.7128 53.8749 46.7464 53.719C49.6995 53.2843 51.1597 52.2097 51.7503 50.0358C52.0046 49.1007 52.0046 47.0335 51.7503 45.8522C51.2663 43.621 50.2819 41.7589 48.748 40.2085C47.6077 39.0519 46.4757 38.289 45.0401 37.6983C44.3019 37.3948 42.9401 37.0257 42.2183 36.9272L41.8491 36.8862L41.7015 37.2882C41.6276 37.5097 41.4062 37.9198 41.2175 38.1987C40.7581 38.8878 39.2241 40.471 37.9198 41.603C36.6566 42.6858 35.098 43.9409 34.9995 43.9409C34.9585 43.9409 34.4171 43.5308 33.7937 43.0304C30.6273 40.471 28.7159 38.4858 28.2976 37.2882C28.2073 37.0339 28.1089 36.8944 28.0269 36.8944C27.9612 36.9026 27.7972 36.9272 27.6577 36.9437ZM44.548 43.9901C44.5726 44.064 44.5972 44.5397 44.5972 45.0565V45.9917H45.5323C46.0491 45.9917 46.5249 46.0163 46.5987 46.0409C46.7956 46.1147 46.7956 48.2476 46.5987 48.3214C46.5249 48.346 46.0491 48.3706 45.5323 48.3706H44.5972V49.3304C44.5972 49.8636 44.5644 50.3476 44.5316 50.405C44.4741 50.4788 44.187 50.5034 43.3585 50.487L42.2593 50.4624L42.2347 49.4124L42.2101 48.3706H41.1929C40.2659 48.3706 40.1675 48.3542 40.0855 48.2147C40.0444 48.1245 40.0034 47.6569 40.0034 47.1812C40.0034 46.7054 40.0444 46.2378 40.0855 46.1476C40.1675 46.0081 40.2659 45.9917 41.1929 45.9917H42.2183V44.9827C42.2183 44.4249 42.2429 43.9409 42.2757 43.9163C42.3003 43.8835 42.8171 43.8589 43.4159 43.8589C44.3265 43.8589 44.5069 43.8753 44.548 43.9901Z" fill="#3AB8EE"/>
</svg>
