<svg width="70" height="70" viewBox="0 0 70 70" fill="none" xmlns="http://www.w3.org/2000/svg">
<rect width="70" height="70" rx="10" fill="#ECF5FA"/>
<g clip-path="url(#clip0_507_1599)">
<path d="M17.557 14.9493C16.8955 15.1147 16.3993 15.3982 15.8953 15.9022C15.3835 16.4141 15.0685 16.9732 14.9267 17.6583C14.8637 17.9497 14.8401 20.7611 14.8401 27.0847V36.1016H35.0001H55.1601V27.0847C55.1601 20.6666 55.1365 17.9576 55.0735 17.6583C54.7821 16.3038 53.6875 15.2092 52.3408 14.9257C51.703 14.7918 18.0925 14.8154 17.557 14.9493ZM24.9516 18.1072C25.5107 18.2253 26.3297 18.5718 26.7392 18.8553L26.9676 19.0207L27.4243 18.7451C29.9443 17.2173 33.244 18.1308 34.6063 20.7532C34.9922 21.5013 35.1733 22.2416 35.1733 23.1078C35.1733 23.9819 34.9922 24.7064 34.5906 25.5018C34.2835 26.1082 34.0866 26.3129 30.913 29.5023C27.9283 32.4948 27.5267 32.8728 27.259 32.9201C26.6132 33.0303 26.6053 33.0224 23.0222 29.4314C20.0376 26.4311 19.6438 25.9979 19.3918 25.5097C18.9351 24.6277 18.8248 24.1394 18.8248 23.1078C18.8248 22.4621 18.8642 22.0683 18.9666 21.7297C19.7462 19.1309 22.3528 17.5559 24.9516 18.1072ZM41.8986 22.0526C42.0482 22.1234 42.2372 22.2731 42.316 22.3912C42.4026 22.5093 42.8121 23.8559 43.2295 25.3916C43.6468 26.9272 44.0012 28.1951 44.0091 28.2029C44.017 28.2108 44.4186 27.3288 44.9068 26.2342C45.3951 25.1396 45.8597 24.1394 45.9385 24.0056C46.3322 23.3519 47.4505 23.3519 47.8442 24.0056C47.923 24.1394 48.2773 24.9663 48.6317 25.8404L49.2696 27.4391H49.7736C50.4351 27.4391 50.8446 27.6438 51.0651 28.0691C51.1517 28.2344 51.2226 28.4864 51.2226 28.6203C51.2226 29.0141 50.947 29.4629 50.5926 29.6441C50.3327 29.7779 50.128 29.8016 49.2538 29.8016C47.7418 29.8016 47.6473 29.7386 47.0882 28.3526L46.8283 27.7226L46.663 28.1163C45.4817 30.7859 44.8202 32.2428 44.6942 32.4476C44.3083 33.0776 43.2373 33.1012 42.8042 32.4869C42.7176 32.3688 42.3632 31.2191 42.0088 29.9197C41.6545 28.6203 41.3158 27.3682 41.245 27.1319L41.1268 26.7067L40.6386 27.8407C39.9692 29.3842 39.922 29.4629 39.5676 29.6441C39.3077 29.7779 39.103 29.8016 38.2288 29.8016C37.0082 29.8016 36.6853 29.6913 36.4176 29.1716C36.2207 28.7778 36.2207 28.4628 36.4176 28.0691C36.6302 27.6596 36.961 27.4863 37.6697 27.4391L38.2525 27.3997L39.2841 24.9899C39.859 23.6669 40.3787 22.4936 40.4496 22.3833C40.7252 21.9659 41.3946 21.8163 41.8986 22.0526Z" fill="#3AB8EE"/>
<path d="M23.1329 20.4631C22.3218 20.7308 21.7469 21.2348 21.3847 22.0066C21.2114 22.3688 21.1799 22.5499 21.1799 23.1091C21.1799 24.2746 21.2036 24.3061 24.2748 27.3773C25.7317 28.8421 26.9602 30.0391 27.0074 30.0391C27.0547 30.0391 28.2674 28.8578 29.7007 27.4167C32.4806 24.6289 32.6459 24.4163 32.7798 23.5501C32.9688 22.3294 32.3546 21.1639 31.2363 20.6127C30.8426 20.4158 30.7008 20.3922 30.0787 20.4001C29.2046 20.4079 28.8266 20.5576 28.1651 21.1639C27.5744 21.7073 27.4327 21.7861 27.0074 21.7861C26.5822 21.7861 26.4089 21.6916 25.8892 21.2033C25.3222 20.6757 24.7237 20.4158 24.0228 20.3764C23.6921 20.3607 23.3298 20.4001 23.1329 20.4631Z" fill="#03399E"/>
<path d="M14.8401 39.2125C14.8401 40.567 15.1315 41.3545 15.9032 42.1263C16.4151 42.6381 16.9821 42.9531 17.6593 43.1028C18.25 43.2288 51.7423 43.2288 52.3408 43.1028C53.3488 42.8901 54.2387 42.2129 54.7112 41.323C55.0498 40.6536 55.1601 40.1575 55.1601 39.2125V38.4644H35.0001H14.8401V39.2125Z" fill="#3AB8EE"/>
<path d="M29.5657 45.5759C29.5657 45.5916 29.3688 46.135 29.1326 46.7808C28.8963 47.4265 28.6995 47.9778 28.6995 48.0093C28.6995 48.0486 31.5345 48.0723 34.9995 48.0723C38.4645 48.0723 41.2995 48.0486 41.2995 48.0093C41.2995 47.9778 41.1026 47.4265 40.8663 46.7808C40.6301 46.135 40.4332 45.5916 40.4332 45.5759C40.4332 45.5601 37.992 45.5523 34.9995 45.5523C32.0148 45.5523 29.5657 45.5601 29.5657 45.5759Z" fill="#03399E"/>
<path d="M27.1491 50.5454C26.3458 50.8053 25.7631 51.3172 25.4008 52.0889C25.2355 52.4433 25.1961 52.6638 25.1725 53.3568C25.1331 54.3648 25.2748 54.7428 25.7867 55.0027C26.0938 55.1602 26.2277 55.1602 35.0005 55.1602C43.7732 55.1602 43.9071 55.1602 44.2142 55.0027C44.7261 54.7428 44.8678 54.3648 44.8285 53.3489C44.8048 52.6008 44.7812 52.4669 44.545 51.9944C44.2457 51.388 43.8205 50.9707 43.1983 50.6793L42.7573 50.4745L35.1186 50.4588C28.9603 50.4509 27.4168 50.4667 27.1491 50.5454Z" fill="#3AB8EE"/>
</g>
<defs>
<clipPath id="clip0_507_1599">
<rect width="42" height="42" fill="white" transform="translate(14 14)"/>
</clipPath>
</defs>
</svg>
